<svg xmlns="http://www.w3.org/2000/svg" xmlns:xlink="http://www.w3.org/1999/xlink" viewBox="0 0 500 500"><defs><clipPath id="freepik--clip-path--inject-2"><rect x="114.8" y="89.62" width="266.92" height="242.2" rx="8.79" style="fill:#92E3A9;stroke:#263238;stroke-linecap:round;stroke-linejoin:round"></rect></clipPath><clipPath id="freepik--clip-path-2--inject-2"><path d="M350.78,105.06h-205a233,233,0,0,0-9-41.85H359.82A223.58,223.58,0,0,0,350.78,105.06Z" style="fill:#fff;stroke:#263238;stroke-linecap:round;stroke-linejoin:round"></path></clipPath><clipPath id="freepik--clip-path-3--inject-2"><rect x="385.82" y="111.66" width="8.23" height="23.02" style="fill:#757575;stroke:#263238;stroke-linecap:round;stroke-linejoin:round"></rect></clipPath><clipPath id="freepik--clip-path-4--inject-2"><rect x="102.48" y="111.66" width="8.23" height="23.02" transform="translate(213.18 246.33) rotate(180)" style="fill:#757575;stroke:#263238;stroke-linecap:round;stroke-linejoin:round"></rect></clipPath><clipPath id="freepik--clip-path-5--inject-2"><path d="M350.78,150.28h-205a107.43,107.43,0,0,1-9-41.85H359.82C359.82,127.81,350.78,150.28,350.78,150.28Z" style="fill:#fff;stroke:#263238;stroke-linecap:round;stroke-linejoin:round"></path></clipPath><clipPath id="freepik--clip-path-6--inject-2"><rect x="117.23" y="101.83" width="6.11" height="42.68" style="fill:#757575;stroke:#263238;stroke-linecap:round;stroke-linejoin:round"></rect></clipPath><clipPath id="freepik--clip-path-7--inject-2"><rect x="373.18" y="101.83" width="6.11" height="42.68" style="fill:#757575;stroke:#263238;stroke-linecap:round;stroke-linejoin:round"></rect></clipPath><clipPath id="freepik--clip-path-8--inject-2"><path d="M388,152.48v69.81a4.44,4.44,0,0,1-4.45,4.44H112.93a4.44,4.44,0,0,1-4.45-4.44V152.48a4.46,4.46,0,0,1,4.45-4.45h124.7v4.45s-21.3,18.46-58,25.28c5.26,23.81,34,42,68.69,42s63.41-18.21,68.68-42c-36.76-6.82-58.05-25.28-58.05-25.28V148H383.59A4.45,4.45,0,0,1,388,152.48Z" style="fill:#92E3A9;stroke:#263238;stroke-linecap:round;stroke-linejoin:round"></path></clipPath></defs><g id="freepik--background-simple--inject-2"><path d="M67.93,167.09s-27.88,72,11.3,144.5S199.11,422.39,263.7,455.14s131.66,16.8,163.53-36.84-11.84-91.93-11.9-168.42,11.45-96.74-30-161.36-143.06-78.93-219.9-31S67.93,167.09,67.93,167.09Z" style="fill:#fff;opacity:0.7000000000000001"></path><path d="M232.69,28.84c124-11,124.25,58.94,180.13,124.13s67.85,94.76,46.78,169.91S367.54,457,279.71,423.57s-138.14-1.32-193.54-31-76-86.91-35.42-154.41S79.75,42.47,232.69,28.84Z" style="fill:#92E3A9"></path><path d="M232.69,28.84c124-11,124.25,58.94,180.13,124.13s67.85,94.76,46.78,169.91S367.54,457,279.71,423.57s-138.14-1.32-193.54-31-76-86.91-35.42-154.41S79.75,42.47,232.69,28.84Z" style="fill:#fff;opacity:0.7000000000000001"></path></g><g id="freepik--Bubbles--inject-2"><path d="M426.94,323.71l-.78,7,13.61-15.91a47.9,47.9,0,0,0,4.9.26" style="fill:none;stroke:#263238;stroke-linecap:round;stroke-linejoin:round"></path><path d="M409.89,275.43a20.42,20.42,0,0,0-3.27,9c-1.29,11.63,7.83,22.63,21.61,27.72l-.7,6.25" style="fill:none;stroke:#263238;stroke-linecap:round;stroke-linejoin:round"></path><path d="M415.18,269.64a27.84,27.84,0,0,0-2.52,2.31" style="fill:none;stroke:#263238;stroke-linecap:round;stroke-linejoin:round"></path><path d="M466.22,269.64A44.92,44.92,0,0,0,445.33,262a44.4,44.4,0,0,0-23.26,3.42" style="fill:none;stroke:#263238;stroke-linecap:round;stroke-linejoin:round"></path><path d="M454.14,314.12c13-2.69,22.85-11,24-21.78.84-7.54-2.69-14.81-9-20.39" style="fill:none;stroke:#263238;stroke-linecap:round;stroke-linejoin:round"></path><path d="M422.08,277.37a8.49,8.49,0,0,0,6.38-1.36l4.86,3.77c-.34.11-.31-.61.05-.63s.63.31.88.57c1.14,1.21,3.06,1.25,4.69.9s3.22-1,4.88-.94a12,12,0,0,1,2.89.67c6.68,2.07,13.63,3.11,20.55,4.13" style="fill:none;stroke:#263238;stroke-linecap:round;stroke-linejoin:round"></path><path d="M416.34,284.48c1-.06,6.57,0,7.37-.67l1.36,2.37,1.5-1.45c.26,1,.52,2,.77,2.94,1.13.27,1-1.91,2-2.56a1.36,1.36,0,0,1,1.77.53,3.93,3.93,0,0,1,.46,2l6.84.56,1.33.11a3.89,3.89,0,0,1,2-1.55c-.25,1.58,1.74,2.48,3.32,2.8q11.67,2.38,23.46,4.11" style="fill:none;stroke:#263238;stroke-linecap:round;stroke-linejoin:round"></path><path d="M419.38,295.34c.63.44,1.4-.38,2.17-.48s1.4.48,2.08.83,1.8.2,1.84-.56c.16,1,1.4,1.36,2.41,1.5l26.26,3.69" style="fill:none;stroke:#263238;stroke-linecap:round;stroke-linejoin:round"></path><path d="M68,261.18l10.52,14.16-2.11-18.53a48.76,48.76,0,0,0,7.19-4.29c10.78-7.8,15.12-20.35,11.17-30.46C92,215,85.51,210.2,77.31,208.21" style="fill:none;stroke:#263238;stroke-linecap:round;stroke-linejoin:round"></path><path d="M26.45,238.84a20.35,20.35,0,0,0,1.28,9.45c4.26,10.9,17.44,16.4,32,14.5" style="fill:none;stroke:#263238;stroke-linecap:round;stroke-linejoin:round"></path><path d="M28.44,231.25a28.85,28.85,0,0,0-1.15,3.22" style="fill:none;stroke:#263238;stroke-linecap:round;stroke-linejoin:round"></path><path d="M73.64,207.53a44.87,44.87,0,0,0-22.06,2.92,44.38,44.38,0,0,0-19,13.84" style="fill:none;stroke:#263238;stroke-linecap:round;stroke-linejoin:round"></path><path d="M38.14,234.88a8.52,8.52,0,0,0,5-4.16l6,1.08c-.26.25-.56-.4-.25-.59s.7,0,1,.1c1.58.54,3.29-.31,4.57-1.38s2.38-2.4,3.89-3.1a12.27,12.27,0,0,1,2.87-.76c6.88-1.26,13.51-3.58,20.12-5.89" style="fill:none;stroke:#263238;stroke-linecap:round;stroke-linejoin:round"></path><path d="M36.36,243.85c.89-.53,5.82-3.06,6.22-4l2.31,1.47c.22-.66.44-1.33.65-2l2.05,2.25c1.13-.28,0-2.15.54-3.17a1.35,1.35,0,0,1,1.81-.35,3.88,3.88,0,0,1,1.33,1.53l6.31-2.68,1.24-.52a3.93,3.93,0,0,1,1-2.31c.52,1.53,2.7,1.39,4.24.94q11.45-3.3,22.69-7.26" style="fill:none;stroke:#263238;stroke-linecap:round;stroke-linejoin:round"></path><path d="M44.1,252.05c.77.1,1.07-1,1.7-1.44s1.47-.21,2.23-.23,1.69-.65,1.37-1.34c.61.81,1.88.55,2.83.21l25-8.95" style="fill:none;stroke:#263238;stroke-linecap:round;stroke-linejoin:round"></path></g><g id="freepik--Typewritter--inject-2"><rect x="114.8" y="89.62" width="266.92" height="242.2" rx="8.79" style="fill:#92E3A9"></rect><g style="clip-path:url(#freepik--clip-path--inject-2)"><path d="M381.72,222.29v101a8.53,8.53,0,0,1-8.52,8.53H123.33a8.53,8.53,0,0,1-8.53-8.53v-20h.53v13.48a9.75,9.75,0,0,0,9.76,9.75H366.48a9.75,9.75,0,0,0,9.76-9.75v-79.5a6.79,6.79,0,0,0-6.79-6.79H114.8v-8.19Z" style="opacity:0.2"></path></g><rect x="114.8" y="89.62" width="266.92" height="242.2" rx="8.79" style="fill:none;stroke:#263238;stroke-linecap:round;stroke-linejoin:round"></rect><path d="M358.48,251.05V239.48a4.27,4.27,0,0,0-4.28-4.28H142.32a4.28,4.28,0,0,0-4.28,4.28v11.57a4.28,4.28,0,0,1-4.28,4.28h0a4.29,4.29,0,0,0-4.29,4.29v22.83a19.85,19.85,0,0,0,19.85,19.85h0a3.19,3.19,0,0,1,3.19,3.19v6.84a9.52,9.52,0,0,0,9.52,9.52H334.49a9.52,9.52,0,0,0,9.52-9.52v-6.84a3.19,3.19,0,0,1,3.19-3.19h0a19.85,19.85,0,0,0,19.85-19.85V259.62a4.29,4.29,0,0,0-4.28-4.29h0A4.29,4.29,0,0,1,358.48,251.05Z" style="fill:#263238"></path><path d="M154.27,241.75h-7.41a3.42,3.42,0,0,0-3.42,3.42v1.9c0,3.94,3.19,8.94,7.13,8.94s7.13-5,7.13-8.94v-1.9A3.43,3.43,0,0,0,154.27,241.75Z" style="fill:#92E3A9;stroke:#263238;stroke-linecap:round;stroke-linejoin:round"></path><path d="M172,241.75h-7.41a3.43,3.43,0,0,0-3.43,3.42v1.9c0,3.94,3.19,8.94,7.13,8.94s7.13-5,7.13-8.94v-1.9A3.42,3.42,0,0,0,172,241.75Z" style="fill:#92E3A9;stroke:#263238;stroke-linecap:round;stroke-linejoin:round"></path><path d="M189.8,241.75h-7.41a3.42,3.42,0,0,0-3.42,3.42v1.9c0,3.94,3.19,8.94,7.12,8.94s7.13-5,7.13-8.94v-1.9A3.42,3.42,0,0,0,189.8,241.75Z" style="fill:#92E3A9;stroke:#263238;stroke-linecap:round;stroke-linejoin:round"></path><path d="M207.56,241.75h-7.41a3.42,3.42,0,0,0-3.42,3.42v1.9c0,3.94,3.19,8.94,7.13,8.94s7.12-5,7.12-8.94v-1.9A3.42,3.42,0,0,0,207.56,241.75Z" style="fill:#92E3A9;stroke:#263238;stroke-linecap:round;stroke-linejoin:round"></path><path d="M225.32,241.75h-7.41a3.42,3.42,0,0,0-3.42,3.42v1.9c0,3.94,3.19,8.94,7.13,8.94s7.13-5,7.13-8.94v-1.9A3.43,3.43,0,0,0,225.32,241.75Z" style="fill:#92E3A9;stroke:#263238;stroke-linecap:round;stroke-linejoin:round"></path><path d="M243.09,241.75h-7.41a3.43,3.43,0,0,0-3.43,3.42v1.9c0,3.94,3.19,8.94,7.13,8.94s7.13-5,7.13-8.94v-1.9A3.42,3.42,0,0,0,243.09,241.75Z" style="fill:#92E3A9;stroke:#263238;stroke-linecap:round;stroke-linejoin:round"></path><path d="M260.85,241.75h-7.41a3.42,3.42,0,0,0-3.42,3.42v1.9c0,3.94,3.19,8.94,7.12,8.94s7.13-5,7.13-8.94v-1.9A3.42,3.42,0,0,0,260.85,241.75Z" style="fill:#92E3A9;stroke:#263238;stroke-linecap:round;stroke-linejoin:round"></path><path d="M278.61,241.75H271.2a3.42,3.42,0,0,0-3.42,3.42v1.9c0,3.94,3.19,8.94,7.13,8.94s7.12-5,7.12-8.94v-1.9A3.42,3.42,0,0,0,278.61,241.75Z" style="fill:#92E3A9;stroke:#263238;stroke-linecap:round;stroke-linejoin:round"></path><path d="M296.37,241.75H289a3.42,3.42,0,0,0-3.42,3.42v1.9c0,3.94,3.19,8.94,7.13,8.94s7.13-5,7.13-8.94v-1.9A3.43,3.43,0,0,0,296.37,241.75Z" style="fill:#92E3A9;stroke:#263238;stroke-linecap:round;stroke-linejoin:round"></path><path d="M314.14,241.75h-7.41a3.43,3.43,0,0,0-3.43,3.42v1.9c0,3.94,3.19,8.94,7.13,8.94s7.13-5,7.13-8.94v-1.9A3.42,3.42,0,0,0,314.14,241.75Z" style="fill:#92E3A9;stroke:#263238;stroke-linecap:round;stroke-linejoin:round"></path><path d="M331.9,241.75h-7.41a3.42,3.42,0,0,0-3.42,3.42v1.9c0,3.94,3.19,8.94,7.12,8.94s7.13-5,7.13-8.94v-1.9A3.42,3.42,0,0,0,331.9,241.75Z" style="fill:#92E3A9;stroke:#263238;stroke-linecap:round;stroke-linejoin:round"></path><path d="M349.66,241.75h-7.41a3.42,3.42,0,0,0-3.42,3.42v1.9C338.83,251,342,256,346,256s7.12-5,7.12-8.94v-1.9A3.42,3.42,0,0,0,349.66,241.75Z" style="fill:#92E3A9;stroke:#263238;stroke-linecap:round;stroke-linejoin:round"></path><path d="M154.27,279.39h-7.41a3.42,3.42,0,0,0-3.42,3.42v1.9c0,3.94,3.19,8.94,7.13,8.94s7.13-5,7.13-8.94v-1.9A3.43,3.43,0,0,0,154.27,279.39Z" style="fill:#92E3A9;stroke:#263238;stroke-linecap:round;stroke-linejoin:round"></path><path d="M172,279.39h-7.41a3.43,3.43,0,0,0-3.43,3.42v1.9c0,3.94,3.19,8.94,7.13,8.94s7.13-5,7.13-8.94v-1.9A3.42,3.42,0,0,0,172,279.39Z" style="fill:#92E3A9;stroke:#263238;stroke-linecap:round;stroke-linejoin:round"></path><path d="M189.8,279.39h-7.41a3.42,3.42,0,0,0-3.42,3.42v1.9c0,3.94,3.19,8.94,7.12,8.94s7.13-5,7.13-8.94v-1.9A3.42,3.42,0,0,0,189.8,279.39Z" style="fill:#92E3A9;stroke:#263238;stroke-linecap:round;stroke-linejoin:round"></path><path d="M207.56,279.39h-7.41a3.42,3.42,0,0,0-3.42,3.42v1.9c0,3.94,3.19,8.94,7.13,8.94s7.12-5,7.12-8.94v-1.9A3.42,3.42,0,0,0,207.56,279.39Z" style="fill:#92E3A9;stroke:#263238;stroke-linecap:round;stroke-linejoin:round"></path><path d="M225.32,279.39h-7.41a3.42,3.42,0,0,0-3.42,3.42v1.9c0,3.94,3.19,8.94,7.13,8.94s7.13-5,7.13-8.94v-1.9A3.43,3.43,0,0,0,225.32,279.39Z" style="fill:#92E3A9;stroke:#263238;stroke-linecap:round;stroke-linejoin:round"></path><path d="M243.09,279.39h-7.41a3.43,3.43,0,0,0-3.43,3.42v1.9c0,3.94,3.19,8.94,7.13,8.94s7.13-5,7.13-8.94v-1.9A3.42,3.42,0,0,0,243.09,279.39Z" style="fill:#92E3A9;stroke:#263238;stroke-linecap:round;stroke-linejoin:round"></path><path d="M260.85,279.39h-7.41a3.42,3.42,0,0,0-3.42,3.42v1.9c0,3.94,3.19,8.94,7.12,8.94s7.13-5,7.13-8.94v-1.9A3.42,3.42,0,0,0,260.85,279.39Z" style="fill:#92E3A9;stroke:#263238;stroke-linecap:round;stroke-linejoin:round"></path><path d="M278.61,279.39H271.2a3.42,3.42,0,0,0-3.42,3.42v1.9c0,3.94,3.19,8.94,7.13,8.94s7.12-5,7.12-8.94v-1.9A3.42,3.42,0,0,0,278.61,279.39Z" style="fill:#92E3A9;stroke:#263238;stroke-linecap:round;stroke-linejoin:round"></path><path d="M296.37,279.39H289a3.42,3.42,0,0,0-3.42,3.42v1.9c0,3.94,3.19,8.94,7.13,8.94s7.13-5,7.13-8.94v-1.9A3.43,3.43,0,0,0,296.37,279.39Z" style="fill:#92E3A9;stroke:#263238;stroke-linecap:round;stroke-linejoin:round"></path><path d="M314.14,279.39h-7.41a3.43,3.43,0,0,0-3.43,3.42v1.9c0,3.94,3.19,8.94,7.13,8.94s7.13-5,7.13-8.94v-1.9A3.42,3.42,0,0,0,314.14,279.39Z" style="fill:#92E3A9;stroke:#263238;stroke-linecap:round;stroke-linejoin:round"></path><path d="M331.9,279.39h-7.41a3.42,3.42,0,0,0-3.42,3.42v1.9c0,3.94,3.19,8.94,7.12,8.94s7.13-5,7.13-8.94v-1.9A3.42,3.42,0,0,0,331.9,279.39Z" style="fill:#92E3A9;stroke:#263238;stroke-linecap:round;stroke-linejoin:round"></path><path d="M349.66,279.39h-7.41a3.42,3.42,0,0,0-3.42,3.42v1.9c0,3.94,3.19,8.94,7.13,8.94s7.12-5,7.12-8.94v-1.9A3.42,3.42,0,0,0,349.66,279.39Z" style="fill:#92E3A9;stroke:#263238;stroke-linecap:round;stroke-linejoin:round"></path><path d="M145.39,261.18H138a3.42,3.42,0,0,0-3.42,3.42v1.9c0,3.93,3.19,8.94,7.13,8.94s7.12-5,7.12-8.94v-1.9A3.42,3.42,0,0,0,145.39,261.18Z" style="fill:#92E3A9;stroke:#263238;stroke-linecap:round;stroke-linejoin:round"></path><path d="M163.15,261.18h-7.41a3.42,3.42,0,0,0-3.42,3.42v1.9c0,3.93,3.19,8.94,7.13,8.94s7.13-5,7.13-8.94v-1.9A3.43,3.43,0,0,0,163.15,261.18Z" style="fill:#92E3A9;stroke:#263238;stroke-linecap:round;stroke-linejoin:round"></path><path d="M180.92,261.18h-7.41a3.43,3.43,0,0,0-3.43,3.42v1.9c0,3.93,3.2,8.94,7.13,8.94s7.13-5,7.13-8.94v-1.9A3.42,3.42,0,0,0,180.92,261.18Z" style="fill:#92E3A9;stroke:#263238;stroke-linecap:round;stroke-linejoin:round"></path><path d="M198.68,261.18h-7.41a3.42,3.42,0,0,0-3.42,3.42v1.9c0,3.93,3.19,8.94,7.12,8.94s7.13-5,7.13-8.94v-1.9A3.42,3.42,0,0,0,198.68,261.18Z" style="fill:#92E3A9;stroke:#263238;stroke-linecap:round;stroke-linejoin:round"></path><path d="M216.44,261.18H209a3.42,3.42,0,0,0-3.42,3.42v1.9c0,3.93,3.19,8.94,7.13,8.94s7.12-5,7.12-8.94v-1.9A3.42,3.42,0,0,0,216.44,261.18Z" style="fill:#92E3A9;stroke:#263238;stroke-linecap:round;stroke-linejoin:round"></path><path d="M234.2,261.18h-7.41a3.42,3.42,0,0,0-3.42,3.42v1.9c0,3.93,3.19,8.94,7.13,8.94s7.13-5,7.13-8.94v-1.9A3.43,3.43,0,0,0,234.2,261.18Z" style="fill:#92E3A9;stroke:#263238;stroke-linecap:round;stroke-linejoin:round"></path><path d="M252,261.18h-7.41a3.43,3.43,0,0,0-3.43,3.42v1.9c0,3.93,3.2,8.94,7.13,8.94s7.13-5,7.13-8.94v-1.9A3.42,3.42,0,0,0,252,261.18Z" style="fill:#92E3A9;stroke:#263238;stroke-linecap:round;stroke-linejoin:round"></path><path d="M269.73,261.18h-7.41a3.42,3.42,0,0,0-3.42,3.42v1.9c0,3.93,3.19,8.94,7.12,8.94s7.13-5,7.13-8.94v-1.9A3.42,3.42,0,0,0,269.73,261.18Z" style="fill:#92E3A9;stroke:#263238;stroke-linecap:round;stroke-linejoin:round"></path><path d="M287.49,261.18h-7.41a3.42,3.42,0,0,0-3.42,3.42v1.9c0,3.93,3.19,8.94,7.13,8.94s7.12-5,7.12-8.94v-1.9A3.42,3.42,0,0,0,287.49,261.18Z" style="fill:#92E3A9;stroke:#263238;stroke-linecap:round;stroke-linejoin:round"></path><path d="M305.25,261.18h-7.41a3.42,3.42,0,0,0-3.42,3.42v1.9c0,3.93,3.19,8.94,7.13,8.94s7.13-5,7.13-8.94v-1.9A3.43,3.43,0,0,0,305.25,261.18Z" style="fill:#92E3A9;stroke:#263238;stroke-linecap:round;stroke-linejoin:round"></path><path d="M323,261.18h-7.41a3.43,3.43,0,0,0-3.43,3.42v1.9c0,3.93,3.2,8.94,7.13,8.94s7.13-5,7.13-8.94v-1.9A3.42,3.42,0,0,0,323,261.18Z" style="fill:#92E3A9;stroke:#263238;stroke-linecap:round;stroke-linejoin:round"></path><path d="M340.78,261.18h-7.41A3.42,3.42,0,0,0,330,264.6v1.9c0,3.93,3.19,8.94,7.12,8.94s7.13-5,7.13-8.94v-1.9A3.42,3.42,0,0,0,340.78,261.18Z" style="fill:#92E3A9;stroke:#263238;stroke-linecap:round;stroke-linejoin:round"></path><path d="M358.54,261.18h-7.41a3.42,3.42,0,0,0-3.42,3.42v1.9c0,3.93,3.19,8.94,7.13,8.94s7.12-5,7.12-8.94v-1.9A3.42,3.42,0,0,0,358.54,261.18Z" style="fill:#92E3A9;stroke:#263238;stroke-linecap:round;stroke-linejoin:round"></path><rect x="177.21" y="298.35" width="142.1" height="16.16" rx="3.21" style="fill:#92E3A9;stroke:#263238;stroke-linecap:round;stroke-linejoin:round"></rect><path d="M334.27,299.3h-7.41a3.42,3.42,0,0,0-3.42,3.42v1.9c0,3.94,3.19,8.94,7.13,8.94s7.12-5,7.12-8.94v-1.9A3.42,3.42,0,0,0,334.27,299.3Z" style="fill:#92E3A9;stroke:#263238;stroke-linecap:round;stroke-linejoin:round"></path><path d="M169.66,299.3h-7.41a3.42,3.42,0,0,0-3.42,3.42v1.9c0,3.94,3.19,8.94,7.13,8.94s7.13-5,7.13-8.94v-1.9A3.43,3.43,0,0,0,169.66,299.3Z" style="fill:#92E3A9;stroke:#263238;stroke-linecap:round;stroke-linejoin:round"></path><path d="M154.68,247.18a6.07,6.07,0,0,1,1.07.1c0-.07,0-.14,0-.21v-1.9a1.49,1.49,0,0,0-1.49-1.48h-7.41a1.49,1.49,0,0,0-1.48,1.48v1.9c0,2.73,2,6.17,4.36,6.86C149,250.9,150.64,247.18,154.68,247.18Z" style="opacity:0.2"></path><path d="M172.84,246.67a5,5,0,0,1,.68,0v-1.54a1.49,1.49,0,0,0-1.48-1.48h-7.41a1.49,1.49,0,0,0-1.49,1.48v1.9c0,3,2.37,6.75,5,7C166.93,250.93,168.52,246.67,172.84,246.67Z" style="opacity:0.2"></path><path d="M191.13,246.41h.15v-1.25a1.48,1.48,0,0,0-1.48-1.48h-7.41a1.49,1.49,0,0,0-1.49,1.48v1.9c0,3.05,2.52,7,5.19,7a2.58,2.58,0,0,0,.39,0C185.14,250.9,186.69,246.41,191.13,246.41Z" style="opacity:0.2"></path><path d="M207.76,245.9A5.7,5.7,0,0,1,209,246v-.87a1.48,1.48,0,0,0-1.48-1.48h-7.41a1.48,1.48,0,0,0-1.48,1.48v1.9c0,2.86,2.2,6.5,4.68,7C201.61,250.89,203.08,245.9,207.76,245.9Z" style="opacity:0.2"></path><path d="M226.43,245.9l.38,0v-.75a1.49,1.49,0,0,0-1.49-1.48h-7.41a1.49,1.49,0,0,0-1.48,1.48v1.9c0,3.05,2.52,7,5.19,7a2.85,2.85,0,0,0,.41,0C220.28,250.9,221.75,245.9,226.43,245.9Z" style="opacity:0.2"></path><path d="M244.34,246h.23v-.87a1.49,1.49,0,0,0-1.48-1.48h-7.41a1.49,1.49,0,0,0-1.49,1.48v1.9c0,3.05,2.52,7,5.19,7a2.72,2.72,0,0,0,.49,0C238.23,250.88,239.72,246,244.34,246Z" style="opacity:0.2"></path><path d="M261.48,245.9a7.56,7.56,0,0,1,.85.06v-.79a1.48,1.48,0,0,0-1.48-1.48h-7.41a1.48,1.48,0,0,0-1.48,1.48v1.9c0,3,2.48,6.94,5.13,7C255.32,250.93,256.78,245.9,261.48,245.9Z" style="opacity:0.2"></path><path d="M280.09,246.16v-1a1.48,1.48,0,0,0-1.48-1.48H271.2a1.48,1.48,0,0,0-1.48,1.48v1.9c0,3.05,2.51,7,5.19,7a2.72,2.72,0,0,0,.79-.13C274.26,250.85,275.73,246.3,280.09,246.16Z" style="opacity:0.2"></path><path d="M296.4,245.77a5.61,5.61,0,0,1,1.46.19v-.79a1.49,1.49,0,0,0-1.49-1.48H289a1.49,1.49,0,0,0-1.48,1.48v1.9c0,2.82,2.14,6.38,4.57,6.92C290.22,250.86,291.67,245.77,296.4,245.77Z" style="opacity:0.2"></path><path d="M314.56,245.77a5.87,5.87,0,0,1,1.06.1v-.7a1.49,1.49,0,0,0-1.48-1.48h-7.41a1.49,1.49,0,0,0-1.49,1.48v1.9c0,3,2.4,6.81,5,7C308.36,250.93,309.8,245.77,314.56,245.77Z" style="opacity:0.2"></path><path d="M332.6,246.28a6.49,6.49,0,0,1,.78.06v-1.17a1.48,1.48,0,0,0-1.48-1.48h-7.41a1.48,1.48,0,0,0-1.48,1.48v1.9c0,3,2.4,6.8,5,7C326.56,250.91,328.09,246.28,332.6,246.28Z" style="opacity:0.2"></path><path d="M351.14,246.05v-.88a1.48,1.48,0,0,0-1.48-1.48h-7.41a1.48,1.48,0,0,0-1.48,1.48v1.9c0,3.05,2.51,7,5.19,7a2.93,2.93,0,0,0,1.12-.24C345.66,250.81,347,246.39,351.14,246.05Z" style="opacity:0.2"></path><path d="M155.19,283a5.3,5.3,0,0,1,.57,0v-.21a1.49,1.49,0,0,0-1.49-1.48h-7.41a1.49,1.49,0,0,0-1.48,1.48v1.9c0,3.05,2.52,7,5.19,7a3.31,3.31,0,0,0,.55-.06C148.88,288.59,150.24,283,155.19,283Z" style="opacity:0.2"></path><path d="M172.59,283a5.64,5.64,0,0,1,.93.08v-.26a1.49,1.49,0,0,0-1.48-1.48h-7.41a1.49,1.49,0,0,0-1.49,1.48v1.9c0,3.05,2.52,7,5.19,7l.22,0C166.26,288.64,167.61,283,172.59,283Z" style="opacity:0.2"></path><path d="M190.24,283.25a5.75,5.75,0,0,1,1,.09v-.53a1.48,1.48,0,0,0-1.48-1.48h-7.41a1.49,1.49,0,0,0-1.49,1.48v1.9c0,3,2.48,6.93,5.13,7C184,288.6,185.39,283.25,190.24,283.25Z" style="opacity:0.2"></path><path d="M208.27,283.38a6.23,6.23,0,0,1,.77.05v-.62a1.48,1.48,0,0,0-1.48-1.48h-7.41a1.48,1.48,0,0,0-1.48,1.48v1.9c0,3.05,2.51,7,5.19,7l.12,0C202.06,288.58,203.49,283.38,208.27,283.38Z" style="opacity:0.2"></path><path d="M225.67,283a6,6,0,0,1,1.14.11v-.29a1.49,1.49,0,0,0-1.49-1.48h-7.41a1.49,1.49,0,0,0-1.48,1.48v1.9c0,3.05,2.52,7,5.19,7h0C219.34,288.66,220.68,283,225.67,283Z" style="opacity:0.2"></path><path d="M243.7,283.12a6,6,0,0,1,.87.07v-.38a1.49,1.49,0,0,0-1.48-1.48h-7.41a1.49,1.49,0,0,0-1.49,1.48v1.9c0,3.05,2.52,7,5.19,7l.19,0C237.41,288.61,238.79,283.12,243.7,283.12Z" style="opacity:0.2"></path><path d="M262.12,283.5h.21v-.7a1.48,1.48,0,0,0-1.48-1.48h-7.41a1.48,1.48,0,0,0-1.48,1.48v1.9c0,3.05,2.51,7,5.18,7a2.79,2.79,0,0,0,.58-.07C256,288.51,257.43,283.5,262.12,283.5Z" style="opacity:0.2"></path><path d="M280,283.12h.06v-.31a1.48,1.48,0,0,0-1.48-1.48H271.2a1.48,1.48,0,0,0-1.48,1.48v1.9c0,3.05,2.51,7,5.19,7a2.85,2.85,0,0,0,.9-.16C273.78,288.45,275.19,283.12,280,283.12Z" style="opacity:0.2"></path><path d="M297.29,282.74l.56,0a1.49,1.49,0,0,0-1.48-1.43H289a1.49,1.49,0,0,0-1.48,1.48v1.9c0,3.05,2.52,7,5.19,7a3,3,0,0,0,.72-.11C290.92,288.6,292.22,282.74,297.29,282.74Z" style="opacity:0.2"></path><path d="M315.59,283h0v-.18a1.49,1.49,0,0,0-1.48-1.48h-7.41a1.49,1.49,0,0,0-1.49,1.48v1.9c0,3.05,2.52,7,5.19,7a3.15,3.15,0,0,0,1-.18C309.31,288.44,310.69,283,315.59,283Z" style="opacity:0.2"></path><path d="M333,283l.4,0v-.2a1.48,1.48,0,0,0-1.48-1.48h-7.41a1.48,1.48,0,0,0-1.48,1.48v1.9c0,3.05,2.51,7,5.18,7a2.75,2.75,0,0,0,.7-.1C326.68,288.54,328.05,283,333,283Z" style="opacity:0.2"></path><path d="M350.5,283.76c.22,0,.44,0,.64,0v-1a1.48,1.48,0,0,0-1.48-1.48h-7.41a1.48,1.48,0,0,0-1.48,1.48v1.9c0,3.05,2.51,7,5.19,7h0C344.41,288.56,345.91,283.76,350.5,283.76Z" style="opacity:0.2"></path><path d="M146.75,265.09h.13v-.49a1.49,1.49,0,0,0-1.49-1.48H138a1.48,1.48,0,0,0-1.48,1.48v1.9c0,3.05,2.51,7,5.19,7a2.93,2.93,0,0,0,.76-.12C140.55,270.26,142,265.09,146.75,265.09Z" style="opacity:0.2"></path><path d="M164.14,265.09l.5,0v-.51a1.49,1.49,0,0,0-1.49-1.48h-7.41a1.49,1.49,0,0,0-1.48,1.48v1.9c0,3.05,2.52,7,5.19,7a3.27,3.27,0,0,0,.44,0C157.92,270.35,159.34,265.09,164.14,265.09Z" style="opacity:0.2"></path><path d="M182.31,265.09h.09v-.49a1.49,1.49,0,0,0-1.48-1.48h-7.41A1.49,1.49,0,0,0,172,264.6v1.9c0,3.05,2.52,7,5.19,7a2.67,2.67,0,0,0,.79-.13C176.11,270.26,177.54,265.09,182.31,265.09Z" style="opacity:0.2"></path><path d="M199.7,265l.46,0v-.38a1.48,1.48,0,0,0-1.48-1.48h-7.41a1.48,1.48,0,0,0-1.48,1.48v1.9c0,3.05,2.51,7,5.18,7a3.08,3.08,0,0,0,.54-.06C193.44,270.35,194.84,265,199.7,265Z" style="opacity:0.2"></path><path d="M217,265.09a5.7,5.7,0,0,1,.95.08v-.57a1.48,1.48,0,0,0-1.48-1.48H209a1.48,1.48,0,0,0-1.48,1.48v1.9c0,3.05,2.51,7,5.19,7h0C210.73,270.39,212.14,265.09,217,265.09Z" style="opacity:0.2"></path><path d="M234.88,264.45a6.87,6.87,0,0,1,.8.05,1.49,1.49,0,0,0-1.48-1.38h-7.41a1.49,1.49,0,0,0-1.48,1.48v1.9c0,3.05,2.52,7,5.19,7a2.78,2.78,0,0,0,.57-.07C228.47,270.46,229.74,264.45,234.88,264.45Z" style="opacity:0.2"></path><path d="M252.78,265.21c.23,0,.46,0,.67,0v-.65a1.49,1.49,0,0,0-1.48-1.48h-7.41a1.49,1.49,0,0,0-1.49,1.48v1.9c0,3.05,2.52,7,5.19,7l.2,0C246.59,270.36,248,265.21,252.78,265.21Z" style="opacity:0.2"></path><path d="M271.21,264.6a1.48,1.48,0,0,0-1.48-1.48h-7.41a1.48,1.48,0,0,0-1.48,1.48v1.9c0,3.05,2.51,7,5.18,7a3.25,3.25,0,0,0,1.52-.42C265.52,270.1,266.74,265,271.21,264.6Z" style="opacity:0.2"></path><path d="M289,265v-.38a1.48,1.48,0,0,0-1.48-1.48h-7.41a1.48,1.48,0,0,0-1.48,1.48v1.9c0,3.05,2.51,7,5.19,7a3,3,0,0,0,1.24-.29C283.23,270.18,284.54,265.25,289,265Z" style="opacity:0.2"></path><path d="M306.12,264.7c.21,0,.42,0,.62,0v-.13a1.49,1.49,0,0,0-1.49-1.48h-7.41a1.49,1.49,0,0,0-1.48,1.48v1.9c0,3.05,2.52,7,5.19,7a2.6,2.6,0,0,0,.56-.07C299.79,270.39,301.12,264.7,306.12,264.7Z" style="opacity:0.2"></path><path d="M324.5,265.35v-.75a1.49,1.49,0,0,0-1.48-1.48h-7.41a1.49,1.49,0,0,0-1.49,1.48v1.9c0,3.05,2.52,7,5.19,7a3,3,0,0,0,.89-.15C318.57,270.25,320,265.47,324.5,265.35Z" style="opacity:0.2"></path><path d="M341.42,264.83a7.37,7.37,0,0,1,.84.06v-.29a1.48,1.48,0,0,0-1.48-1.48h-7.41a1.48,1.48,0,0,0-1.48,1.48v1.9c0,3.05,2.51,7,5.18,7a2.4,2.4,0,0,0,.28,0C335.11,270.41,336.47,264.83,341.42,264.83Z" style="opacity:0.2"></path><path d="M359.33,265.6a5.12,5.12,0,0,1,.69,0v-1a1.48,1.48,0,0,0-1.48-1.48h-7.41a1.48,1.48,0,0,0-1.48,1.48v1.9c0,3,2.49,7,5.16,7C353.25,270.35,354.76,265.6,359.33,265.6Z" style="opacity:0.2"></path><rect x="242.12" y="237.32" width="12.28" height="138.22" rx="1.21" transform="translate(554.69 58.17) rotate(90)" style="opacity:0.2"></rect><path d="M335.75,303.71v-1a1.48,1.48,0,0,0-1.48-1.48h-7.41a1.48,1.48,0,0,0-1.48,1.48v1.9c0,3.05,2.51,7,5.19,7a3,3,0,0,0,.66-.09C329.75,308.4,331.26,303.74,335.75,303.71Z" style="opacity:0.2"></path><path d="M170.28,303.07a6,6,0,0,1,.87.07v-.42a1.49,1.49,0,0,0-1.49-1.48h-7.41a1.49,1.49,0,0,0-1.48,1.48v1.9c0,3.05,2.52,7,5.19,7l.17,0C164,308.52,165.4,303.07,170.28,303.07Z" style="opacity:0.2"></path><path d="M125.7,94.5H370.82a6.35,6.35,0,0,1,6.35,6.35v56a0,0,0,0,1,0,0H119.35a0,0,0,0,1,0,0v-56A6.35,6.35,0,0,1,125.7,94.5Z" style="opacity:0.2"></path><path d="M350.78,105.06h-205a233,233,0,0,0-9-41.85H359.82A223.58,223.58,0,0,0,350.78,105.06Z" style="fill:#fff"></path><g style="clip-path:url(#freepik--clip-path-2--inject-2)"><path d="M352.8,91.57c-1.49,8.14-2,13.49-2,13.49h-205s-.52-5.25-2.05-13.49Z" style="opacity:0.2"></path></g><path d="M350.78,105.06h-205a233,233,0,0,0-9-41.85H359.82A223.58,223.58,0,0,0,350.78,105.06Z" style="fill:none;stroke:#263238;stroke-linecap:round;stroke-linejoin:round"></path><rect x="146.88" y="140.3" width="201.11" height="82.74" style="fill:#263238"></rect><g style="opacity:0.4"><path d="M242.42,215.72l1.06.05q2-30.95,4-62Q244.93,184.83,242.42,215.72Z" style="fill:#fff"></path><path d="M239,215.46l1.06.09q3.47-30.75,6.93-61.77Q243,184.82,239,215.46Z" style="fill:#fff"></path><path d="M235.67,215.08c.35,0,.71.08,1.06.12q4.92-30.42,9.9-61.43Q241.13,184.81,235.67,215.08Z" style="fill:#fff"></path><path d="M232.3,214.57l1.07.17q6.38-30,12.86-61Q239.23,184.77,232.3,214.57Z" style="fill:#fff"></path><path d="M228.94,213.94l1.08.22q7.8-29.43,15.81-60.4Q237.31,184.74,228.94,213.94Z" style="fill:#fff"></path><path d="M225.6,213.18l1.08.27c6.13-19.18,12.43-39.07,18.75-59.7C238.74,174.38,232.07,194.18,225.6,213.18Z" style="fill:#fff"></path><path d="M222.27,212.28l1.09.32c7-18.64,14.33-38.26,21.67-58.87C237.32,174.34,229.64,193.85,222.27,212.28Z" style="fill:#fff"></path><path d="M219,211.26l1.09.35c7.91-18,16.21-37.31,24.57-57.89C235.89,174.3,227.21,193.47,219,211.26Z" style="fill:#fff"></path><path d="M215.68,210.09l1.1.4c8.76-17.32,18.07-36.24,27.45-56.79C234.46,174.25,224.76,193,215.68,210.09Z" style="fill:#fff"></path><path d="M212.44,208.77l1.1.46c9.56-16.54,19.88-35,30.29-55.55C233,174.19,222.31,192.55,212.44,208.77Z" style="fill:#fff"></path><path d="M209.23,207.29l1.1.53c10.32-15.65,21.65-33.7,33.1-54.16C231.57,174.12,219.85,192,209.23,207.29Z" style="fill:#fff"></path><path d="M206.07,205.65l1.1.6c11-14.67,23.37-32.21,35.86-52.62A601.81,601.81,0,0,1,206.07,205.65Z" style="fill:#fff"></path><path d="M203,203.85c.36.23.74.44,1.11.66a522.77,522.77,0,0,0,38.56-50.9A475.64,475.64,0,0,1,203,203.85Z" style="fill:#fff"></path><path d="M199.93,201.86l1.09.75a415.77,415.77,0,0,0,41.21-49A380.25,380.25,0,0,1,199.93,201.86Z" style="fill:#fff"></path><path d="M241.83,153.55C225.74,173.7,210,189.07,197,199.69l1.07.83A336.67,336.67,0,0,0,241.83,153.55Z" style="fill:#fff"></path><path d="M241.43,153.52c-17.14,20-33.89,34.62-47.28,43.82l1.06.91C208.42,188.47,224.74,173.57,241.43,153.52Z" style="fill:#fff"></path><path d="M241,153.49c-18.17,19.85-35.87,33.61-49.56,41.29.33.34.66.68,1,1C206,187.48,223.31,173.39,241,153.49Z" style="fill:#fff"></path><path d="M240.63,153.45c-19.16,19.65-37.78,32.5-51.69,38.6l1,1.09C203.71,186.37,221.91,173.16,240.63,153.45Z" style="fill:#fff"></path><path d="M186.64,189.13c.29.4.59.8.89,1.19,13.95-5.15,33-17.44,52.71-36.9C220.13,172.79,200.67,184.68,186.64,189.13Z" style="fill:#fff"></path><path d="M184.6,186.09c.26.42.53.84.8,1.26,14-3.52,33.88-14.83,54.44-34C218.88,172.41,198.65,183.3,184.6,186.09Z" style="fill:#fff"></path><path d="M182.86,183c.22.44.45.87.68,1.31,14-1.9,34.56-12.21,55.9-30.95C217.75,171.92,196.86,181.8,182.86,183Z" style="fill:#fff"></path><path d="M181.44,179.84c.18.44.37.89.56,1.33,13.92-.34,35-9.63,57-27.88C216.75,171.35,195.34,180.19,181.44,179.84Z" style="fill:#fff"></path><path d="M245.81,215.86h1.05q.48-31,1-62.08Q246.81,184.84,245.81,215.86Z" style="fill:#fff"></path><path d="M249.19,215.88h1.06q-1-31-2-62.08Z" style="fill:#fff"></path><path d="M252.57,215.79l1.06,0q-2.5-30.9-5-62Q250.6,184.85,252.57,215.79Z" style="fill:#fff"></path><path d="M256,215.58l1.06-.08q-4-30.67-8-61.72Q252.5,184.83,256,215.58Z" style="fill:#fff"></path><path d="M259.33,215.26l1.06-.13q-5.44-30.31-11-61.36Q254.4,184.82,259.33,215.26Z" style="fill:#fff"></path><path d="M262.7,214.81l1.07-.16q-6.9-29.85-13.95-60.88Q256.3,184.81,262.7,214.81Z" style="fill:#fff"></path><path d="M266.06,214.24l1.07-.2q-8.33-29.26-16.91-60.28Q258.2,184.78,266.06,214.24Z" style="fill:#fff"></path><path d="M269.4,213.54l1.09-.25c-6.48-19-13.16-38.87-19.87-59.54Q260.13,184.76,269.4,213.54Z" style="fill:#fff"></path><path d="M272.74,212.72l1.08-.31c-7.38-18.47-15.07-38-22.8-58.68C258.37,174.39,265.69,194,272.74,212.72Z" style="fill:#fff"></path><path d="M276.05,211.75l1.1-.36c-8.27-17.82-17-37-25.73-57.67C259.8,174.35,268.12,193.68,276.05,211.75Z" style="fill:#fff"></path><path d="M279.34,210.64l1.1-.41c-9.1-17.09-18.82-35.92-28.62-56.53C261.23,174.31,270.56,193.27,279.34,210.64Z" style="fill:#fff"></path><path d="M282.6,209.39c.37-.16.75-.3,1.11-.46-9.9-16.26-20.64-34.67-31.49-55.25C262.67,174.26,273,192.81,282.6,209.39Z" style="fill:#fff"></path><path d="M285.83,208l1.11-.53c-10.65-15.33-22.42-33.26-34.32-53.8C264.11,174.19,275.47,192.3,285.83,208Z" style="fill:#fff"></path><path d="M289,206.43c.37-.19.74-.4,1.1-.6a604.62,604.62,0,0,1-37.1-52.2C265.56,174.13,278,191.72,289,206.43Z" style="fill:#fff"></path><path d="M292.14,204.7l1.12-.66a476.83,476.83,0,0,1-39.84-50.43A522.45,522.45,0,0,0,292.14,204.7Z" style="fill:#fff"></path><path d="M253.82,153.58a416.23,416.23,0,0,0,41.39,49.22l1.11-.75A380.74,380.74,0,0,1,253.82,153.58Z" style="fill:#fff"></path><path d="M254.22,153.55a335.53,335.53,0,0,0,44,47.16c.37-.27.72-.55,1.08-.83C286.26,189.26,270.4,173.82,254.22,153.55Z" style="fill:#fff"></path><path d="M254.62,153.52c16.8,20.17,33.22,35.13,46.47,44.91.36-.3.73-.6,1.08-.91C288.73,188.34,271.87,173.68,254.62,153.52Z" style="fill:#fff"></path><path d="M255,153.49c17.85,20,35.25,34.19,48.85,42.48.35-.33.68-.68,1-1C291.15,187.3,273.32,173.49,255,153.49Z" style="fill:#fff"></path><path d="M255.42,153.45c18.87,19.86,37.21,33.13,51,39.85l1-1.1C293.51,186.17,274.74,173.27,255.42,153.45Z" style="fill:#fff"></path><path d="M308.89,190.46c.31-.4.6-.8.9-1.21-14.05-4.35-33.69-16.28-54-35.83C275.67,173.05,294.91,185.38,308.89,190.46Z" style="fill:#fff"></path><path d="M311.06,187.45l.82-1.28c-14.07-2.65-34.49-13.57-55.67-32.79C277,172.71,297,184.05,311.06,187.45Z" style="fill:#fff"></path><path d="M313,184.34c.24-.44.47-.88.7-1.33-14-1-35.11-10.89-57-29.67C278.18,172.28,299,182.61,313,184.34Z" style="fill:#fff"></path><path d="M257,153.29c22.24,18.46,43.6,27.75,57.5,27.89.2-.45.39-.9.58-1.35C301.2,180.4,279.56,171.55,257,153.29Z" style="fill:#fff"></path></g><path d="M219,155.27c-3.79,9.72.31,38,27.66,38s37.28-19.87,36.17-32.15l36.51-5.88s11.19,30.92-12.57,52.55-106.12,20.23-123.53,3.79-7.75-48.92-7.75-48.92Z" style="opacity:0.2"></path><path d="M379.24,113.33v-6.82a1.18,1.18,0,0,1,.83-1.13l5-1.56V97a3.08,3.08,0,0,1,3.08-3.08h6A1.14,1.14,0,0,1,395.31,95v2.2a1.14,1.14,0,0,1-1.13,1.14h-7.63v6.67a1.2,1.2,0,0,1-.57,1l-4.26,2.58v4.75Z" style="fill:#999;stroke:#263238;stroke-linecap:round;stroke-linejoin:round"></path><rect x="379.24" y="113.33" width="6.58" height="19.68" style="fill:#263238"></rect><rect x="385.82" y="111.66" width="8.23" height="23.02" style="fill:#757575"></rect><g style="clip-path:url(#freepik--clip-path-3--inject-2)"><rect x="385.82" y="125.68" width="8.21" height="9" style="opacity:0.2"></rect></g><rect x="385.82" y="111.66" width="8.23" height="23.02" style="fill:none;stroke:#263238;stroke-linecap:round;stroke-linejoin:round"></rect><rect x="110.71" y="113.33" width="6.58" height="19.68" transform="translate(227.99 246.33) rotate(180)" style="fill:#263238"></rect><rect x="102.48" y="111.66" width="8.23" height="23.02" transform="translate(213.18 246.33) rotate(180)" style="fill:#757575"></rect><g style="clip-path:url(#freepik--clip-path-4--inject-2)"><rect x="102.48" y="125.68" width="8.23" height="8.78" style="opacity:0.2"></rect></g><rect x="102.48" y="111.66" width="8.23" height="23.02" transform="translate(213.18 246.33) rotate(180)" style="fill:none;stroke:#263238;stroke-linecap:round;stroke-linejoin:round"></rect><path d="M116.29,124.34h0a8,8,0,0,0-2.36-9l-4.84-4a2.93,2.93,0,0,0-4.26.52L85.64,138.33a2.87,2.87,0,0,0-.56,1.71v28.43A2.88,2.88,0,0,0,88,171.35h0a2.88,2.88,0,0,0,2.88-2.88V145.38a2.76,2.76,0,0,1,.51-1.59l14.35-20a1.56,1.56,0,0,1,2.28-.28l2.64,2.24a3.62,3.62,0,0,0,2.34.86h0A3.55,3.55,0,0,0,116.29,124.34Z" style="fill:#92E3A9;stroke:#263238;stroke-linecap:round;stroke-linejoin:round"></path><circle cx="112.33" cy="120.38" r="1.37" style="fill:#999;stroke:#263238;stroke-linecap:round;stroke-linejoin:round"></circle><rect x="123.39" y="103.82" width="249.75" height="38.68" style="fill:#263238"></rect><rect x="125.52" y="106.73" width="245.39" height="9.02" rx="1.38" style="fill:#fff;opacity:0.2"></rect><path d="M350.78,150.28h-205a107.43,107.43,0,0,1-9-41.85H359.82C359.82,127.81,350.78,150.28,350.78,150.28Z" style="fill:#fff"></path><g style="clip-path:url(#freepik--clip-path-5--inject-2)"><g style="opacity:0.7000000000000001"><path d="M162.36,147.14s4.49-.24,7-1.75,2.33,1.36,3.77,1.55,4.84-1,6.64-1,.43,1.1,2.46,1,.94.1,2-.1l8.69-1.45s4.41-.85,5.3-.42,2.06,2.55,3.36,2,.61-1,2.57-1a13,13,0,0,1,3.58.52s.18-.51,1.08-.52h1.61s3.41.9,3.95.9,4.57-.89,4.71-.9,4-1,4-1a6.49,6.49,0,0,0,3,1.78c1.46.19,3-.2,4.1.29s4.72-.2,4.72-.2a18.28,18.28,0,0,1,2.58.2,6.75,6.75,0,0,0,3.39-.1,12.92,12.92,0,0,1,6.2-.1c3.25.59,6.24-.89,7.62-.9s6.9.61,8.8.61,6.93.68,10.43.29,5.79.49,8.14.49,4.86-.1,5.4-.1,3.14-1.7,6.86-1.29.41-.51,2.7,0,4.1,1,5.07,1.1a11.55,11.55,0,0,0,2.33-.1l4-.29h19.94" style="fill:none;stroke:#263238;stroke-linecap:round;stroke-linejoin:round"></path><path d="M158.21,139.42s12.35,0,14.58-.2,3.42-1.34,4.61-1.34,7.2,1.14,7.2,1.14a2,2,0,0,1,2-1.14c1.63,0,.8.15,2.3.75s.72,0,1.51.59a14,14,0,0,0,3.7,1.08s5.57.26,5.78-1.08,3,1.08,3,1.08,7.56-1.08,10.48-1.08,10.24-.59,10.24-.59,6,.79,6.28.79,1.27,1.57,2.34.88,2.1-1.48,3.37-1.28A15.57,15.57,0,0,1,239,140.3l2.79-1.48,3.2.2s3.26,2.17,5.59,1.28a51.09,51.09,0,0,0,5.19-2.42l2.87,2.42h1.88l5.57-1.08a3.37,3.37,0,0,0,3.65,1.08c2.36-.68,24.91,0,30.65,0s7-1.48,7-1.48l4.42,1.48h22" style="fill:none;stroke:#263238;stroke-linecap:round;stroke-linejoin:round"></path></g><path d="M352.87,144.5c-1.21,3.6-2.09,5.78-2.09,5.78h-205s-1-2.1-2.37-5.78Z" style="opacity:0.2"></path><path d="M357.14,129.36c-.69,3-1.45,5.93-2.2,8.52H141.18c-.74-2.54-1.5-5.41-2.16-8.52Z" style="opacity:0.2"></path></g><path d="M350.78,150.28h-205a107.43,107.43,0,0,1-9-41.85H359.82C359.82,127.81,350.78,150.28,350.78,150.28Z" style="fill:none;stroke:#263238;stroke-linecap:round;stroke-linejoin:round"></path><rect x="117.23" y="101.83" width="6.11" height="42.68" style="fill:#757575"></rect><g style="clip-path:url(#freepik--clip-path-6--inject-2)"><rect x="117.27" y="131.85" width="5.95" height="12.66" style="opacity:0.2"></rect></g><rect x="117.23" y="101.83" width="6.11" height="42.68" style="fill:none;stroke:#263238;stroke-linecap:round;stroke-linejoin:round"></rect><rect x="373.18" y="101.83" width="6.11" height="42.68" style="fill:#757575"></rect><g style="clip-path:url(#freepik--clip-path-7--inject-2)"><rect x="373.13" y="131.85" width="6.16" height="12.66" style="opacity:0.2"></rect></g><rect x="373.18" y="101.83" width="6.11" height="42.68" style="fill:none;stroke:#263238;stroke-linecap:round;stroke-linejoin:round"></rect><polygon points="373.23 100.04 373.23 131.17 123.29 131.17 123.29 100.04 120.89 100.04 120.89 133.26 375.63 133.26 375.63 100.04 373.23 100.04" style="fill:#999;stroke:#263238;stroke-linecap:round;stroke-linejoin:round"></polygon><path d="M388,152.48v69.81a4.44,4.44,0,0,1-4.44,4.44H112.93a4.44,4.44,0,0,1-4.44-4.44V152.48a4.44,4.44,0,0,1,4.44-4.44h124.7v4.44s-21.29,18.47-58,25.28c5.26,23.81,34,42,68.68,42s63.42-18.21,68.69-42c-36.76-6.81-58.05-25.28-58.05-25.28V148H383.59A4.44,4.44,0,0,1,388,152.48Z" style="fill:#92E3A9;stroke:#263238;stroke-linecap:round;stroke-linejoin:round"></path><path d="M388,152.48v69.81a4.44,4.44,0,0,1-4.45,4.44H112.93a4.44,4.44,0,0,1-4.45-4.44V152.48a4.46,4.46,0,0,1,4.45-4.45h124.7v4.45s-21.3,18.46-58,25.28c5.26,23.81,34,42,68.69,42s63.41-18.21,68.68-42c-36.76-6.82-58.05-25.28-58.05-25.28V148H383.59A4.45,4.45,0,0,1,388,152.48Z" style="fill:#92E3A9"></path><g style="clip-path:url(#freepik--clip-path-8--inject-2)"><path d="M382,153.55V218a3.25,3.25,0,0,1-3.27,3.25H115.59a3.24,3.24,0,0,1-3.25-3.25V153.55a3.26,3.26,0,0,1,3.25-3.27h122v2.2s-21.3,18.46-58,25.28c5.26,23.81,34,42,68.69,42s63.41-18.21,68.68-42c-36.76-6.82-58.05-25.28-58.05-25.28v-2.2H378.76A3.27,3.27,0,0,1,382,153.55Z" style="fill:#fff;opacity:0.2"></path></g><path d="M388,152.48v69.81a4.44,4.44,0,0,1-4.45,4.44H112.93a4.44,4.44,0,0,1-4.45-4.44V152.48a4.46,4.46,0,0,1,4.45-4.45h124.7v4.45s-21.3,18.46-58,25.28c5.26,23.81,34,42,68.69,42s63.41-18.21,68.68-42c-36.76-6.82-58.05-25.28-58.05-25.28V148H383.59A4.45,4.45,0,0,1,388,152.48Z" style="fill:none;stroke:#263238;stroke-linecap:round;stroke-linejoin:round"></path></g><g id="freepik--right-hand--inject-2"><path d="M298.6,247.42l13.29,37.07s5.75-40.8,9.18-40.8S331.89,266,331.89,266s4.56-11.64,8.88-12.06S349,282.52,349,282.52l.67,64.37-5.45,97.35s-34.77-38.3-44.91-48.17-19.83-31.59-22.63-36-3.51-27.5-3.51-27.5a24.75,24.75,0,0,0,5.24-15.92s8.16-13.66,7.66-23.74S284.31,243.66,298.6,247.42Z" style="fill-opacity:0.7000000000000001;opacity:0.2"></path><path d="M403.21,427l-52.64,27.69c0-.28-6.92-11.49-15.28-24.17-3.78-5.74-7.86-11.77-11.73-17.23-6.34-8.93-14.4-16.64-15.09-18.32-2-5-17.42-23.72-20.87-31s-4.24-29.93-5.76-35.26,2.84-10.42,6.34-12.9,7.17-9,7.17-9-3.87-15.08-3.91-22.75-2.65-34.44.47-36.94,5.91-1.45,6.69.27c2.56,5.67,4.86,19.93,6.83,26.5s5.67,25.63,7.49,27,5.06-3.77,5.06-3.77.31-16,1-22.63l-1-21s-1.87-12.62,2.48-13.82c6-1.65,8.19,2.12,8.87,3.71s3.48,10.75,3.48,10.75l.16.63c0,.06,0,.12,0,.19l0,.11q.07.26.15.57c.11.42.24.92.38,1.49,1.33,5.21,3.89,15.64,3.78,18.21-.15,3.47-1.36,22.69.35,26.68l2.66-26.55S336,255,337.25,252.05s7.14.31,7.84,1.47,6.42,8.18,7.44,10.86l1,2.68s1.41-6.34,4.72-4.69,3.72,9.71,3.95,13.23,2.63,26.16,3,26.2,4.19,11.8,3.67,19.57c-1.09,16.63,1.79,29,1.89,35.38s-4.71,21.16-4.71,21.16h0c.17.29,3.31,5.63,4.17,10.32.63,3.44,11.84,15.87,21,25.76v0C397.59,420.81,402.93,426.39,403.21,427Z" style="fill:#fff"></path><path d="M335.3,430.54h0c-3.78-5.74-7.86-11.77-11.73-17.23-6.34-8.93-14.4-16.64-15.09-18.32-2-5-17.42-23.72-20.87-31s-4.24-29.93-5.76-35.26,2.84-10.42,6.34-12.9,7.17-9,7.17-9-3.87-15.08-3.91-22.75-2.65-34.44.47-36.94,5.91-1.45,6.69.27c2.56,5.67,4.86,19.93,6.83,26.5s5.67,25.63,7.49,27,5.06-3.77,5.06-3.77.31-16,1-22.63l-1-21s-1.87-12.62,2.48-13.82c6-1.65,8.19,2.12,8.87,3.71s3.48,10.75,3.48,10.75l.16.63c0,.06,0,.12,0,.19l0,.11q.06.26.15.57c.11.42.24.92.38,1.49-1.55-2.45-3.68-4.54-6.53-5.09-8-1.56-6.27,7.34-5.51,12.68a37,37,0,0,1-.25,10.65l2-1.15c-1.44,2.57-3.5,23.93-3.5,28.68s-3.76,6.33-7.13,4.94-4.57-23.19-7.13-27.1-9.68,3.56-10,10.39,6.05,27.2,4.54,32-1.49,23-1.49,23l-1.84-4.69c.12.64,0,2.79-3.85,9.12a18.85,18.85,0,0,0-2.09,15.56C293.08,371.32,305,385,307,386.41c0,0,1.45-5.94,6-4.36a26.24,26.24,0,0,0-3.34,8c-.94,4.36,8.55,7.15,11.52,11.3C323,403.88,324.22,411.59,335.3,430.54Z" style="fill:#92E3A9;opacity:0.4"></path><path d="M391.28,414c-9.36-9.43-25.83-18.41-24.83-20.76,1.34-3.16-.36-9.89-3.24-15.35s1-14.32,1-14.32l1.78,5.15a43.83,43.83,0,0,0,.49-18.12c-1.82-10.21-3.24-6.62-3.24-6.62s.37-9.2,2-14.22,3-17.21.75-24.42-7-5.85-8.27-3.37.09,12.15,1.14,15.32-3.42,8.5-3.51,4.54-1.78-15-1.78-15l3.39-22.17-3.39-17.61s1.41-6.34,4.72-4.69,3.72,9.71,3.95,13.23,2.63,26.16,3,26.2,4.19,11.8,3.67,19.57c-1.09,16.63,1.79,29,1.89,35.38s-4.71,21.16-4.71,21.16h0c.17.29,3.31,5.63,4.17,10.32.63,3.44,11.84,15.87,21,25.76Z" style="fill:#92E3A9;opacity:0.4"></path><path d="M352.53,264.38c.19.5.35.91.47,1.24-3.18-7.39-8.6-5.1-9.56-3s2.27,15.13,3,17.15-2.9,18.15-3.43,23.49-1.94,6.43-1.94,6.43c-3.59.27-4-9.64-4-11a12.76,12.76,0,0,0,.66,3.34l2.66-26.55S336,255,337.25,252.05s7.14.31,7.84,1.47S351.51,261.7,352.53,264.38Z" style="fill:#92E3A9;opacity:0.4"></path><path d="M403.21,427c-.68-1.54-31.91-33-33-38.78-.88-4.82-4.18-10.33-4.18-10.33s4.81-14.75,4.71-21.16-3-18.75-1.89-35.38c.52-7.77-3.29-19.53-3.67-19.57s-2.78-22.68-3-26.2-.63-11.58-3.95-13.23-4.72,4.69-4.72,4.69l-1-2.68c-1-2.68-6.74-9.7-7.44-10.86s-6.58-4.43-7.84-1.47,3.13,23.39,3.13,23.39L337.72,302c-1.71-4-.5-23.21-.35-26.68s-4.55-21.2-4.55-21.2S330,245,329.34,243.36s-2.87-5.36-8.87-3.71c-4.35,1.2-2.48,13.82-2.48,13.82l1,21c-.67,6.66-1,22.63-1,22.63s-3.24,5.13-5.06,3.77-5.52-20.41-7.49-27-4.27-20.83-6.83-26.5c-.78-1.72-3.57-2.77-6.69-.27s-.52,29.26-.47,36.94,3.91,22.75,3.91,22.75-3.67,6.48-7.17,9-7.86,7.56-6.34,12.9,2.31,28,5.76,35.26,18.83,26,20.87,31c.69,1.68,8.75,9.39,15.09,18.32,12.45,17.53,27,41,27,41.4" style="fill:none;stroke:#263238;stroke-linecap:round;stroke-linejoin:round"></path><path d="M295.35,306.84s2.48,12.29,2.39,14.35c0,0-2.17,9.49-2.19,15.64a62.61,62.61,0,0,0-4.08,7.23c-.84,2.22-2.34,7.68-1.72,10.72" style="fill:none;stroke:#263238;stroke-linecap:round;stroke-linejoin:round"></path><path d="M290.82,325s6.08.05,5.69,2.61" style="fill:none;stroke:#263238;stroke-linecap:round;stroke-linejoin:round"></path><path d="M295.55,336.83s-3.9-1.69-5.27.58" style="fill:none;stroke:#263238;stroke-linecap:round;stroke-linejoin:round"></path><path d="M318,297.14s-.28,9.42-2.76,8.67" style="fill:none;stroke:#263238;stroke-linecap:round;stroke-linejoin:round"></path><path d="M337.72,302s-.72,5.15,1.22,6.74" style="fill:none;stroke:#263238;stroke-linecap:round;stroke-linejoin:round"></path><path d="M353.54,267.06s2.7,13,3.32,16.08-3.07,18.8-3,22.89,1.82,9.94,1.58,12.69" style="fill:none;stroke:#263238;stroke-linecap:round;stroke-linejoin:round"></path><path d="M364.32,365.79s-.87,8.49,1.74,12.12" style="fill:none;stroke:#263238;stroke-linecap:round;stroke-linejoin:round"></path><path d="M311.89,382.59s-5.82,5.3-3.69,11.82" style="fill:none;stroke:#263238;stroke-linecap:round;stroke-linejoin:round"></path><path d="M350.14,316.51c.09,3.74-2.1,8.1-2.33,13.27" style="fill:none;stroke:#263238;stroke-linecap:round;stroke-linejoin:round"></path><path d="M331.6,313.17c1.24,3.06-1.46,9.72-1.87,12.22a15.29,15.29,0,0,0,.63,5.8" style="fill:none;stroke:#263238;stroke-linecap:round;stroke-linejoin:round"></path><path d="M366.45,323.71c-.5,3.25-2.8,5.57-3.24,15.57" style="fill:none;stroke:#263238;stroke-linecap:round;stroke-linejoin:round"></path><path d="M309.67,312.22c1.68,1.83.55,10.57,1,12" style="fill:none;stroke:#263238;stroke-linecap:round;stroke-linejoin:round"></path><path d="M341,261.87s5.72-4.19,10.64.75" style="fill:none;stroke:#263238;stroke-linecap:round;stroke-linejoin:round"></path><path d="M321.3,252.24s1-1.67,5.83-1.26,5.69,3.13,5.69,3.13" style="fill:none;stroke:#263238;stroke-linecap:round;stroke-linejoin:round"></path><path d="M307.19,280.79s-1.62-2.39-5.89-1.6-6.17,6.83-6.17,6.83" style="fill:#fff;stroke:#263238;stroke-linecap:round;stroke-linejoin:round"></path><path d="M365.21,301.8s-3.56-5.16-7.84-2.95" style="fill:none;stroke:#263238;stroke-linecap:round;stroke-linejoin:round"></path></g><g id="freepik--left-hand--inject-2"><path d="M213.55,264c6,4.65.94,33.19.94,33.19l.53,9.29L225.31,302,230,321.85s-.12,7.27,3.69,10c0,0,.94,16.31,0,28.23s-20,25.93-26.57,38.44S157.7,447.8,157.7,447.8l-36.28-17.26L147.65,324.6l23.5-30.21,13.93-34.75s2.39,22.7,1,38Z" style="fill-opacity:0.7000000000000001;opacity:0.2"></path><path d="M223.65,327.4c-.91,4.38,1.28,28.39.9,31.63s-19.48,25-20.44,26.65-13.73,9-16.7,12.51c-13.88,16.19-21.46,31.1-27.55,46.05,0,0,0,0,0,0-1.17,2.88-2.29,5.77-3.39,8.67l-55.08-32c4.63-5.74,9-10.84,13-15.48,8-9.41,14.37-16.94,17.49-24.05a39.76,39.76,0,0,1,3.28-5.2c1.24-1.76,2.35-3.21,2.35-3.21s-4-11.27-3.07-14.81-1.15-32.64-1.15-32.64-2.71-19.81-5.38-24.81a8.24,8.24,0,0,1-.86-4.22c.13-4.57,2.78-10.33,4.08-17,1.74-9,.9-13.45,6.36-10.34s2.91,22,2.91,22l8.25,18.28c2.17-4.42,0-17.32-.11-20.37,0-.5,0-1.33-.08-2.41-.17-5.26-.52-16.21-.07-20.53,0-.24,0-.46.08-.66.67-4.46,3.06-18.65,4.58-20.23,2.26-2.34,5.85-4.31,9.23,1,1.89,3,1.08,26.79,1.08,26.79s7.84-9.46,10.22-11.77,9.6-6.53,11.53-1.64-5.19,20-5.19,20c1.49,3.5,1.67,13.19,1.67,13.19s3.37,12.11,5.44,12h.09c.6-.13,1.26-2.33,1.95-5.42,1.7-7.57,3.55-20.52,5-21.65l1-.8a.75.75,0,0,1,.16-.15l.37-.33c3.54-3.15,11-10.15,11-10.15s.53-3.35,7.06-2.32-2.9,20.3-2.9,20.3c-1.31,6.13-3.32,21.9-3.32,21.9-.61,6.56-.25,24.19-.25,24.19s3.09-10.26,2.89-14,6.14-12.9,8-15.26,10.16-1.53,7.85,3S224.56,323,223.65,327.4Z" style="fill:#fff"></path><path d="M131.85,381.42a39.76,39.76,0,0,1,3.28-5.2s-3.25,9-3.57,13.79c-.21,3.16-8.53,8.63-17.2,15.46C122.41,396.06,128.73,388.53,131.85,381.42Z" style="fill:#92E3A9;opacity:0.4"></path><path d="M135.13,376.22c1.24-1.76,2.35-3.21,2.35-3.21s-4-11.27-3.07-14.81-1.15-32.64-1.15-32.64-2.71-19.81-5.38-24.81l6.22,10.87s-.61,8.59,1.16,13.3,4,19.08,4,19.08-2.62,12.08-1.73,16.43,4.9,2.77,4.9,2.77S144.4,371.16,135.13,376.22Z" style="fill:#92E3A9;opacity:0.4"></path><path d="M149.64,294.39c4.29,25.12-3.1,18.17-5.77,12.75s-8.94-15.68-13.66-13.49a7.38,7.38,0,0,0-3.19,2.88c.13-4.57,2.78-10.33,4.08-17,1.74-9,.9-13.45,6.36-10.34s2.91,22,2.91,22l8.25,18.28c2.17-4.42,0-17.32-.11-20.37,0-.5,0-1.33-.08-2.41C148.76,289,149.16,291.57,149.64,294.39Z" style="fill:#92E3A9;opacity:0.4"></path><path d="M160.14,269.57s-4.63-6.06-8.65-5.75a3.54,3.54,0,0,0-3.13,2.31c0-.24,0-.46.08-.66.67-4.46,3.06-18.65,4.58-20.23,2.26-2.34,5.85-4.31,9.23,1,1.89,3,1.08,26.79,1.08,26.79s7.84-9.46,10.22-11.77,9.6-6.53,11.53-1.64-5.19,20-5.19,20c1.49,3.5,1.67,13.19,1.67,13.19s3.37,12.11,5.44,12c-4.56,8.58-7.6-10.39-7.6-10.39.68-3.92-1.74-12.42-1.5-14.66s-4.2-10.16-11.68-8-2.08,31.72-2.08,31.72a16.52,16.52,0,0,0-2.5,7.82c-2.31-2.85,0-11,0-11C159.59,292.5,160.14,269.57,160.14,269.57Z" style="fill:#92E3A9;opacity:0.4"></path><path d="M195,276.9c-3.19,3.35-2.75,11.82-6,22.45,1.7-7.57,3.55-20.52,5-21.65Z" style="fill:#92E3A9;opacity:0.4"></path><path d="M223.65,327.4c-.91,4.38,1.28,28.39.9,31.63s-19.48,25-20.44,26.65-13.73,9-16.7,12.51c-13.88,16.19-21.46,31.1-27.55,46.05a197.06,197.06,0,0,1,8.29-22.76c6.57-14.77,9.25-17.4,13.19-21.62s3.51-13.19,3.51-13.19a37.78,37.78,0,0,1,8.88-1.05c5,0,19.8-21.1,24.89-24.8s6-3.7,0-11.86-4.3,1.31-6.1,1-2.78,3.63-2.78,3.63c-.63-8.32-6-18-7.13-20.42s2.74-16.61,1.94-20.56,3.44-28,3.44-28-.53-9.23-8.89-9.26a5.48,5.48,0,0,0-3.58,1.08c3.54-3.15,11-10.15,11-10.15s.53-3.35,7.06-2.32-2.9,20.3-2.9,20.3c-1.31,6.13-3.32,21.9-3.32,21.9-.61,6.56-.25,24.19-.25,24.19s3.09-10.26,2.89-14,6.14-12.9,8-15.26,10.16-1.53,7.85,3S224.56,323,223.65,327.4Z" style="fill:#92E3A9;opacity:0.4"></path><path d="M156.46,453c6.79-17.93,14.38-35.43,30.95-54.76,3-3.46,15.73-10.81,16.7-12.51s20.07-23.42,20.44-26.65-1.81-27.25-.9-31.63-.15-18.82,2.15-23.32-6-5.32-7.85-3-8.17,11.56-8,15.26-2.89,14-2.89,14-.36-17.63.25-24.19c0,0,2-15.77,3.32-21.9,0,0,9.42-19.28,2.9-20.3s-7.06,2.32-7.06,2.32S196.06,276.1,194,277.7s-4.87,26.6-6.94,27.07-5.53-12-5.53-12-.18-9.69-1.67-13.19c0,0,7.11-15.07,5.19-20s-9.14-.66-11.53,1.64-10.22,11.77-10.22,11.77.81-23.81-1.08-26.79c-3.38-5.33-7-3.36-9.23-1-1.52,1.58-3.91,15.77-4.58,20.23s0,20.54.07,23.6,2.28,15.95.11,20.37l-8.25-18.28s2.56-18.91-2.91-22-4.62,1.37-6.36,10.34-5.88,16.26-3.22,21.27,5.38,24.81,5.38,24.81,2.06,29.1,1.15,32.64S137.48,373,137.48,373s-4.62,6.09-5.63,8.41C127.19,392,115.4,403.58,101.38,421" style="fill:none;stroke:#263238;stroke-linecap:round;stroke-linejoin:round"></path><path d="M163.33,273.05a9.82,9.82,0,0,0-1.68,5.83c0,3.8,2.49,24.6,2.49,24.6s-1.81,2.14-1.9,4" style="fill:none;stroke:#263238;stroke-linecap:round;stroke-linejoin:round"></path><path d="M207.08,330.34a29.31,29.31,0,0,0,2.67,10.14c2.34,4.62,1.58,7.17.78,9.9a35.28,35.28,0,0,0-.85,7.29" style="fill:none;stroke:#263238;stroke-linecap:round;stroke-linejoin:round"></path><path d="M149.5,305.33s1.74,5.52-1.49,8.14" style="fill:none;stroke:#263238;stroke-linecap:round;stroke-linejoin:round"></path><path d="M187.09,304.77s.34,2.17-2.73,2.37" style="fill:none;stroke:#263238;stroke-linecap:round;stroke-linejoin:round"></path><path d="M207.71,279.77s-7.7-8.4-13.68-2.07" style="fill:none;stroke:#263238;stroke-linecap:round;stroke-linejoin:round"></path><path d="M176.51,275.05s-3.55-4.49-6.63-4.22-7.24,2.15-7.71,4.62" style="fill:none;stroke:#263238;stroke-linecap:round;stroke-linejoin:round"></path><path d="M211.19,347.68a17.7,17.7,0,0,1,2.67,5.87" style="fill:none;stroke:#263238;stroke-linecap:round;stroke-linejoin:round"></path><path d="M191.19,313.54c-2.39,4.45-1.25,12-2.13,14.07" style="fill:none;stroke:#263238;stroke-linecap:round;stroke-linejoin:round"></path><path d="M165.87,306.15c.56,2.56-1.21,6.73-1.48,9.8s2.24,7.81,1.78,12.12" style="fill:none;stroke:#263238;stroke-linecap:round;stroke-linejoin:round"></path><path d="M149.64,316.63s-2.09,4.82-2,8,1.22,10.15,1.22,10.15" style="fill:none;stroke:#263238;stroke-linecap:round;stroke-linejoin:round"></path><path d="M134.27,316.4s-.76,5,1,8.52,3.47,11,3.47,11" style="fill:none;stroke:#263238;stroke-linecap:round;stroke-linejoin:round"></path><path d="M137.48,373a4.77,4.77,0,0,0,3.47-4.09" style="fill:none;stroke:#263238;stroke-linecap:round;stroke-linejoin:round"></path><path d="M187.75,388.24s1.91,7.07-1.75,11.62" style="fill:none;stroke:#263238;stroke-linecap:round;stroke-linejoin:round"></path><path d="M127.07,295.69s5.38-5.25,9.45-.82" style="fill:none;stroke:#263238;stroke-linecap:round;stroke-linejoin:round"></path><path d="M148.44,265.47s4-4.19,8.68.29" style="fill:none;stroke:#263238;stroke-linecap:round;stroke-linejoin:round"></path></g></svg>