<svg xmlns="http://www.w3.org/2000/svg" width="512" height="512" style="shape-rendering:geometricPrecision;text-rendering:geometricPrecision;image-rendering:optimizeQuality;fill-rule:evenodd;clip-rule:evenodd"><path fill="#e7b64f" d="M458.5 100.5a9.175 9.175 0 0 0-4.5 2 1203.52 1203.52 0 0 1-38.5 55 4566.151 4566.151 0 0 0-86-74v-4l-257-2C128.776 21.559 196.776-3.941 276.5 1c75.162 7.4 135.829 40.567 182 99.5Z" style="opacity:1"/><path fill="#b7994e" d="m72.5 77.5 257 2h-258c-.172-.992.162-1.658 1-2Z" style="opacity:1"/><path fill="#25414a" d="M71.5 79.5h258v61h-302a160.249 160.249 0 0 1 11.5-21 208.488 208.488 0 0 1 32.5-40Z" style="opacity:1"/><path fill="#c09846" d="M329.5 83.5a4566.151 4566.151 0 0 1 86 74 6399.787 6399.787 0 0 1-86 126v-200Z" style="opacity:1"/><path fill="#27424b" d="M458.5 100.5a206.734 206.734 0 0 1 22 32c-1.517.011-2.684.677-3.5 2a45678.702 45678.702 0 0 0-147.5 216c-1.336 1.807-3.003 3.307-5 4.5-3.394.752-6.727.585-10-.5a292.779 292.779 0 0 0-19 13c-.731-1.901-.731-3.901 0-6a87.925 87.925 0 0 0 2-9v-1c.955-1.783 1.622-3.783 2-6a54.39 54.39 0 0 1-4-9c.384-3.396 1.718-6.396 4-9a990.245 990.245 0 0 0 30-44 6399.787 6399.787 0 0 0 86-126 1203.52 1203.52 0 0 0 38.5-55 9.175 9.175 0 0 1 4.5-2Z" style="opacity:1"/><path fill="#c09846" d="M480.5 132.5c16.845 31.396 27.178 64.729 31 100v45c-11.565 98.05-61.565 168.884-150 212.5-25.089 10.936-51.089 18.103-78 21.5h-58c-30.31-3.77-58.977-12.77-86-27h190v-134a45678.702 45678.702 0 0 1 147.5-216c.816-1.323 1.983-1.989 3.5-2Z" style="opacity:1"/><path fill="#fefdfd" d="M27.5 140.5h302v143a990.245 990.245 0 0 1-30 44h-165v9h161a54.39 54.39 0 0 0 4 9c-.378 2.217-1.045 4.217-2 6h-164c-.313 3.542.021 6.875 1 10h161c-.731 2.099-.731 4.099 0 6a292.779 292.779 0 0 1 19-13c3.273 1.085 6.606 1.252 10 .5 1.997-1.193 3.664-2.693 5-4.5v134h-190c-35.726-18.379-65.726-43.713-90-76h52v-79h-91c-5.835-19.027-9.502-38.36-11-58v-30c.968-2.107 1.302-4.441 1-7a441.589 441.589 0 0 1 1 42c100.501.333 200.835-.001 301-1v-99h-290a199.443 199.443 0 0 1 15-36Z" style="opacity:1"/><path fill="#77c0af" d="M12.5 176.5h290v99H2.5a625.593 625.593 0 0 0-1-50 200.812 200.812 0 0 1 11-49Z" style="opacity:1"/><path fill="#b7ddd5" d="M1.5 225.5a625.593 625.593 0 0 1 1 50h300a22654.547 22654.547 0 0 1-301 1 441.589 441.589 0 0 0-1-42c.204-3.018.537-6.018 1-9Z" style="opacity:1"/><path fill="#da5f59" d="M299.5 327.5c-2.282 2.604-3.616 5.604-4 9h-161v-9h165Z" style="opacity:1"/><path fill="#e7b64f" d="M10.5 329.5h91v79h-52c-17.492-23.985-30.492-50.319-39-79Z" style="opacity:1"/><path fill="#e48a85" d="M297.5 351.5v1h-163v9c-.979-3.125-1.313-6.458-1-10h164Z" style="opacity:1"/><path fill="#da5f59" d="M297.5 352.5a87.925 87.925 0 0 1-2 9h-161v-9h163Z" style="opacity:1"/><path fill="#da6059" d="M134.5 376.5h168v9h-168v-9Z" style="opacity:1"/><path fill="#e48a85" d="M302.5 401.5h-168v9c-.979-3.125-1.313-6.458-1-10 56.502-.332 112.836.001 169 1Z" style="opacity:1"/><path fill="#da6059" d="M302.5 401.5v9h-168v-9h168Z" style="opacity:1"/></svg>