<?xml version="1.0" encoding="utf-8"?>
<!-- Generator: Adobe Illustrator 23.0.1, SVG Export Plug-In . SVG Version: 6.00 Build 0)  -->
<svg version="1.1" id="Layer_1" xmlns="http://www.w3.org/2000/svg" xmlns:xlink="http://www.w3.org/1999/xlink" x="0px" y="0px"
	 viewBox="0 0 1000 250" style="enable-background:new 0 0 1000 250;" xml:space="preserve">
<style type="text/css">
	.st0{fill:#FFFFFF;}
</style>
<g>
	<path class="st0" d="M209.9,72.4l-5.4,6.3c6.2,0.6,11.8,1.3,16.7,2.3c4.9,0.9,9.4,2,13.6,3.1c4.2,1.2,7.8,2.4,11,3.6
		c11.1,4.6,16.6,11.1,16.6,19.3c0,5-2.3,10-6.9,14.8s-10.6,9.1-18,12.9c-7.4,3.8-15,6.7-22.8,8.9c-7.8,2.1-14.9,3.2-21.3,3.2
		c-10.6,0-18.9-2-24.9-5.9c-5.9-4-8.9-9.4-8.9-16.2c0-4.8,1.8-10.4,5.5-16.8c3.6-6.4,9.3-14.5,16.9-24c-5.7-0.3-9.8-1.1-12.2-2.6
		c-2.4-1.4-3.6-3.4-3.6-6c0-1.6,0.5-2.8,1.4-3.7c0.9-0.8,2.1-1.5,3.7-1.8c1.5-0.4,4.5-0.9,8.9-1.4c4.4-0.6,10-1.3,16.8-2.1
		c7.6-9.4,14.5-16.4,20.5-21.2c6.1-4.7,12.5-7.4,19.5-8.1c0.6-0.1,1.2-0.1,1.8-0.1c0.7,0,1,0.2,1,0.5c0,0.4-0.8,1.5-2.4,3.4
		c-1.6,1.8-4.1,4.7-7.7,8.7c-3.5,4-7.7,8.7-12.5,14.2c13.2-1.7,23.9-3.8,32.3-6c8.4-2.3,14.7-5,18.9-8.1c4.3-3.1,6.4-6.6,6.4-10.5
		c0-4.7-2.3-8.1-6.8-10.2c-4.6-2.1-11.5-3.1-20.9-3.1c-5.2,0-11.1,0.5-17.8,1.6c-6.7,1-12.7,2.2-18.2,3.6
		c-5.4,1.3-10.3,2.7-14.5,4.3c-4.2,1.5-6.4,2.6-6.4,3.3c0,0.2,0.2,0.4,0.6,0.6c3.4,1.3,5.1,2.3,5.1,3.1c0,1.1-5.2,3.3-15.7,6.5
		c-10.5,3.2-17.6,4.8-21.2,4.8c-2.6,0-3.9-1.3-3.9-3.9c0-3.1,2.8-8.6,8.5-16.6c5.6-8,10.8-13.1,15.4-15.4c1.6-0.8,5.4-2,11.2-3.7
		s12.3-3.3,19.4-4.8c7-1.5,14.2-2.8,21.5-3.9c7.3-1,13.7-1.6,19.3-1.6c13.2,0,23.2,2.4,29.8,7.1c6.6,4.7,10,10.7,10,17.8
		c0,4.8-1.5,9.5-4.6,14c-3,4.5-7.8,8.7-14.2,12.7c-6.4,4-14.8,7.5-25.1,10.5C236,68.5,223.9,70.8,209.9,72.4z M198.8,85.9
		c-3.6,4.3-6.9,8.2-9.7,11.5c-2.8,3.3-4.9,6-6.1,8.1c-1.2,2.1-1.8,4.1-1.8,6.2c0,3.4,1.7,6.4,5.2,9c3.5,2.6,8.5,3.9,15,3.9
		c6,0,12.4-1.1,19.3-3.2c6.8-2.1,12.6-4.9,17.2-8.3c4.7-3.4,7-6.9,7-10.4c0-3-1.7-5.5-5.1-7.5c-3.4-2-8.6-3.7-15.6-5.2
		C217,88.6,208.6,87.2,198.8,85.9z"/>
	<path class="st0" d="M321.3,109.1v7.8c-14.6,19.4-26.5,29.1-35.7,29.1c-5,0-8.9-2.7-11.7-8.1c-2.8-5.4-4.3-12.5-4.3-21.4
		c0-7.1,1.7-15.6,5-25.5c3.4-9.8,7.9-19.8,13.5-29.9c5.6-10.1,11.5-18.9,17.5-26.5c6.1-7.5,11.7-12.8,16.8-15.8
		c2.1-1.3,3.7-1.9,4.9-1.9c1.5,0,2.4,0.6,2.9,1.9c0.5,1.3,0.7,3.5,0.7,6.7c0,9.7-4,21.7-11.9,35.9c-7.9,14.2-18.9,28.6-33.1,43.4
		c-0.7,3.6-1,6.4-1,8.4c0,4.5,1,8.1,2.9,10.9c1.9,2.8,4.6,4.2,8,4.2c1.7,0,3.6-0.7,5.7-2c2-1.4,4.2-3.1,6.4-5.1
		C310.4,119.2,314.8,115.2,321.3,109.1z M289.9,90.3c3.6-3.6,7.2-7.6,10.6-12.2c3.4-4.5,6.6-9.4,9.6-14.6c3-5.2,5.4-9.8,7.1-14
		c1.7-4.1,2.6-7.2,2.6-9.3c0-1.6-0.6-2.4-1.7-2.4c-0.4,0-1.2,0.4-2.4,1.2c-4.3,3.5-9.1,10.3-14.4,20.5
		C295.9,69.6,292.1,79.9,289.9,90.3z"/>
	<path class="st0" d="M387.8,110.1v7c-4.6,4.2-8.3,7-11.1,8.4c-2.8,1.4-6.8,2-12.1,1.7c-9.1,10.8-17.1,16.2-24,16.2
		c-3.9,0-7.5-1.3-10.7-3.9c-3.2-2.6-5.8-6.1-7.7-10.6c-1.9-4.5-2.9-9.5-2.9-15c0-4.5,1.5-9.4,4.5-14.9c3-5.5,6.8-10.6,11.5-15.3
		c4.7-4.7,9.8-8.5,15.2-11.4c5.4-2.9,10.4-4.4,15-4.4c3.3,0,5.9,0.5,7.8,1.5c1.9,1,2.8,2.4,2.8,4.3c0,1.4-0.8,3-2.4,4.8
		c2.7,0.6,4.5,1.5,5.5,2.8c1,1.3,1.5,3.7,1.5,7.1c0,3.4-0.8,7.6-2.4,12.7c-1.6,5.1-3.7,9.9-6.5,14.4l1.9,1.9h1.6
		c1.2,0,2.4-0.3,3.5-0.9c1.2-0.6,2.2-1.2,3.1-1.9C382.8,113.9,384.7,112.4,387.8,110.1z M366.2,82.5c-5.8,3.5-10.8,6.7-14.9,9.5
		c-4.1,2.8-7.6,5.7-10.5,8.6c-2.9,2.9-4.8,5.8-5.8,8.8c-1.8,7.8-2.6,12.1-2.6,12.7c0,4.6,3.2,6.9,9.7,6.9c3,0,8-2.6,15.1-7.8
		c-1.2-3.3-1.8-6.4-1.8-9.4c0-4.4,0.9-8.9,2.7-13.5C359.9,93.7,362.6,88.4,366.2,82.5z"/>
	<path class="st0" d="M471.1,117.3L436.2,146c-9.8,16.9-18.7,29.6-26.8,38c-8,8.4-14,12.5-18,12.5c-2.1,0-3.1-1.3-3.1-3.9
		c0-5,2.6-11.5,7.7-19.3c2-3.1,4.4-6.1,7-9c2.6-2.9,5.1-5.5,7.5-7.6c2.3-2.1,5.4-4.8,9.3-8c3.8-3.2,6.5-5.4,7.9-6.6
		c7-14.3,12-25.2,15.1-32.8c-6.6,7-12.3,12.7-17.2,17.2c-4.9,4.5-9.4,7.9-13.5,10.3c-4.1,2.4-7.8,3.6-11.1,3.6
		c-3.6,0-6.9-2.9-9.9-8.6c-3-5.7-4.5-11.6-4.5-17.6c0-2.8,0.6-5.7,1.9-8.8c1.3-3.1,3.3-6.4,6.1-9.9c2.8-3.5,6.3-7.1,10.6-10.8
		c4.3-3.7,9.3-7.3,15-10.8C431,67.4,439.4,64,445.5,64c4.5,0,6.7,1.6,6.7,4.9c0,4.6-4.9,9-14.6,13.3c-5.9,2.6-11.8,6-17.7,10.3
		c-5.8,4.3-10.6,8.8-14.2,13.6c-3.6,4.8-5.4,9.1-5.4,13c0,1.9,0.5,3.4,1.4,4.5c0.9,1.1,2.1,1.7,3.6,1.7c2.4,0,5.2-1.1,8.4-3.4
		c3.1-2.2,7.8-6.2,14-11.9c2.8-2.6,6.5-6.8,11.2-12.5c4.7-5.8,8.5-10.2,11.5-13.2c3-3,5.8-4.6,8.2-4.6c1.4,0,2.5,0.4,3.4,1.3
		c0.9,0.9,1.3,2.2,1.3,3.8c0,3.2-1.3,7.9-3.8,14c-2.6,6.1-7.2,16.2-13.8,30.1l25.4-18.5V117.3z"/>
	<path class="st0" d="M540.9,81.6c2.4-0.6,3.8-0.9,4.3-0.9c0.5,0,2.3,0.3,5.6,0.9c1.1,0.1,2,0.3,2.8,0.4c0.7,0.1,1.4,0.3,2,0.6
		c0.6,0.2,0.9,0.5,0.9,0.8c0,0.6-1.9,2.5-5.7,5.7c-3.8,3.2-7.6,5.3-11.3,6.2c-2.4,0.8-6.6,1.4-12.8,2c-6.2,0.6-13,0.8-20.6,0.8
		c-4,0-7-0.2-9-0.5c-2-0.3-3-1-3-2.2c0-0.6,0.5-1.6,1.5-3.1c1-1.5,2.4-3.1,4-4.8c4.7-4.8,13.3-7.1,25.8-7.1
		C527.6,80.6,532.7,80.9,540.9,81.6z"/>
	<path class="st0" d="M589.4,51.1c0,0.5,0.5,0.7,1.4,0.7c0.6,0,3.5-0.4,8.6-1.3c5.1-0.8,9.7-1.3,13.8-1.4c-4.6,1.3-8.6,2.5-11.9,3.8
		c-3.3,1.3-6.8,2.7-10.3,4.3c-3.5,1.6-6.1,2.6-7.6,3.1c-1.5,0.5-2.9,0.8-4,0.8c-3.6,0-5.4-2.3-5.4-6.9c0-11.9,3-20.3,9-25.1
		c2.4-2,6.4-4.3,11.8-7c5.4-2.7,11.5-5.2,18.4-7.7c6.8-2.4,14.3-4.5,22.5-6.2c8.2-1.7,16.3-2.6,24.3-2.6c8.2,0,15.7,1.2,22.6,3.6
		c6.9,2.4,12.6,5.7,17.2,10c4.6,4.3,8.2,9.6,10.7,15.8c2.5,6.2,3.7,13.2,3.7,21c0,11.8-3.4,23.3-10.2,34.4
		c-6.8,11.1-15.9,20.9-27.3,29.4c-11.4,8.5-24.2,15.2-38.5,20.2s-28.3,7.5-42.2,7.5c-2.6,0-4.6-0.3-6.1-0.8
		c-1.5-0.6-2.6-1.7-3.2-3.3c-0.6-1.6-0.9-4.1-0.9-7.3c0-4,0.3-7.2,0.9-9.8c0.6-2.5,1.7-5.4,3.2-8.7c10.1-22.3,27.6-50.4,52.6-84.3
		c-5,0.6-10.6,1.6-16.6,3.2c-6,1.6-11.7,3.3-17.1,5.2c-5.4,1.9-9.9,3.7-13.6,5.5C591.2,49.1,589.4,50.3,589.4,51.1z M645.3,32.8
		c0,0.1,0.1,0.9,0.4,2.4c0.3,1.4,0.4,2.7,0.4,3.7c0,1.6-0.8,3.9-2.5,6.8c-1.6,2.9-4.9,8.1-9.7,15.5c-4.8,7.4-9,13.9-12.4,19.5
		c-3.4,5.6-7.5,12.8-12.2,21.6c-1.5,2.8-2.5,4.7-3,5.7c-0.6,1-1.5,2.6-2.7,4.8c-1.2,2.2-2.1,4.2-2.7,5.8c-0.6,1.6-0.8,2.8-0.8,3.7
		c0,1.8,1,3.1,3,3.8c2,0.7,4.8,1.1,8.6,1.1c9.5,0,19.6-1.7,30.2-5.2c10.6-3.5,20.6-8.3,30-14.4c9.3-6.2,16.8-13.1,22.4-20.9
		c5.6-7.8,8.4-15.9,8.4-24.4c0-9.7-3.5-17.1-10.6-22.3c-7.1-5.2-17.4-7.8-30.9-7.8C655.6,32.2,650.3,32.4,645.3,32.8z"/>
	<path class="st0" d="M786.3,110.1v7c-4.6,4.2-8.3,7-11.1,8.4c-2.8,1.4-6.8,2-12.1,1.7c-9.1,10.8-17.1,16.2-24,16.2
		c-3.9,0-7.5-1.3-10.7-3.9c-3.2-2.6-5.8-6.1-7.7-10.6c-1.9-4.5-2.9-9.5-2.9-15c0-4.5,1.5-9.4,4.5-14.9c3-5.5,6.8-10.6,11.5-15.3
		c4.7-4.7,9.8-8.5,15.2-11.4c5.4-2.9,10.4-4.4,15-4.4c3.3,0,5.9,0.5,7.8,1.5c1.9,1,2.8,2.4,2.8,4.3c0,1.4-0.8,3-2.4,4.8
		c2.7,0.6,4.5,1.5,5.5,2.8c1,1.3,1.5,3.7,1.5,7.1c0,3.4-0.8,7.6-2.4,12.7c-1.6,5.1-3.7,9.9-6.5,14.4l1.9,1.9h1.6
		c1.2,0,2.4-0.3,3.5-0.9c1.2-0.6,2.2-1.2,3.1-1.9C781.3,113.9,783.3,112.4,786.3,110.1z M764.7,82.5c-5.8,3.5-10.8,6.7-14.9,9.5
		c-4.1,2.8-7.6,5.7-10.5,8.6c-2.9,2.9-4.8,5.8-5.8,8.8c-1.8,7.8-2.6,12.1-2.6,12.7c0,4.6,3.2,6.9,9.7,6.9c3,0,8-2.6,15.1-7.8
		c-1.2-3.3-1.8-6.4-1.8-9.4c0-4.4,0.9-8.9,2.7-13.5C758.4,93.7,761.1,88.4,764.7,82.5z"/>
	<path class="st0" d="M849.3,110.5v7c-7.5,7.3-13.6,13.1-18.3,17.1c-4.7,4.1-9.1,7.2-13.2,9.4c-4.1,2.2-8.1,3.4-12,3.4
		c-3.8,0-7.4-1.5-10.6-4.6c-3.2-3-5.7-7-7.6-12c-1.8-4.9-2.7-10.2-2.7-15.7c0-4.8,1-9,3.1-12.7c2.1-3.7,6.2-8.5,12.2-14.4
		c7.1-7,13.8-12.4,19.9-16.2c6.1-3.8,10.9-5.7,14.4-5.7c2.5,0,4.7,0.9,6.4,2.6c1.7,1.8,2.6,4,2.6,6.6c0,2.2-1.2,5.4-3.5,9.6
		c-2.3,4.1-4.9,7.7-7.8,10.8c-2.9,3-5.1,4.6-6.8,4.6c-1.8,0-2.7-1-2.7-2.9c0.1-0.6,0.1-1.1,0.2-1.6c0-0.5,0.1-1,0.1-1.5
		c0-0.8-0.3-1.3-0.9-1.4c-0.6-0.1-1.3,0.2-2.2,0.8c-7,4.9-11.8,8.3-14.4,10.3c-2.6,2-4.6,4-6.1,6c-1.5,2-2.3,4.2-2.3,6.4
		c0,4.1,1.3,7.5,4,10.1c2.7,2.6,6.1,3.9,10.4,3.9c4.4,0,9.7-1.7,15.9-5.1C833.6,122,840.9,117,849.3,110.5z"/>
	<path class="st0" d="M180.6,188c-4.7,0.7-9,1.7-13,2.8c-0.8,0.3-1.5,0.5-2,0.5c-0.5,0-1-0.2-1.4-0.7c-0.2-0.3-0.4-0.6-0.4-1
		c0-1,0.7-1.7,2.2-2.2c3.9-1.2,8.5-2.3,13.7-3.2c6.6-1.2,13-1.8,19.1-1.8c2.1,0,3.4,0.1,4.1,0.4c0.7,0.2,1,0.7,1,1.3
		c0,1.1-0.8,1.7-2.4,1.9c-1.4,0.1-3.5,0.2-6.4,0.3c-5.6,0.2-9.5,0.5-11.6,1.1c0.6,0.2,0.9,0.6,0.9,1.1c0,0.5-0.4,1.3-1.1,2.4
		c-4.5,6.5-8.7,13.9-12.8,22.2c-3.1,6.3-5.4,11.9-6.8,16.7c-0.3,1.5-0.9,2.2-1.7,2.2c-0.7,0-1.3-0.4-1.8-1.1c-0.3-0.5-0.5-1-0.5-1.5
		c0-2.2,2.1-7.4,6.2-15.8c2.6-5.4,5.1-9.9,7.3-13.6c0.9-1.5,3-5,6.4-10.4L180.6,188z"/>
	<path class="st0" d="M193.8,213.7c1.7-1.8,3.5-3.3,5.2-4.5c2.2-1.5,3.8-2.3,4.8-2.3c0.4,0,0.8,0.2,1.2,0.5c0.4,0.4,0.6,0.8,0.6,1.3
		c0,0.6-0.5,1.6-1.5,3c-1.9,2.6-3.4,4.9-4.4,7c-0.9,1.8-1.3,3.1-1.3,3.7c0,0.6,0.3,0.9,0.9,0.9c1.3,0,3.4-2.3,6.4-6.8
		c0.6-0.9,1.2-1.4,1.7-1.4s0.7,0.3,0.7,0.8c0,0.9-0.9,2.7-2.7,5.2c-1.5,2.3-3.2,4-4.9,5.2c-1.2,0.8-2.3,1.2-3.2,1.2
		c-1,0-1.7-0.4-2.2-1.3c-0.3-0.5-0.4-1.1-0.4-1.8c0-2.1,0.7-4.5,2.2-7.1c0.4-0.6,1.4-2.4,3.2-5.4c-4.8,2.4-8.8,7.6-12.1,15.6
		c-0.3,0.9-0.8,1.4-1.4,1.4c-0.4,0-0.8-0.2-1.1-0.5c-0.3-0.3-0.4-0.7-0.4-1.2c0-0.8,0.8-3,2.3-6.6c2.8-6.7,5.4-12.4,7.8-17
		c2.4-4.7,5.1-9.6,8.1-14.6c0.7-1.2,1.3-2,1.7-2.5c0.4-0.4,0.8-0.6,1.3-0.6c0.4,0,0.8,0.2,1.1,0.7c0.2,0.3,0.4,0.7,0.4,1.1
		c0,0.7-0.4,1.5-1.1,2.6c-2.5,3.9-5.1,8.2-7.6,12.9C196,208.4,194.4,211.8,193.8,213.7z"/>
	<path class="st0" d="M210.5,221.3v0.6c0,0.5,0.1,1,0.4,1.3c0.6,0.9,1.5,1.3,2.9,1.3c2.9,0,6.3-2.3,10.2-6.8
		c0.7-0.8,1.3-1.2,1.7-1.2c0.3,0,0.5,0.1,0.7,0.4c0.1,0.2,0.2,0.4,0.2,0.5c0,0.9-1.1,2.5-3.4,4.6c-1.8,1.7-3.6,3.1-5.6,4.2
		c-2,1.1-3.8,1.6-5.6,1.6c-1.8,0-3.1-0.6-4.1-1.8c-0.7-0.8-1-2-1-3.4c0-4,1.9-7.8,5.6-11.6c3-3.1,5.7-4.6,7.9-4.6
		c0.6,0,1.2,0.2,1.7,0.6c0.6,0.5,0.9,1.1,0.9,1.9c0,1.2-0.6,2.8-1.7,4.6C218.8,217.3,215.2,219.9,210.5,221.3z M211.2,218.5
		c1.6-0.6,2.9-1.2,3.9-1.9c1.6-1.3,2.9-2.7,3.9-4.3c0.4-0.6,0.5-1.1,0.5-1.5c0-0.5-0.2-0.7-0.7-0.7c-0.6,0-1.5,0.5-2.6,1.4
		C214.2,213.1,212.6,215.5,211.2,218.5z"/>
	<path class="st0" d="M252.9,214.5c1.3,0,1.9,0.5,1.9,1.5c0,0.8-0.6,1.4-1.8,1.8c-2,0.7-3,2-3,3.9c0,1.5,0.6,2.7,1.8,3.5
		c1,0.7,2.3,1.1,3.8,1.1c3.1,0,5.8-0.9,8.1-2.7c1.5-1.1,2.2-2.6,2.2-4.4c0-1.1-0.2-2.1-0.6-2.9c-0.4-0.9-1.1-2-2-3.4
		c-1.4-2.1-2.6-4-3.6-5.8c-1.1-1.9-1.6-3.8-1.6-5.7c0-4.4,2.2-8.5,6.5-12.3c2.3-2,4.8-3.6,7.6-4.9c2.3-1,4.5-1.5,6.6-1.5
		c1.4,0,2.6,0.4,3.5,1.1c1.2,0.9,1.8,2.1,1.8,3.6c0,2.3-1.3,4.9-3.8,7.6c-2.4,2.6-5.2,4.6-8.4,6.3c-1.6,0.8-2.8,1.2-3.6,1.2
		c-0.5,0-1-0.2-1.4-0.7c-0.3-0.3-0.4-0.6-0.4-1c0-0.9,0.8-1.6,2.3-2.1c2.8-1,5.3-2.4,7.5-4.3c2.8-2.3,4.2-4.4,4.2-6.2
		c0-0.7-0.3-1.2-0.8-1.7c-0.4-0.3-1-0.5-1.6-0.5c-1.6,0-3.6,0.6-6.1,1.9c-3.3,1.7-5.9,3.8-7.7,6.4c-1.6,2.3-2.5,4.5-2.5,6.6
		c0,1.6,0.4,3.2,1.3,4.9c0.7,1.3,1.7,2.8,2.8,4.5c1.1,1.6,2,3.1,2.7,4.5c0.9,1.6,1.3,3.2,1.3,4.6c0,2.8-1.6,5.2-4.7,7.3
		c-2.7,1.8-5.7,2.7-9.1,2.7c-3.4,0-6-0.9-7.9-2.8c-1.4-1.4-2.1-3-2.1-4.9c0-2,0.7-3.7,2-5.1c0.8-0.8,1.8-1.5,2.9-1.9
		C251.7,214.6,252.3,214.5,252.9,214.5z"/>
	<path class="st0" d="M283,207c0.4,0,0.7,0.2,1,0.5c0.2,0.3,0.3,0.5,0.3,0.8c0,0.4-0.3,1.1-1,2.1c-2.4,3.8-4.2,6.9-5.2,9.3
		c-1.1,2.5-2.1,5.1-2.9,7.7c-0.4,1.2-1,1.8-1.8,1.8c-0.5,0-0.8-0.2-1.1-0.6c-0.3-0.3-0.4-0.6-0.4-1c0-0.7,0.8-3,2.3-7
		c1.2-3.1,3.1-6.6,5.7-10.4c0.8-1.2,1.5-2.1,1.9-2.5C282.1,207.2,282.6,207,283,207z M289.7,193.9c1.1,0,1.6,0.5,1.6,1.6
		c0,1-0.5,2.1-1.5,3.3c-1,1.1-1.9,1.7-2.8,1.7c-0.4,0-0.8-0.2-1.1-0.5c-0.3-0.3-0.4-0.7-0.4-1.1c0-1.1,0.6-2.3,1.9-3.6
		C288.2,194.4,289,193.9,289.7,193.9z"/>
	<path class="st0" d="M289.3,216.3c2-2.1,3.7-3.7,5.2-4.9c2.3-1.8,3.8-2.6,4.6-2.6c0.4,0,0.7,0.1,1,0.4c0.3,0.3,0.4,0.5,0.4,0.8
		c0,0.4-0.4,1.2-1.2,2.2c-1.3,1.6-2.1,3-2.6,4.1c5.5-5.5,9.2-8.3,11.3-8.3c0.4,0,0.8,0.1,1.1,0.4c0.3,0.3,0.5,0.6,0.5,1.1
		c0,0.7-0.5,1.5-1.5,2.5c-4.4,4.6-6.6,8.3-6.6,11.3c0,1.2,0.2,2.1,0.6,2.6l0.9,1.2c0.2,0.2,0.3,0.5,0.3,0.8c0,0.4-0.2,0.7-0.5,1.1
		c-0.4,0.4-0.8,0.6-1.2,0.6c-0.8,0-1.5-0.5-2.1-1.5c-0.8-1.2-1.2-2.6-1.2-4.1c0-2.1,0.6-4.3,1.8-6.5c0.4-0.8,1.1-1.8,2.1-3.1
		c-2,1.5-4,3.6-6.1,6.2c-1.4,1.8-2.7,3.8-3.8,6c-0.5,1.1-1.2,1.6-1.9,1.6c-0.8,0-1.2-0.4-1.2-1.3c0-1,0.7-2.9,2-5.9
		c0.8-1.7,1.7-3.5,2.8-5.4c-4,3.1-7,7.3-9,12.6c-0.5,1.2-1.1,1.8-2,1.8c-0.4,0-0.7-0.1-0.9-0.4c-0.3-0.3-0.4-0.6-0.4-1
		c0-1.4,0.8-3.9,2.3-7.5c1.6-3.8,3.4-7.3,5.5-10.3c1.4-2.1,2.5-3.2,3.3-3.2c0.7,0,1.1,0.4,1.1,1.1c0,0.3-0.4,1.1-1.3,2.5
		C290.8,213.3,289.8,215.1,289.3,216.3z"/>
	<path class="st0" d="M319,209.4c1-0.6,1.7-1,2.1-1.3c1-0.5,1.9-0.7,2.8-0.7c1,0,1.8,0.3,2.3,0.9c0.5,0.6,0.8,1.5,0.8,2.7
		c0,1.6-0.6,3.6-1.7,5.9c-1.8,3.6-3.9,6.5-6.5,8.6c-2.1,1.8-4.1,2.6-6,2.6c-1,0-2.1-0.4-3.1-1.2c-3.2,6.5-6.1,13.1-8.6,19.9
		c-0.5,1.6-1.2,2.4-1.9,2.4c-0.4,0-0.7-0.2-1.1-0.7c-0.3-0.3-0.4-0.7-0.4-1.1c0-1.3,1.5-5.4,4.6-12.3c4.8-10.7,9.3-19.7,13.6-26.8
		c0.9-1.5,1.5-2.5,1.8-3.1c0.8-1.5,1.6-2.3,2.4-2.3c0.8,0,1.2,0.5,1.2,1.4c0,0.5-0.3,1.3-0.8,2.2C319.9,207.7,319.4,208.7,319,209.4
		z M311.1,224c0.5,0.5,1.2,0.8,1.9,0.8c2.2,0,4.6-1.9,7.2-5.8c1-1.4,1.8-2.9,2.4-4.4c0.5-1.2,0.7-2.1,0.7-2.7c0-0.4-0.1-0.7-0.3-0.9
		c-0.2-0.2-0.5-0.3-0.9-0.3c-1.1,0-2.4,0.8-4,2.3c-1.5,1.5-3,3.6-4.4,6.2C312.4,221.6,311.5,223.2,311.1,224z"/>
	<path class="st0" d="M333.6,216.4c-0.7,1.8-1.2,3.3-1.6,4.4s-0.5,1.9-0.5,2.4c0,0.6,0.3,0.9,0.8,0.9c0.8,0,1.9-0.8,3.3-2.4
		c0.6-0.8,1.6-2.2,2.8-4.2c0.5-0.8,1-1.2,1.5-1.2c0.6,0,0.9,0.3,0.9,0.9c0,1-1.2,3-3.5,6.1c-2.4,3.2-4.7,4.8-6.7,4.8
		c-0.9,0-1.6-0.4-2.2-1.1c-0.4-0.5-0.6-1.2-0.6-2c0-1.3,0.4-3.1,1.2-5.4s2-5.1,3.6-8.5c4-8.5,8.1-15.4,12.3-20.9
		c3.4-4.4,6.1-6.6,8.3-6.6c0.7,0,1.3,0.3,1.7,0.8c0.5,0.5,0.7,1.2,0.7,1.9c0,3.3-2.9,8.7-8.8,16.4c-2.6,3.4-5.8,6.8-9.4,10.2
		C336.6,213.7,335.3,214.9,333.6,216.4z M336.1,210.8c4.9-4.2,9.2-9.4,13.1-15.8c2-3.3,3-5.5,3-6.6c0-0.5-0.2-0.8-0.7-0.8
		c-1.3,0-3.6,2.6-7,7.7C341.7,199.5,338.9,204.7,336.1,210.8z"/>
	<path class="st0" d="M346.1,221.3v0.6c0,0.5,0.1,1,0.4,1.3c0.6,0.9,1.5,1.3,2.9,1.3c2.9,0,6.3-2.3,10.2-6.8
		c0.7-0.8,1.3-1.2,1.7-1.2c0.3,0,0.5,0.1,0.7,0.4c0.1,0.2,0.2,0.4,0.2,0.5c0,0.9-1.1,2.5-3.4,4.6c-1.8,1.7-3.6,3.1-5.6,4.2
		c-2,1.1-3.8,1.6-5.6,1.6c-1.8,0-3.1-0.6-4.1-1.8c-0.7-0.8-1-2-1-3.4c0-4,1.9-7.8,5.6-11.6c3-3.1,5.7-4.6,7.9-4.6
		c0.6,0,1.2,0.2,1.7,0.6c0.6,0.5,0.9,1.1,0.9,1.9c0,1.2-0.6,2.8-1.7,4.6C354.4,217.3,350.8,219.9,346.1,221.3z M346.8,218.5
		c1.6-0.6,2.9-1.2,3.9-1.9c1.6-1.3,2.9-2.7,3.9-4.3c0.4-0.6,0.5-1.1,0.5-1.5c0-0.5-0.2-0.7-0.7-0.7c-0.6,0-1.5,0.5-2.6,1.4
		C349.8,213.1,348.2,215.5,346.8,218.5z"/>
	<path class="st0" d="M379.2,204.7c1.5,0,2.5,0.3,3.3,0.8c0.7,0.5,1.1,1.3,1.1,2.4c0,1.4-0.5,2.7-1.5,4c-1,1.2-2.5,2.2-4.4,3
		c-1.1,0.4-2,0.6-2.7,0.6c-1,0-1.5-0.4-1.5-1.3c0-0.6,0.3-1,0.8-1.3c0.1-0.1,0.9-0.3,2.4-0.6c0.9-0.2,1.7-0.6,2.4-1.2
		c0.6-0.5,0.9-1.1,0.9-1.8c0-0.5-0.1-0.9-0.4-1.1c-0.3-0.2-0.7-0.4-1.3-0.4c-1.4,0-2.9,0.6-4.5,1.7c-1.9,1.2-2.8,2.7-2.8,4.4
		c0,1.2,0.6,2.7,1.9,4.6c1.4,2,2.1,3.7,2.1,5.1c0,2.1-0.9,3.7-2.7,4.9c-1.1,0.7-2.4,1.1-3.8,1.1c-2.3,0-4-0.8-5.1-2.4
		c-0.8-1.1-1.2-2.5-1.2-4.1c0-1.8,0.5-3.4,1.4-4.6c0.6-0.8,1.2-1.2,1.9-1.2c0.6,0,0.9,0.2,0.9,0.7c0,0.2-0.1,0.5-0.3,0.8
		c-0.5,1-0.8,2.2-0.8,3.6c0,1.1,0.4,2.1,1.2,2.9c0.7,0.7,1.6,1.1,2.5,1.1c0.9,0,1.6-0.3,2.1-0.9c0.4-0.5,0.6-1.2,0.6-2
		c0-1-0.6-2.3-1.7-3.8c-1.5-2.2-2.3-4.1-2.3-5.9c0-2.3,1.3-4.4,3.8-6.2C373.8,205.6,376.4,204.7,379.2,204.7z"/>
	<path class="st0" d="M394.3,205.4c-1.5,2.4-2.9,5-4.2,7.9c-1.9,4.2-2.8,7.3-2.8,9.4c0,0.6,0.1,1,0.4,1.3s0.6,0.5,1.1,0.5
		c1.2,0,2.6-1.1,4.3-3.3c1.1-1.4,2-2.7,2.8-4.1c0.4-0.8,0.9-1.2,1.4-1.2c0.3,0,0.6,0.1,0.8,0.3c0.2,0.2,0.3,0.4,0.3,0.6
		c0,0.9-1.1,2.8-3.4,5.8c-2.7,3.6-5.2,5.4-7.5,5.4c-1.2,0-2.2-0.6-3-1.7c-0.5-0.7-0.7-1.7-0.7-3c0-2.8,0.8-6.1,2.5-9.9
		c0.4-0.9,1.5-3.2,3.3-6.8c-0.6,0.2-1.1,0.2-1.4,0.2c-0.5,0-0.9-0.1-1.3-0.4c-0.5-0.3-0.8-0.7-0.8-1.2c0-0.6,0.3-1.1,1-1.4
		c0.2-0.1,1.1-0.2,2.6-0.5c0.6-0.1,1.4-0.3,2.5-0.7c0.8-1.5,2.2-3.5,4-6c1-1.4,1.7-2.3,2.1-2.7c0.6-0.6,1.1-0.9,1.5-0.9
		c0.3,0,0.6,0.2,0.9,0.5c0.3,0.3,0.4,0.6,0.4,0.9c0,0.6-0.7,1.8-2,3.6c-0.9,1.2-1.5,2.1-1.9,2.8c2.6-0.7,4.5-1.1,5.6-1.1
		c1.3,0,1.9,0.5,1.9,1.6c0,0.5-0.2,0.9-0.7,1.2c-0.2,0.1-0.8,0.3-1.8,0.4c-0.4,0-2.2,0.4-5.3,1.3C396,204.8,395.1,205.1,394.3,205.4
		z"/>
	<path class="st0" d="M439.5,222.8c1.9-5.8,4.2-11.3,6.9-16.6c2.1-4.1,4.9-9.2,8.4-15.4c2.6-4.6,4.3-7.3,5.1-8.2
		c0.8-0.9,1.7-1.3,2.5-1.3c0.8,0,1.1,0.3,1.1,1c0,0.4-0.2,0.8-0.5,1.4c-0.3,0.5-1.3,2.1-2.9,4.7c-5.4,8.8-9.4,16.1-11.8,21.7
		c-2.3,5.1-4.2,10.1-5.8,14.9c-0.6,1.8-1.2,3.1-1.9,3.9c-1,1.3-2.1,1.9-3.1,1.9c-1,0-1.6-0.7-1.8-2.1c-0.1-0.6-0.2-1.6-0.2-3.2
		c0-5.6,0.6-11.8,1.7-18.7c1-6,2-10.8,3-14.4c-2.3,2.5-5.6,7.7-10.1,15.6c-3.5,6.3-6.2,12.1-7.9,17.6c-0.7,2.3-1.3,3.6-1.6,4.2
		c-0.6,1-1.4,1.5-2.4,1.5c-0.4,0-0.7-0.2-1-0.5c-0.2-0.3-0.4-0.6-0.4-0.8c0-0.9,0.8-3.2,2.3-7.1c2-5,5.2-11.3,9.8-19.1
		c2.7-4.6,6-9.5,9.7-14.7c1.8-2.5,3.1-4.1,4-4.8c0.8-0.7,1.5-1,2.3-1c0.3,0,0.6,0.1,0.8,0.3c0.3,0.3,0.5,0.6,0.5,0.9
		c0,0.5-0.1,1-0.4,1.6c-1.1,2.9-2.3,6.9-3.5,12c-1.9,8.2-2.8,15.2-2.8,21C439.4,220,439.4,221.2,439.5,222.8z"/>
	<path class="st0" d="M466.4,205.4c1.9,0,2.9,1.2,2.9,3.5c0,3.1-1.4,7.1-4.3,11.8c-3.1,5.2-6.2,7.8-9.1,7.8c-1.4,0-2.4-0.6-3-1.9
		c-0.3-0.6-0.5-1.4-0.5-2.3c0-3,1-6.3,3.1-9.8c1.9-3.3,4.2-5.8,6.8-7.6C463.8,205.9,465.2,205.4,466.4,205.4z M462.7,218.6
		c-0.6-0.5-0.9-0.8-0.9-1.1c0-0.2,0.4-0.7,1.1-1.5c2.1-2.4,3.2-4.3,3.2-5.7c0-0.2-0.1-0.4-0.2-0.6c-0.2-0.4-0.5-0.5-0.9-0.5
		c-0.8,0-1.9,0.7-3.3,2.2c-1.9,1.9-3.3,3.8-4.3,5.8c-1.1,2.3-1.7,4.2-1.7,5.7c0,0.4,0.1,0.8,0.3,1.1c0.3,0.4,0.7,0.6,1.2,0.6
		c1.1,0,2.3-0.8,3.6-2.5c0.6-0.7,1-1.4,1.4-2.2C462.6,219.1,462.8,218.7,462.7,218.6z"/>
	<path class="st0" d="M483.7,207.5c2.3-4.9,4.6-9.2,6.6-12.8c2-3.5,3.4-5.7,4.1-6.6c0.8-1,1.5-1.5,2.3-1.5c0.4,0,0.7,0.2,1,0.5
		c0.3,0.3,0.4,0.6,0.4,1c0,0.5-0.4,1.4-1.2,2.7c-3.4,5.5-6.5,11.1-9.4,16.7c-3.3,6.6-4.9,11.5-4.9,14.8c0,1.3,0.3,2.4,0.8,3.2
		c0.1,0.2,0.5,0.5,1.3,1.1c0.1,0.1,0.2,0.4,0.2,0.7c0,0.5-0.2,0.9-0.5,1.3c-0.4,0.4-0.8,0.6-1.2,0.6c-0.5,0-1.1-0.3-1.8-1
		c-0.9-0.9-1.5-2-1.7-3.2c-0.1-0.5-0.2-1.5-0.2-2.9c-2.5,4.4-4.8,6.6-7,6.6c-1.3,0-2.3-0.7-3.1-2.2c-0.5-1-0.8-2.1-0.8-3.3
		c0-3.7,1.3-7.3,4-11c2.6-3.7,5.5-5.5,8.5-5.5C481.9,206.6,482.8,206.9,483.7,207.5z M482.5,210.4c-0.6-0.4-1.2-0.6-1.7-0.6
		c-2,0-3.8,1.2-5.6,3.6c-2.3,3.1-3.5,6.2-3.5,9.1c0,0.4,0.1,0.7,0.2,1c0.3,0.6,0.7,0.9,1.3,0.9c0.8,0,1.8-0.8,3-2.4
		c1.6-2.1,3-4.6,4.4-7.5c0.5-1,0.9-2,1.4-3l0.3-0.7L482.5,210.4z"/>
	<path class="st0" d="M491.1,221.3v0.6c0,0.5,0.1,1,0.4,1.3c0.6,0.9,1.5,1.3,2.9,1.3c2.9,0,6.3-2.3,10.2-6.8
		c0.7-0.8,1.3-1.2,1.7-1.2c0.3,0,0.5,0.1,0.7,0.4c0.1,0.2,0.2,0.4,0.2,0.5c0,0.9-1.1,2.5-3.4,4.6c-1.8,1.7-3.6,3.1-5.6,4.2
		c-2,1.1-3.8,1.6-5.6,1.6c-1.8,0-3.1-0.6-4.1-1.8c-0.7-0.8-1-2-1-3.4c0-4,1.9-7.8,5.6-11.6c3-3.1,5.7-4.6,7.9-4.6
		c0.6,0,1.2,0.2,1.7,0.6c0.6,0.5,0.9,1.1,0.9,1.9c0,1.2-0.6,2.8-1.7,4.6C499.4,217.3,495.8,219.9,491.1,221.3z M491.8,218.5
		c1.6-0.6,2.9-1.2,3.9-1.9c1.6-1.3,2.9-2.7,3.9-4.3c0.4-0.6,0.5-1.1,0.5-1.5c0-0.5-0.2-0.7-0.7-0.7c-0.6,0-1.5,0.5-2.6,1.4
		C494.9,213.1,493.2,215.5,491.8,218.5z"/>
	<path class="st0" d="M511.4,225.5c0.5,0,0.9,0.2,1.3,0.7c0.2,0.3,0.4,0.7,0.4,1.2c0,1.1-0.3,2.3-0.9,3.5c-0.6,1.3-1.5,1.9-2.5,1.9
		c-1.1,0-1.6-0.6-1.6-1.8c0-1.2,0.4-2.5,1.1-3.7C509.8,226,510.6,225.5,511.4,225.5z"/>
	<path class="st0" d="M522.6,228.3l0.7-1.5l2.1-4.5c2.9-6.3,4.8-10.3,5.7-11.8c1.4-2.5,2.6-3.7,3.7-3.7c0.4,0,0.7,0.1,1,0.4
		c0.3,0.3,0.4,0.6,0.4,0.9c0,0.4-0.7,1.6-2.1,3.7c-0.9,1.3-2.2,3.6-3.9,7c-1.4,2.8-2.4,5-3,6.6c1.8-1.2,3.2-2.4,4.4-3.5
		c1.3-1.3,2.6-3,3.9-5c0.6-0.9,1.1-1.3,1.6-1.3c0.3,0,0.5,0.1,0.7,0.3c0.2,0.2,0.3,0.5,0.3,0.8c0,0.8-0.5,1.9-1.5,3.3
		c-2.4,3.5-6.2,6.7-11.4,9.7c-0.5,0.8-1.3,2.4-2.4,4.9c-1.9,4.3-3.8,7.8-5.8,10.4c-1.1,1.4-2.4,2.6-4,3.5c-1,0.6-2.1,0.9-3.2,0.9
		c-1.3,0-2.4-0.5-3.3-1.5c-0.6-0.7-0.8-1.5-0.8-2.4c0-2.5,1.3-5.2,3.8-8.1C512.5,233.6,516.9,230.6,522.6,228.3z M520.6,232.1
		c-2.2,0.8-4.6,2.5-7.1,4.9c-3,2.8-4.4,5.2-4.4,7.3c0,0.5,0.1,0.9,0.4,1.1c0.2,0.2,0.6,0.4,1,0.4c1,0,2-0.6,3.1-1.7
		C515.4,242.4,517.8,238.3,520.6,232.1z M541.3,194.1c1.1,0,1.6,0.5,1.6,1.6c0,1-0.5,2.1-1.5,3.3c-1,1.1-1.9,1.7-2.8,1.7
		c-0.4,0-0.8-0.2-1.1-0.5c-0.3-0.3-0.4-0.7-0.4-1.2c0-1.1,0.6-2.3,1.9-3.6C539.8,194.6,540.6,194.1,541.3,194.1z"/>
	<path class="st0" d="M555.1,204.7c1.5,0,2.5,0.3,3.3,0.8c0.7,0.5,1.1,1.3,1.1,2.4c0,1.4-0.5,2.7-1.5,4c-1,1.2-2.5,2.2-4.4,3
		c-1.1,0.4-2,0.6-2.7,0.6c-1,0-1.5-0.4-1.5-1.3c0-0.6,0.3-1,0.8-1.3c0.1-0.1,0.9-0.3,2.4-0.6c0.9-0.2,1.7-0.6,2.4-1.2
		c0.6-0.5,0.9-1.1,0.9-1.8c0-0.5-0.1-0.9-0.4-1.1c-0.3-0.2-0.7-0.4-1.3-0.4c-1.4,0-2.9,0.6-4.5,1.7c-1.9,1.2-2.8,2.7-2.8,4.4
		c0,1.2,0.6,2.7,1.9,4.6c1.4,2,2.1,3.7,2.1,5.1c0,2.1-0.9,3.7-2.7,4.9c-1.1,0.7-2.4,1.1-3.8,1.1c-2.3,0-4-0.8-5.1-2.4
		c-0.8-1.1-1.2-2.5-1.2-4.1c0-1.8,0.5-3.4,1.4-4.6c0.6-0.8,1.2-1.2,1.9-1.2c0.6,0,0.9,0.2,0.9,0.7c0,0.2-0.1,0.5-0.3,0.8
		c-0.5,1-0.8,2.2-0.8,3.6c0,1.1,0.4,2.1,1.2,2.9c0.7,0.7,1.6,1.1,2.5,1.1c0.9,0,1.6-0.3,2.1-0.9c0.4-0.5,0.6-1.2,0.6-2
		c0-1-0.6-2.3-1.7-3.8c-1.5-2.2-2.3-4.1-2.3-5.9c0-2.3,1.3-4.4,3.8-6.2C549.7,205.6,552.3,204.7,555.1,204.7z"/>
	<path class="st0" d="M606.9,182.8c1.6,0,2.8,0.6,3.6,1.7c0.7,0.9,1,2,1,3.2c0,2.3-0.8,4.9-2.3,7.8c-1.3,2.5-3,4.8-5,6.8
		c-1.3,1.3-2.3,1.9-3.1,1.9c-0.5,0-0.9-0.2-1.4-0.7c-0.3-0.4-0.5-0.8-0.5-1.2c0-0.8,0.7-1.8,2.1-2.8c2-1.5,3.6-3.1,4.8-4.9
		c1.8-2.6,2.6-4.8,2.6-6.5c0-0.7-0.2-1.3-0.5-1.6s-0.8-0.5-1.4-0.5c-1.3,0-3.1,0.9-5.5,2.8c-2.7,2.1-5.5,5-8.5,8.6
		c-3.8,4.6-6.7,9.2-8.7,13.6c-2.1,4.6-3.1,8.6-3.1,11.9c0,1.6,0.5,2.9,1.4,4c1,1.2,2.2,1.9,3.7,1.9c2.5,0,5.7-2,9.6-5.9
		c1.1-1.2,2.5-2.9,4.2-5.2c1.1-1.5,1.8-2.5,2.1-3.1c0.4-0.7,0.8-1,1.2-1c0.5,0,0.8,0.2,0.8,0.7c0,1.1-1.3,3.4-3.9,7.1
		c-2.2,3.1-4.6,5.6-7.2,7.5c-3,2.2-5.7,3.3-8.4,3.3c-2.7,0-4.9-1.2-6.4-3.7c-1-1.6-1.4-3.4-1.4-5.4c0-5.1,2.4-11.4,7.2-19.2
		c4.1-6.6,8.4-11.8,12.9-15.9C600.8,184.5,604.2,182.8,606.9,182.8z"/>
	<path class="st0" d="M624.7,217.1c0.8-1.1,2.5-3.7,5.2-7.9c2.3-3.6,6-8.8,11.1-15.5c3-3.9,5.6-7.2,8-9.8c1.4-1.6,2.7-2.4,3.8-2.4
		c0.6,0,1.2,0.2,1.6,0.7c0.4,0.4,0.6,0.8,0.6,1.3c0,0.8-0.5,2.1-1.4,3.8c-0.2,0.4-1.1,2.1-2.9,5.1c-3.1,5.5-5.2,9.4-6.3,11.7
		c-3,6.4-5.2,11.9-6.6,16.4c-0.8,2.7-1.2,4.7-1.2,5.9c0,0.3,0,0.6,0.1,0.9c0.1,0.9,0.2,1.5,0.2,1.6c0,0.7-0.3,1.3-0.8,1.9
		c-0.4,0.5-0.9,0.8-1.5,0.8c-0.7,0-1.2-0.4-1.6-1.2c-0.4-0.6-0.5-1.4-0.5-2.5c0-6.6,5.5-19.7,16.6-39.1c-5.8,6.2-12.2,15-19.2,26.6
		c-1.5,2.5-2.8,4.2-3.8,5.1c-1,0.9-1.9,1.3-2.8,1.3s-1.5-0.4-2-1.2c-0.3-0.5-0.4-1.1-0.4-1.8c0-5.9,3.5-15.1,10.4-27.7
		c-2.4,2.4-4.6,5.2-6.8,8.4c-4,5.9-7.5,11.9-10.6,18.1c-1.5,3-3.3,6.9-5.4,11.9c-1.1,2.5-2.3,3.8-3.7,3.8c-0.4,0-0.6-0.2-0.9-0.5
		c-0.2-0.2-0.3-0.5-0.3-0.8c0-0.4,0.4-1.7,1.3-3.7c1.9-4.4,3.3-7.5,4.3-9.5c5-9.8,11-19.1,17.9-27.7c2.9-3.6,4.9-6,6-7
		c1.1-1.1,2.1-1.7,2.8-1.7c0.5,0,0.9,0.2,1.4,0.6c0.5,0.5,0.8,1.1,0.8,1.7c0,0.7-0.5,1.9-1.5,3.5c-2.8,4.6-5.4,9.8-7.8,15.5
		C626.6,209.1,625.3,213.5,624.7,217.1z"/>
	<path class="st0" d="M653.6,214.5c1.3,0,1.9,0.5,1.9,1.5c0,0.8-0.6,1.4-1.8,1.8c-2,0.7-3,2-3,3.9c0,1.5,0.6,2.7,1.8,3.5
		c1,0.7,2.3,1.1,3.8,1.1c3.1,0,5.8-0.9,8.1-2.7c1.5-1.1,2.2-2.6,2.2-4.4c0-1.1-0.2-2.1-0.6-2.9c-0.4-0.9-1.1-2-2-3.4
		c-1.4-2.1-2.6-4-3.6-5.8c-1.1-1.9-1.6-3.8-1.6-5.7c0-4.4,2.2-8.5,6.5-12.3c2.3-2,4.8-3.6,7.6-4.9c2.3-1,4.5-1.5,6.6-1.5
		c1.4,0,2.6,0.4,3.5,1.1c1.2,0.9,1.8,2.1,1.8,3.6c0,2.3-1.3,4.9-3.8,7.6c-2.4,2.6-5.2,4.6-8.4,6.3c-1.6,0.8-2.8,1.2-3.6,1.2
		c-0.5,0-1-0.2-1.4-0.7c-0.3-0.3-0.4-0.6-0.4-1c0-0.9,0.8-1.6,2.3-2.1c2.8-1,5.3-2.4,7.5-4.3c2.8-2.3,4.2-4.4,4.2-6.2
		c0-0.7-0.3-1.2-0.8-1.7c-0.4-0.3-1-0.5-1.6-0.5c-1.6,0-3.6,0.6-6.1,1.9c-3.3,1.7-5.9,3.8-7.7,6.4c-1.6,2.3-2.5,4.5-2.5,6.6
		c0,1.6,0.4,3.2,1.3,4.9c0.7,1.3,1.7,2.8,2.8,4.5c1.1,1.6,2,3.1,2.7,4.5c0.9,1.6,1.3,3.2,1.3,4.6c0,2.8-1.6,5.2-4.7,7.3
		c-2.7,1.8-5.7,2.7-9.1,2.7c-3.4,0-6-0.9-7.9-2.8c-1.4-1.4-2.1-3-2.1-4.9c0-2,0.7-3.7,2-5.1c0.8-0.8,1.8-1.5,2.9-1.9
		C652.5,214.6,653.1,214.5,653.6,214.5z"/>
	<path class="st0" d="M715.9,204.4c0.4,3.4,0.7,5.8,1,7.3c0.3,1.6,0.9,4.3,1.8,8.2c2.4-3.6,3.9-6.7,4.4-9.4c-0.6,0-1-0.1-1.2-0.1
		c-1.3,0-2.1-0.2-2.5-0.5c-0.5-0.3-0.7-0.8-0.7-1.4c0-0.6,0.2-1,0.5-1.4c0.4-0.4,0.9-0.6,1.5-0.6c0.2,0,0.8,0,1.7,0.1
		c0.2,0,0.4,0,0.5,0c1.7,0,4.4-0.3,8.2-0.8c1.2-0.2,2.5-0.3,3.7-0.3c2.2,0,3.3,0.8,3.3,2.3c0,1-0.4,1.5-1.3,1.5
		c-0.4,0-1.1-0.1-2-0.3c-0.5-0.1-1-0.2-1.6-0.2c-1.2,0-3.6,0.4-7.3,1.1c-0.4,2-1.1,4.3-2.3,6.8c-1.2,2.8-2.5,4.9-3.8,6.4
		c0.7,1.2,1.3,2.1,1.8,2.7c1,1.1,2.3,1.7,4,1.7c0.8,0,1.6-0.1,2.5-0.3c0.9-0.2,1.7-0.3,2.2-0.3c0.9,0,1.3,0.4,1.3,1.3
		c0,0.8-0.5,1.4-1.6,2c-1.6,0.8-3.3,1.2-5.2,1.2c-3.1,0-5.7-1.6-7.7-4.9c-3.1,3-6.1,4.4-9,4.4c-3.3,0-5.9-1.4-7.9-4.1
		c-1.3-1.9-2-4.1-2-6.8c0-3.3,1-6.4,3-9.2c2-2.9,5.7-5.4,11-7.7c-0.2-1.5-0.3-2.8-0.3-4c0-2.6,0.4-4.8,1.1-6.7
		c0.7-1.9,1.9-3.4,3.5-4.7c1.5-1.1,3.2-1.7,4.9-1.7c1.5,0,2.7,0.5,3.6,1.5c1,1.1,1.5,2.4,1.5,3.9c0,2-0.7,4.1-2.1,6.3
		c-1.1,1.6-3,3.2-5.7,4.9C718.3,202.9,717.4,203.5,715.9,204.4z M712.3,206.2c-2.1,1-3.9,2.1-5.3,3.4c-3.2,2.9-4.9,6-4.9,9.4
		c0,2.1,0.6,3.8,1.7,5.3c1.2,1.6,2.9,2.4,5.1,2.4c2.3,0,4.6-1.2,6.9-3.6c-0.9-2.1-1.6-4.9-2.3-8.5
		C713.1,211.2,712.7,208.4,712.3,206.2z M715.7,201.7c1.9-1.1,3.4-2.1,4.5-3.2c1.8-1.8,2.7-3.6,2.7-5.2c0-0.9-0.2-1.6-0.7-2.2
		c-0.4-0.6-1-0.9-1.7-0.9c-1.4,0-2.7,0.8-3.7,2.5c-0.8,1.3-1.2,3.4-1.2,6.4C715.5,199.5,715.5,200.4,715.7,201.7z"/>
	<path class="st0" d="M763.1,214.5c1.3,0,1.9,0.5,1.9,1.5c0,0.8-0.6,1.4-1.8,1.8c-2,0.7-3,2-3,3.9c0,1.5,0.6,2.7,1.8,3.5
		c1,0.7,2.3,1.1,3.8,1.1c3.1,0,5.8-0.9,8.1-2.7c1.5-1.1,2.2-2.6,2.2-4.4c0-1.1-0.2-2.1-0.6-2.9c-0.4-0.9-1.1-2-2-3.4
		c-1.4-2.1-2.6-4-3.6-5.8c-1.1-1.9-1.6-3.8-1.6-5.7c0-4.4,2.2-8.5,6.5-12.3c2.3-2,4.8-3.6,7.6-4.9c2.3-1,4.5-1.5,6.6-1.5
		c1.4,0,2.6,0.4,3.5,1.1c1.2,0.9,1.8,2.1,1.8,3.6c0,2.3-1.3,4.9-3.8,7.6c-2.4,2.6-5.2,4.6-8.4,6.3c-1.6,0.8-2.8,1.2-3.6,1.2
		c-0.5,0-1-0.2-1.4-0.7c-0.3-0.3-0.4-0.6-0.4-1c0-0.9,0.8-1.6,2.3-2.1c2.8-1,5.3-2.4,7.5-4.3c2.8-2.3,4.2-4.4,4.2-6.2
		c0-0.7-0.3-1.2-0.8-1.7c-0.4-0.3-1-0.5-1.6-0.5c-1.6,0-3.6,0.6-6.1,1.9c-3.3,1.7-5.9,3.8-7.7,6.4c-1.6,2.3-2.5,4.5-2.5,6.6
		c0,1.6,0.4,3.2,1.3,4.9c0.7,1.3,1.7,2.8,2.8,4.5c1.1,1.6,2,3.1,2.7,4.5c0.9,1.6,1.3,3.2,1.3,4.6c0,2.8-1.6,5.2-4.7,7.3
		c-2.7,1.8-5.7,2.7-9.1,2.7c-3.4,0-6-0.9-7.9-2.8c-1.4-1.4-2.1-3-2.1-4.9c0-2,0.7-3.7,2-5.1c0.8-0.8,1.8-1.5,2.9-1.9
		C762,214.6,762.6,214.5,763.1,214.5z"/>
	<path class="st0" d="M791.5,214.5c1.3,0,1.9,0.5,1.9,1.5c0,0.8-0.6,1.4-1.8,1.8c-2,0.7-3,2-3,3.9c0,1.5,0.6,2.7,1.8,3.5
		c1,0.7,2.3,1.1,3.8,1.1c3.1,0,5.8-0.9,8.1-2.7c1.5-1.1,2.2-2.6,2.2-4.4c0-1.1-0.2-2.1-0.6-2.9c-0.4-0.9-1.1-2-2-3.4
		c-1.4-2.1-2.6-4-3.6-5.8c-1.1-1.9-1.6-3.8-1.6-5.7c0-4.4,2.2-8.5,6.5-12.3c2.3-2,4.8-3.6,7.6-4.9c2.3-1,4.5-1.5,6.6-1.5
		c1.4,0,2.6,0.4,3.5,1.1c1.2,0.9,1.8,2.1,1.8,3.6c0,2.3-1.3,4.9-3.8,7.6c-2.4,2.6-5.2,4.6-8.4,6.3c-1.6,0.8-2.8,1.2-3.6,1.2
		c-0.5,0-1-0.2-1.4-0.7c-0.3-0.3-0.4-0.6-0.4-1c0-0.9,0.8-1.6,2.3-2.1c2.8-1,5.3-2.4,7.5-4.3c2.8-2.3,4.2-4.4,4.2-6.2
		c0-0.7-0.3-1.2-0.8-1.7c-0.4-0.3-1-0.5-1.6-0.5c-1.6,0-3.6,0.6-6.1,1.9c-3.3,1.7-5.9,3.8-7.7,6.4c-1.6,2.3-2.5,4.5-2.5,6.6
		c0,1.6,0.4,3.2,1.3,4.9c0.7,1.3,1.7,2.8,2.8,4.5c1.1,1.6,2,3.1,2.7,4.5c0.9,1.6,1.3,3.2,1.3,4.6c0,2.8-1.6,5.2-4.7,7.3
		c-2.7,1.8-5.7,2.7-9.1,2.7c-3.4,0-6-0.9-7.9-2.8c-1.4-1.4-2.1-3-2.1-4.9c0-2,0.7-3.7,2-5.1c0.8-0.8,1.8-1.5,2.9-1.9
		C790.3,214.6,791,214.5,791.5,214.5z"/>
	<path class="st0" d="M830.2,222.7c-1.6,1.1-2.9,1.9-3.8,2.5c-2.2,1.3-4.1,1.9-5.7,1.9c-1.9,0-3.5-0.9-4.7-2.8
		c-0.9-1.3-1.3-2.9-1.3-4.6c0-4.8,2.1-10.5,6.3-16.9c3.9-5.9,8.4-11,13.6-15.3c4.2-3.5,7.8-5.3,10.9-5.3c1.5,0,2.8,0.6,3.7,1.9
		c0.7,1,1.1,2.1,1.1,3.5c0,4.1-2,8.3-6,12.7c-3,3.4-5.4,5-6.9,5c-0.4,0-0.7-0.1-1.1-0.4c-0.4-0.3-0.6-0.7-0.6-1.2
		c0-0.6,0.5-1.3,1.5-2.1c2.6-2.1,4.8-4.3,6.5-6.5c2.6-3.4,3.9-6.2,3.9-8.2c0-0.5-0.2-1-0.6-1.3c-0.4-0.3-0.8-0.5-1.4-0.5
		c-1.2,0-2.9,0.7-5,2.2c-4.4,3.1-8.7,7.4-12.9,12.9c-2.7,3.6-5,7.3-6.9,11.1c-1.6,3.4-2.4,6.1-2.4,8.2c0,0.8,0.3,1.6,0.8,2.4
		c0.7,1,1.7,1.5,2.8,1.5c1.7,0,3.7-0.9,6.2-2.6c3-2.2,5.2-4,6.5-5.3c1.1-1.1,1.9-1.7,2.5-1.7c0.4,0,0.7,0.2,1,0.5
		c0.3,0.4,0.5,0.9,0.5,1.5c0,0.7-0.4,1.5-1.2,2.6c-0.8,1.1-2.1,3.1-3.8,6c-2,3.4-3.8,7-5.4,10.9c-1.5,3.4-2.4,5.8-2.7,7
		c-0.3,1-0.6,1.8-0.9,2.2c-0.4,0.5-0.9,0.7-1.6,0.7c-0.6,0-1.1-0.2-1.4-0.6c-0.3-0.4-0.4-0.8-0.4-1.3c0-2,1.2-5.4,3.5-10.3
		c0.4-0.8,1.6-3,3.6-6.8C828.8,225.3,829.4,224.2,830.2,222.7z"/>
</g>
</svg>
