<svg xmlns="http://www.w3.org/2000/svg" xmlns:xlink="http://www.w3.org/1999/xlink" viewBox="0 0 500 500"><defs><clipPath id="freepik--clip-path--inject-4"><rect x="46.44" y="109.77" width="405.49" height="224.77" style="fill:#407BFF;stroke:#263238;stroke-miterlimit:10"></rect></clipPath><clipPath id="freepik--clip-path-2--inject-4"><path d="M266.93,168.72l-7.54-11.85c-14.07,5-30.57,8.29-45.09,11.69-6.48,1.52,6.93,25.65,10.77,24.55C241.12,188.52,254.25,179.69,266.93,168.72Z" style="fill:#263238;stroke:#263238;stroke-linecap:round;stroke-linejoin:round"></path></clipPath><clipPath id="freepik--clip-path-3--inject-4"><path d="M259.8,277.61s-5.22,93-8.24,109.26c-.92,5-5.34,39.77-6,47.14,0,0,1.36,6.59.09,12l-1.25,2.87c-2.13,4.45-20.88,4.66-21.51,3.45s-3.07-1.49-.22-18.4c.31-1.88.81-21.78,1.61-48.45.26-8.75,1.48-15.61.49-37.65,0-1-4.93-58.12-5-59.1l-1,.39c-.12,1.12-.22,2.19-.33,3.21a90.94,90.94,0,0,1-2.65,14.56l-18,67,0,12.18c.28,14.83-1,32.45-5.1,46.73l.4,3.72c.75,7,2.36,15.08-5.48,16.43l-16,.77c-2.66,0-5.68-.27-5.51-2.91L167.63,440c3.28-12.49,2.15-52.43,2.71-65.33L177,278.52l3.9-28.5,76.22-1.56Z" style="fill:#407BFF;stroke:#263238;stroke-linecap:round;stroke-linejoin:round"></path></clipPath><clipPath id="freepik--clip-path-4--inject-4"><path d="M208.14,129.78l7.05-17.5-2.38-15.42L215.19,80l14.62-5.51,12.08-.1,4.3,3.67,1.16,5.11s3.83,13.49,2.5,15.73-2.41,4.41-2.41,4.41,2.9,6.63,3,9.29c.14,3.18-3.64.23-4.87,3.84s-2.24,12-6.74,11.73-6.91-.59-8,3.22-3.82,14.2-3.82,14.2Z" style="fill:#757575;stroke:#263238;stroke-linecap:round;stroke-linejoin:round"></path></clipPath><clipPath id="freepik--clip-path-5--inject-4"><path d="M257,189.61l-.5,3.75a137.85,137.85,0,0,0,1.67,46.46l2.55,12.32s-22,4.91-36.33,6.55c-32.8,3.76-49.23-1.36-49.23-1.36a77.2,77.2,0,0,1,1.55-17.82c8.8-41.8-7.53-93-3.25-99.52,3.19-4.89,29.82-8.58,29.82-8.58s24.54-.69,33.51,2.43l1.1.69c11.94,4.08,21.41,8.47,26.56,12.14l-1.89,4.71C262.49,153.69,257,189.61,257,189.61Z" style="fill:#263238;stroke:#263238;stroke-linecap:round;stroke-linejoin:round"></path></clipPath></defs><g id="freepik--background-simple--inject-4"><g style="opacity:0.7000000000000001"><path d="M59.19,144.34c-8.93,24-12.59,48.18-13.33,71.16-.12,3.25-.16,6.47-.14,9.67a251.25,251.25,0,0,0,2.06,30.16,256.35,256.35,0,0,0,7.31,36A252.62,252.62,0,0,0,74.7,341a194.8,194.8,0,0,0,19.16,30c74.43,94.08,123.92,83.92,143.89,82.48,30.74-2.21,134.48-96,156.94-117.44s46.52-41.68,63.13-68.46S507,152.14,371.42,67.57A259.51,259.51,0,0,0,345,54.24C186.55-22.9,88.52,65.5,59.19,144.34Z" style="fill:#407BFF"></path></g><g style="opacity:0.7000000000000001"><path d="M58.94,144.12c-8.94,24-12.59,48.18-13.34,71.17-.11,3.24-.15,6.47-.13,9.67a249.18,249.18,0,0,0,2.06,30.15,257.46,257.46,0,0,0,26.91,85.71,195.08,195.08,0,0,0,19.17,30C168,464.94,217.52,454.77,237.5,453.33c30.73-2.21,134.48-96,156.94-117.44s46.52-41.68,63.13-68.45,49.21-115.51-86.4-200.08A261.72,261.72,0,0,0,344.76,54C186.3-23.11,88.27,65.29,58.94,144.12Z" style="fill:#fff"></path></g></g><g id="freepik--Plants--inject-4"><path d="M108.22,435.45a2.11,2.11,0,0,0,3.93.71c4.47-8,15.57-23.06,39.92-34.08,23-10.39,3.68-36.29-14.18-27.67C118.63,383.7,104.32,409.22,108.22,435.45Z" style="fill:#407BFF"></path><path d="M111.15,432.73a28.82,28.82,0,0,1,5.53-9.45c6-7.07,14.74-14.85,6.37-10.61A93.52,93.52,0,0,1,141.31,402c9.55-4-8.68-3.54-8.68-3.54s21.29-12.83,18-16.77c-2.72-3.23-15.53,6.93-15.53,6.93s2.31-8.91,0-9.16S125,397.32,125,397.32s.92-5.68-1.93-5.07S107.89,419.86,111.15,432.73Z" style="fill:#263238;opacity:0.2"></path><path d="M95.05,434.83a1.86,1.86,0,0,1-3.39,1c-4.68-6.66-15.83-18.88-38.28-26.39-21.17-7.08-6.6-31.6,9.92-25.62C81.1,390.23,96.06,411.4,95.05,434.83Z" style="fill:#407BFF"></path><path d="M91.87,431.14a24.77,24.77,0,0,0-5.71-7.47c-5.9-5.39-14.13-11.1-6.56-8.36a80.7,80.7,0,0,0-16.68-7.16c-8.55-2.37,7-3.91,7-3.91s-19.49-8.69-17.1-12.4c2-3,14,4.29,14,4.29s-2.92-7.35-1-7.8,10.51,14.12,10.51,14.12-1.4-4.74,1.09-4.51S93.27,419.84,91.87,431.14Z" style="opacity:0.2"></path><path d="M64.16,398.49s24.06,12,32.82,48.14" style="fill:none;stroke:#263238;stroke-linecap:round;stroke-linejoin:round;stroke-width:0.75px"></path><path d="M103.83,436.21a2.61,2.61,0,0,1-4.87-.76c-1.88-11.17-8.59-33.17-32.41-55.85-22.47-21.38,10.78-43.81,28-26.55C113.18,371.65,119.27,407.19,103.83,436.21Z" style="fill:#407BFF"></path><path d="M101.39,431.74a35.82,35.82,0,0,0-3.08-13.36c-4.6-10.69-12.1-23.19-3.66-15.05a116.16,116.16,0,0,0-17.9-19.44c-10-8.23,11.74-1.08,11.74-1.08s-20.73-23.15-15.27-26.67c4.48-2.89,16,14,16,14s.58-11.54,3.44-11,5.42,25.08,5.42,25.08,1-7.15,4.21-5.38S110.15,417.48,101.39,431.74Z" style="fill:#263238;opacity:0.2"></path><path d="M86.78,372.13s23.11,29.35,12.36,80.12" style="fill:none;stroke:#263238;stroke-linecap:round;stroke-linejoin:round;stroke-width:0.75px"></path><path d="M138.66,391S113,407.34,107.44,448.94" style="fill:none;stroke:#263238;stroke-linecap:round;stroke-linejoin:round;stroke-width:0.75px"></path><path d="M117.86,466h-32a7,7,0,0,1-7-6.14l-1.7-14.65a2.32,2.32,0,0,1,2.32-2.56h44.68a2.32,2.32,0,0,1,2.32,2.56l-1.7,14.65A7,7,0,0,1,117.86,466Z" style="fill:#fff;stroke:#263238;stroke-miterlimit:10"></path><line x1="85.14" y1="449.6" x2="80.32" y2="449.6" style="fill:#fff;stroke:#263238;stroke-linecap:round;stroke-linejoin:round"></line><line x1="123.66" y1="449.6" x2="90.39" y2="449.6" style="fill:#fff;stroke:#263238;stroke-linecap:round;stroke-linejoin:round"></line><path d="M401.35,413.56c.09.16-.75.95,2,1.07,6.81.3,18.87-.12,23.42-6.31,6.49-8.83-8.42-8.06-7-12.94s17.47-.84,20.62-7.8-8.51-5.63-8-9.21,12.76,1.09,16.81-6.29-6.64-3.45-4.9-6.51,15.33-15.76,9.85-18.62S436,357.36,431.78,358.77s-5.13-11.64-10.67-7.29-2,24.07-8.41,26.49c-4.8,1.81-2.16-5.24-8.08-5C396.58,373.33,393.85,400.94,401.35,413.56Z" style="fill:#407BFF"></path><g style="opacity:0.1"><path d="M401.35,413.56c.09.16-.75.95,2,1.07,6.81.3,18.87-.12,23.42-6.31,6.49-8.83-8.42-8.06-7-12.94s17.47-.84,20.62-7.8-8.51-5.63-8-9.21,12.76,1.09,16.81-6.29-6.64-3.45-4.9-6.51,15.33-15.76,9.85-18.62S436,357.36,431.78,358.77s-5.13-11.64-10.67-7.29-2,24.07-8.41,26.49c-4.8,1.81-2.16-5.24-8.08-5C396.58,373.33,393.85,400.94,401.35,413.56Z"></path></g><path d="M428.43,373S402,391.12,396.19,437.23" style="fill:none;stroke:#263238;stroke-linecap:round;stroke-linejoin:round;stroke-width:0.75px"></path><path d="M432.47,378.69c-6.39-1.37-10.3-.11-10.3-.11" style="fill:none;stroke:#263238;stroke-linecap:round;stroke-linejoin:round;stroke-width:0.75px"></path><path d="M425.23,359.64s-8,10.63-8,24.49" style="fill:none;stroke:#263238;stroke-linecap:round;stroke-linejoin:round;stroke-width:0.75px"></path><path d="M409.39,395.83s5.73-5.38,13.32-2.63" style="fill:none;stroke:#263238;stroke-linecap:round;stroke-linejoin:round;stroke-width:0.75px"></path><path d="M405.26,404a33.15,33.15,0,0,1-1.35-16.93" style="fill:none;stroke:#263238;stroke-linecap:round;stroke-linejoin:round;stroke-width:0.75px"></path><path d="M393.27,420.65c-5.61.11-15.19-5.1-18.95-10.17s6.92-2,5.82-6-14.34-1.05-16.78-6.83,7.11-4.45,6.73-7.41-10.27-2.36-13.45-8.5,5.53-2.7,4.16-5.25-12.27-13.27-7.71-15.51,14.79,8.94,18.22,10.18,4.22-6.47,8.68-2.78,1.12,19.82,6.37,21.95c3.9,1.58,2.24-5.8,6.74-3.94C401,389.66,395.55,420.61,393.27,420.65Z" style="fill:#407BFF"></path><g style="opacity:0.30000000000000004"><path d="M393.27,420.65c-5.61.11-15.19-5.1-18.95-10.17s6.92-2,5.82-6-14.34-1.05-16.78-6.83,7.11-4.45,6.73-7.41-10.27-2.36-13.45-8.5,5.53-2.7,4.16-5.25-12.27-13.27-7.71-15.51,14.79,8.94,18.22,10.18,4.22-6.47,8.68-2.78,1.12,19.82,6.37,21.95c3.9,1.58,2.24-5.8,6.74-3.94C401,389.66,395.55,420.61,393.27,420.65Z" style="fill:#fff"></path></g><path d="M366.2,373s28,27.43,29.58,68.43" style="fill:none;stroke:#263238;stroke-linecap:round;stroke-linejoin:round;stroke-width:0.75px"></path><path d="M365.52,385.73a29.53,29.53,0,0,1,11.73,2.34l0,0" style="fill:none;stroke:#263238;stroke-linecap:round;stroke-linejoin:round;stroke-width:0.75px"></path><path d="M376,371.21s6.29,9.88,5.16,22.08" style="fill:none;stroke:#263238;stroke-linecap:round;stroke-linejoin:round;stroke-width:0.75px"></path><path d="M385.19,400.2a12.4,12.4,0,0,0-11.53-2.88" style="fill:none;stroke:#263238;stroke-linecap:round;stroke-linejoin:round;stroke-width:0.75px"></path><path d="M390.28,411.58a29.36,29.36,0,0,0,2.48-14.83" style="fill:none;stroke:#263238;stroke-linecap:round;stroke-linejoin:round;stroke-width:0.75px"></path><path d="M369,440.78c0,14.23,12.35,25.74,27.58,25.74S424.2,455,424.2,440.78c0-8-8.78-15.18-16.43-19.9h-22.3C377.82,425.6,369,432.77,369,440.78Z" style="fill:#fff;stroke:#263238;stroke-miterlimit:10"></path><line x1="380.02" y1="441.85" x2="375.2" y2="441.85" style="fill:#fff;stroke:#263238;stroke-linecap:round;stroke-linejoin:round"></line><line x1="418.54" y1="441.85" x2="385.27" y2="441.85" style="fill:#fff;stroke:#263238;stroke-linecap:round;stroke-linejoin:round"></line></g><g id="freepik--Icons--inject-4"><line x1="358.48" y1="82.37" x2="358.48" y2="71.83" style="fill:none;stroke:#263238;stroke-linecap:round;stroke-linejoin:round"></line><polyline points="362.37 79.2 358.5 83.07 354.63 79.2" style="fill:none;stroke:#263238;stroke-linecap:round;stroke-linejoin:round"></polyline><line x1="363.3" y1="69.44" x2="353.75" y2="69.44" style="fill:none;stroke:#263238;stroke-linecap:round;stroke-linejoin:round"></line><path d="M355.41,62.9a13.68,13.68,0,0,1,2.95-.33,13.35,13.35,0,1,1-10.45,5" style="fill:none;stroke:#263238;stroke-linecap:round;stroke-linejoin:round"></path><path d="M351,64.81a14.44,14.44,0,0,1,1.76-1" style="fill:none;stroke:#263238;stroke-linecap:round;stroke-linejoin:round"></path><polyline points="135.7 69.85 156.31 69.85 156.31 80.39 124.87 80.39 124.87 69.85 127.3 69.85" style="fill:none;stroke:#263238;stroke-linecap:round;stroke-linejoin:round"></polyline><line x1="130.21" y1="69.85" x2="133.14" y2="69.85" style="fill:none;stroke:#263238;stroke-linecap:round;stroke-linejoin:round"></line><polygon points="146.65 89.75 140.59 95.81 134.52 89.75 137.36 89.75 137.36 83.64 143.81 83.64 143.81 89.75 146.65 89.75" style="fill:none;stroke:#263238;stroke-linecap:round;stroke-linejoin:round"></polygon><polyline points="303.32 378.57 324.63 378.57 309.33 396.11 294.03 378.57 298.52 378.57" style="fill:none;stroke:#263238;stroke-linecap:round;stroke-linejoin:round"></polyline><polyline points="309.33 364.76 319.14 364.76 309.33 376.01 299.52 364.76 304.33 364.76" style="fill:none;stroke:#263238;stroke-linecap:round;stroke-linejoin:round"></polyline></g><g id="freepik--Screen--inject-4"><rect x="42.1" y="105.2" width="414.17" height="233.8" style="fill:#bfbfbf;stroke:#263238;stroke-linecap:round;stroke-linejoin:round"></rect><rect x="46.44" y="109.77" width="405.49" height="224.77" style="fill:#407BFF"></rect><g style="clip-path:url(#freepik--clip-path--inject-4)"><rect x="46.44" y="109.77" width="405.49" height="224.77" style="fill:#fff;stroke:#263238;stroke-miterlimit:10;opacity:0.9"></rect></g><rect x="46.44" y="109.77" width="405.49" height="224.77" style="fill:none;stroke:#263238;stroke-miterlimit:10"></rect><rect x="46.44" y="109.62" width="405.49" height="23.08" style="fill:#407BFF;stroke:#263238;stroke-linecap:round;stroke-linejoin:round"></rect><rect x="319.17" y="114.12" width="49.59" height="14.06" style="opacity:0.2"></rect><rect x="327.51" y="116.98" width="30.88" height="8.74" style="fill:#fff;stroke:#263238;stroke-linecap:round;stroke-linejoin:round"></rect><rect x="73.57" y="116.98" width="61.93" height="8.74" style="fill:#fff;stroke:#263238;stroke-linecap:round;stroke-linejoin:round"></rect><rect x="280.01" y="116.98" width="30.88" height="8.74" style="fill:#fff;stroke:#263238;stroke-linecap:round;stroke-linejoin:round"></rect><rect x="375.01" y="116.98" width="30.88" height="8.74" style="fill:#fff;stroke:#263238;stroke-linecap:round;stroke-linejoin:round"></rect><ellipse cx="105.31" cy="178.96" rx="29.93" ry="29.49" style="fill:#407BFF;stroke:#263238;stroke-linecap:round;stroke-linejoin:round"></ellipse><line x1="76.3" y1="219.76" x2="134.95" y2="219.76" style="fill:#fff;stroke:#263238;stroke-linecap:round;stroke-linejoin:round;stroke-width:2px"></line><rect x="88.08" y="234.35" width="14.91" height="8.28" style="fill:#263238;stroke:#263238;stroke-linecap:round;stroke-linejoin:round"></rect><rect x="88.08" y="250.41" width="29.81" height="8.28" style="fill:#263238;stroke:#263238;stroke-linecap:round;stroke-linejoin:round"></rect><rect x="88.08" y="266.47" width="22.48" height="8.28" style="fill:#263238;stroke:#263238;stroke-linecap:round;stroke-linejoin:round"></rect><rect x="88.08" y="282.53" width="33.08" height="8.28" style="fill:#263238;stroke:#263238;stroke-linecap:round;stroke-linejoin:round"></rect><rect x="150.62" y="145.99" width="285.86" height="174.76" style="fill:#fff;stroke:#263238;stroke-linecap:round;stroke-linejoin:round"></rect></g><g id="freepik--dropdown-menu--inject-4"><rect x="369.42" y="190.99" width="51.63" height="88.26" style="fill:#bfbfbf;stroke:#263238;stroke-linecap:round;stroke-linejoin:round"></rect><line x1="379.59" y1="203.37" x2="410.89" y2="203.37" style="fill:#fff;stroke:#263238;stroke-linecap:round;stroke-linejoin:round;stroke-width:2px"></line><line x1="379.59" y1="232.16" x2="410.89" y2="232.16" style="fill:#fff;stroke:#263238;stroke-linecap:round;stroke-linejoin:round;stroke-width:2px"></line><line x1="379.59" y1="260.94" x2="410.89" y2="260.94" style="fill:#fff;stroke:#263238;stroke-linecap:round;stroke-linejoin:round;stroke-width:2px"></line><rect x="317.79" y="132.34" width="51.63" height="88.26" style="fill:#bfbfbf;stroke:#263238;stroke-linecap:round;stroke-linejoin:round"></rect><rect x="323.26" y="195.6" width="41.23" height="14.06" style="fill:#fff;opacity:0.2"></rect><line x1="328.24" y1="144.99" x2="359.54" y2="144.99" style="fill:#fff;stroke:#263238;stroke-linecap:round;stroke-linejoin:round;stroke-width:2px"></line><line x1="328.24" y1="173.77" x2="359.54" y2="173.77" style="fill:#fff;stroke:#263238;stroke-linecap:round;stroke-linejoin:round;stroke-width:2px"></line><line x1="328.24" y1="202.56" x2="359.54" y2="202.56" style="fill:none;stroke:#407BFF;stroke-linecap:round;stroke-linejoin:round;stroke-width:2px"></line><polygon points="366.3 210.61 362.72 212.82 365.24 216.8 361.97 218.82 359.45 214.84 356.07 216.92 354.78 203.68 366.3 210.61" style="fill:#fff;stroke:#263238;stroke-linecap:round;stroke-linejoin:round"></polygon></g><g id="freepik--Character--inject-4"><path d="M248.56,225.24l3.56-13.4c-10.93-7.54-22.08-18-32.21-27a112.21,112.21,0,0,1-12.38-13.57l-16.89-20.63c-3-3.7-10.41-16.78-18-10.69-5.46,3.74-5.51,17-2.49,25,3.18,8.45,6.9,13.63,13.46,18.82s23.41,22.88,26.22,25.1C221.62,218.25,234.52,222.6,248.56,225.24Z" style="fill:#263238"></path><path d="M248.56,225.24l3.56-13.4c-10.93-7.54-22.08-18-32.21-27a112.21,112.21,0,0,1-12.38-13.57l-16.89-20.63c-3-3.7-10.41-16.78-18-10.69-5.46,3.74-5.51,17-2.49,25,3.18,8.45,6.9,13.63,13.46,18.82s23.41,22.88,26.22,25.1C221.62,218.25,234.52,222.6,248.56,225.24Z" style="fill:none;stroke:#263238;stroke-linecap:round;stroke-linejoin:round;stroke-width:0.920831px"></path><path d="M271.72,154.26l-.29,1.53c0-.12,1.49-1,2.25-.63a6.12,6.12,0,0,1,1.33,1l1.6-2.12-3.22-.7Z" style="fill:#263238;stroke:#263238;stroke-linecap:round;stroke-linejoin:round"></path><path d="M273.39,153.31l-1.67.95a10.53,10.53,0,0,0-.36,2.61c.05.92,1.59,1.57,2.43,1.94,1.36-.57,3.41-2,4.77-2.6,2-2.38,3.48.74,1.64,3.81,0,0-4.93,3.62-8.42,5.65a59,59,0,0,0-7.09,1.46c-1.27-2.22-4.9-7.15-4.9-7.15,1.62-1.14,5.91-9.44,8.16-12.1l6.95-.42c2.06-.14,2.65,1.59,4.5,3.86Z" style="fill:#757575;stroke:#263238;stroke-linecap:round;stroke-linejoin:round"></path><path d="M268.33,147.86l9.79-1.2c4.72.17,8.9.56,11.75,2,.49.25,1.1.34,1.39.8.49.77-.1,1.29-.95,1.63a5.51,5.51,0,0,1-2.93.18c-1.8-.39-8,0-8,0a24.93,24.93,0,0,0-7.68,2.94" style="fill:#757575;stroke:#263238;stroke-linecap:round;stroke-linejoin:round"></path><path d="M279.26,154.61a2.28,2.28,0,0,1-.66,1.41c-1.28.76-2.9,1.75-4.25,2.37a8.52,8.52,0,0,1-2.24-1.34l-.74-.63c.11-.57,1.06-1.19,1.63-1.31,1-.21,2,1,2,1-.67-.76-.4-.46-.4-.46-.2-.1-.33-.25-.53-.35a1.48,1.48,0,0,1,.46-.75,2.74,2.74,0,0,0,1.72-.21c-.82.63-2.13-.47-2.87-1.05Z" style="fill:#757575;stroke:#263238;stroke-linecap:round;stroke-linejoin:round"></path><path d="M266.93,168.72l-7.54-11.85c-14.07,5-30.57,8.29-45.09,11.69-6.48,1.52,6.93,25.65,10.77,24.55C241.12,188.52,254.25,179.69,266.93,168.72Z" style="fill:#263238"></path><g style="clip-path:url(#freepik--clip-path-2--inject-4)"><path d="M214.3,168.56a76.5,76.5,0,0,1-8.23,1.42l15.68,23.83c1.56-.29,2.71-.53,3.32-.7,16.05-4.59,29.18-13.42,41.86-24.39l-7.54-11.85C245.32,161.88,228.82,165.16,214.3,168.56Z" style="stroke:#263238;stroke-linecap:round;stroke-linejoin:round;opacity:0.4"></path></g><path d="M266.93,168.72l-7.54-11.85c-14.07,5-30.57,8.29-45.09,11.69-6.48,1.52,6.93,25.65,10.77,24.55C241.12,188.52,254.25,179.69,266.93,168.72Z" style="fill:none;stroke:#263238;stroke-linecap:round;stroke-linejoin:round"></path><path d="M164.07,466.13l11.12.31.62,0H186c3.74,0,3.27-2.72,3.7-6.42.52-4.51-1.91-9.18-1.91-9.18H170.65a17.73,17.73,0,0,0-1.54,3.14C159.9,460.57,164.07,466.13,164.07,466.13Z" style="fill:#263238;stroke:#263238;stroke-linecap:round;stroke-linejoin:round"></path><path d="M247.63,466.13l-10.5.3h0l-1.22,0h-9.42c-4.43,0-4.63-3.56-4.54-8a18.91,18.91,0,0,1,2.09-7.63h17.91a17.7,17.7,0,0,1,1.76,3.51C252.83,463.1,247.63,466.13,247.63,466.13Z" style="fill:#263238;stroke:#263238;stroke-linecap:round;stroke-linejoin:round"></path><path d="M237.11,466.43l-.73,0h-.49Z" style="fill:#263238;stroke:#263238;stroke-linecap:round;stroke-linejoin:round"></path><path d="M259.8,277.61s-5.22,93-8.24,109.26c-.92,5-5.34,39.77-6,47.14,0,0,1.36,6.59.09,12l-1.25,2.87c-2.13,4.45-20.88,4.66-21.51,3.45s-3.07-1.49-.22-18.4c.31-1.88.81-21.78,1.61-48.45.26-8.75,1.48-15.61.49-37.65,0-1-4.93-58.12-5-59.1l-1,.39c-.12,1.12-.22,2.19-.33,3.21a90.94,90.94,0,0,1-2.65,14.56l-18,67,0,12.18c.28,14.83-1,32.45-5.1,46.73l.4,3.72c.75,7,2.36,15.08-5.48,16.43l-16,.77c-2.66,0-5.68-.27-5.51-2.91L167.63,440c3.28-12.49,2.15-52.43,2.71-65.33L177,278.52l3.9-28.5,76.22-1.56Z" style="fill:#407BFF"></path><g style="clip-path:url(#freepik--clip-path-3--inject-4)"><path d="M218.58,264.42c-12.37,1-25.29-1.26-39.63-6a2,2,0,0,1-.55-.37s29.35,1.85,79.58-5.48c0,0-5.84,1.41-17.73,6.48a68.86,68.86,0,0,1-21.67,5.37" style="opacity:0.2"></path><path d="M191.72,289.19c3.38,5.92,12.8,5.91,16.27,11.77,3.31,5.58,5,15.51,2.59,25.38l3.06-11.43c3.51-6,2.69-10.07,4-16.77.2-1,.75-7.66,1.09-9,0,0-9,2.33-9.75,2.36C201.57,291.78,198.56,290.89,191.72,289.19Z" style="opacity:0.2"></path><path d="M226.13,345.87c.26,3.24.75,6.59,2.56,9.28s5.32,4.49,8.37,3.41c1.48-.53,2.72-1.66,4.33-1.78a2.31,2.31,0,0,1,2.34,1.23,2,2,0,0,1-.48,2.1c-1.21,1.6-2.94,2.81-3.88,4.58s-.58,4.52,1.36,5.06c-1.94-.06-4.6.56-4.47,2.49.13,2.2,4,3,3.65,5.13a35.17,35.17,0,0,0-7.37,17.22c-1.83,13.52,4.51,26.52,2.33,39.63a4.31,4.31,0,0,0,2.89,4.9,3.34,3.34,0,0,0,.43.1,36.66,36.66,0,0,1-11.39,1.84c-1.68,1.94,8.36,11.73,8.35,10.56,0-.14-4.56,2.17-4.7,2.15-5.68-.93-7.74,1.58-12.08-4a9.49,9.49,0,0,1-1.83-4.17c-8.94-51.24,5.73-113.21,3.75-156,.08.4,12,4.63,20.62.69,2.39-1.08-6.76,8.19-9.95,18.42C227.2,320.67,225.09,333.3,226.13,345.87Z" style="opacity:0.2"></path><path d="M194.86,360.38a8,8,0,0,1-3.31,3.13c-2.55,1-12.57-11.5-15.16-12.39,3.21,9.95,9.25,14.05,12.36,19.26a3.66,3.66,0,0,1,.74,2.45c-.57,3-10.89.31-11.8,3.23,2.26,2.1,10.25,3.36,12.84,1.69,2.38,21.66-2.89,45.39-15.4,63.24,3.06,1.34,6.38-.54,8.88-2.76.07,5-3.7,12.63-7.57,15.54,4.62,1,13.3-.61,16.32-4.25,4-4.84.91-12.07,1.29-18.34.19-3.19,1.34-6.23,2.29-9.27a80.58,80.58,0,0,0,2.82-35.75c-.6-4.06-1.51-8.14-1.21-12.24s1.86-8.21,3.3-12.17c1.16-3.2,10.5-26.41,6.9-26.36C208.15,335.39,197.19,357,194.86,360.38Z" style="opacity:0.2"></path></g><path d="M259.8,277.61s-5.22,93-8.24,109.26c-.92,5-5.34,39.77-6,47.14,0,0,1.36,6.59.09,12l-1.25,2.87c-2.13,4.45-20.88,4.66-21.51,3.45s-3.07-1.49-.22-18.4c.31-1.88.81-21.78,1.61-48.45.26-8.75,1.48-15.61.49-37.65,0-1-4.93-58.12-5-59.1l-1,.39c-.12,1.12-.22,2.19-.33,3.21a90.94,90.94,0,0,1-2.65,14.56l-18,67,0,12.18c.28,14.83-1,32.45-5.1,46.73l.4,3.72c.75,7,2.36,15.08-5.48,16.43l-16,.77c-2.66,0-5.68-.27-5.51-2.91L167.63,440c3.28-12.49,2.15-52.43,2.71-65.33L177,278.52l3.9-28.5,76.22-1.56Z" style="fill:none;stroke:#263238;stroke-linecap:round;stroke-linejoin:round"></path><path d="M208.14,129.78l7.05-17.5-2.38-15.42L215.19,80l14.62-5.51,12.08-.1,4.3,3.67,1.16,5.11s3.83,13.49,2.5,15.73-2.41,4.41-2.41,4.41,2.9,6.63,3,9.29c.14,3.18-3.64.23-4.87,3.84s-2.24,12-6.74,11.73-6.91-.59-8,3.22-3.82,14.2-3.82,14.2Z" style="fill:#757575"></path><g style="clip-path:url(#freepik--clip-path-4--inject-4)"><path d="M226.48,90.45c-.24,3.85,1.32,7-1.15,14,0,0-1.83-4.53-4.17-4.58A2.87,2.87,0,0,0,218,103c0,1.93.81,4.33,2.53,5.27,0,0-1.94,4.56-2.37,6.3-1.14,0-3-2.27-3-2.27L213,97.85A65,65,0,0,1,226.48,90.45Z" style="opacity:0.30000000000000004"></path></g><path d="M208.14,129.78l7.05-17.5-2.38-15.42L215.19,80l14.62-5.51,12.08-.1,4.3,3.67,1.16,5.11s3.83,13.49,2.5,15.73-2.41,4.41-2.41,4.41,2.9,6.63,3,9.29c.14,3.18-3.64.23-4.87,3.84s-2.24,12-6.74,11.73-6.91-.59-8,3.22-3.82,14.2-3.82,14.2Z" style="fill:none;stroke:#263238;stroke-linecap:round;stroke-linejoin:round"></path><path d="M243.82,102.09c-.13.92-.69,1.61-1.25,1.53s-.92-.89-.78-1.81.69-1.61,1.25-1.53S244,101.17,243.82,102.09Z" style="fill:#263238"></path><path d="M239.58,97.85s3.08-4.3,7-.9" style="fill:none;stroke:#263238;stroke-linecap:round;stroke-linejoin:round"></path><path d="M241.09,117.11a6.44,6.44,0,0,1-5.11-3.5" style="fill:none;stroke:#263238;stroke-linecap:round;stroke-linejoin:round"></path><path d="M237.54,128s-9.56-4.78-12-8l5.35,11.36S231.5,126.09,237.54,128Z" style="fill:#263238;stroke:#263238;stroke-linecap:round;stroke-linejoin:round"></path><path d="M203.37,131.55s5.39-.19,13.93.18a191,191,0,0,1,19.52,2.17s-2.22-7-8.37-7.51-20.44-.54-20.44-.54Z" style="fill:#fff;stroke:#263238;stroke-linecap:round;stroke-linejoin:round"></path><path d="M257,189.61l-.5,3.75a137.85,137.85,0,0,0,1.67,46.46l2.55,12.32s-22,4.91-36.33,6.55c-32.8,3.76-49.23-1.36-49.23-1.36a77.2,77.2,0,0,1,1.55-17.82c8.8-41.8-7.53-93-3.25-99.52,3.19-4.89,29.82-8.58,29.82-8.58s24.54-.69,33.51,2.43l1.1.69c11.94,4.08,21.41,8.47,26.56,12.14l-1.89,4.71C262.49,153.69,257,189.61,257,189.61Z" style="fill:#263238"></path><g style="clip-path:url(#freepik--clip-path-5--inject-4)"><path d="M171.41,202.7s3.93,13.15-.14,22.31l6.51,2s1.48-11.06.57-20Z" style="fill:#407BFF"></path><path d="M171.41,202.7s3.93,13.15-.14,22.31l6.51,2s1.48-11.06.57-20Z" style="fill:#fff;opacity:0.6000000000000001"></path><g style="opacity:0.2"><path d="M200.49,207c1.23,2.57,2.48,5.26,2.43,8.11-.13,6.41-6.52,10.7-12.18,13.86a93.15,93.15,0,0,1,39.19-4.24c-3.37-.36-9.35-6.87-11.9-9a147.52,147.52,0,0,1-11.54-10.82,132.73,132.73,0,0,1-18.2-23.45C192.28,190,196.42,198.48,200.49,207Z"></path></g><g style="opacity:0.2"><path d="M227.81,213.31A19.75,19.75,0,0,0,245,208.36c-2.92-1.85-6.73-.66-10.18-.24a21.24,21.24,0,0,1-11.51-1.93c-1.5-.72-7.19-6.19-8.71-5.13C210.05,204.19,225.64,212.88,227.81,213.31Z"></path></g><g style="opacity:0.2"><path d="M239,234.65c-2.64.15-7-2.44-9.79-3a54.59,54.59,0,0,0-10.67-1,76,76,0,0,0-23.16,4.32c2.55,4,16.62,1.23,20.81,1Z"></path></g></g><path d="M257,189.61l-.5,3.75a137.85,137.85,0,0,0,1.67,46.46l2.55,12.32s-22,4.91-36.33,6.55c-32.8,3.76-49.23-1.36-49.23-1.36a77.2,77.2,0,0,1,1.55-17.82c8.8-41.8-7.53-93-3.25-99.52,3.19-4.89,29.82-8.58,29.82-8.58s24.54-.69,33.51,2.43l1.1.69c11.94,4.08,21.41,8.47,26.56,12.14l-1.89,4.71C262.49,153.69,257,189.61,257,189.61Z" style="fill:none;stroke:#263238;stroke-linecap:round;stroke-linejoin:round"></path><path d="M185.24,175.74A112.71,112.71,0,0,0,228,224" style="fill:none;stroke:#757575;stroke-linecap:round;stroke-linejoin:round"></path><path d="M183.51,171.81c.34.84.35.84.71,1.66" style="fill:none;stroke:#757575;stroke-linecap:round;stroke-linejoin:round"></path><path d="M181,165c.45,1.34.93,2.67,1.44,4" style="fill:none;stroke:#757575;stroke-linecap:round;stroke-linejoin:round"></path><path d="M216,208a23.89,23.89,0,0,0,11.2,6.74c6.25,1.54,13.73-.75,16.73-6.37" style="fill:none;stroke:#757575;stroke-linecap:round;stroke-linejoin:round"></path><path d="M212.17,203.45c.62.87,1.27,1.72,2,2.55" style="fill:none;stroke:#757575;stroke-linecap:round;stroke-linejoin:round"></path><path d="M192.71,235.89a70.89,70.89,0,0,1,48.53-.76" style="fill:none;stroke:#757575;stroke-linecap:round;stroke-linejoin:round"></path><path d="M207.34,226.47a29.66,29.66,0,0,1,17.08,0" style="fill:none;stroke:#757575;stroke-linecap:round;stroke-linejoin:round"></path><path d="M227,136.73a86,86,0,0,1,26.49,4.32" style="fill:none;stroke:#263238;stroke-linecap:round;stroke-linejoin:round"></path><path d="M218,103a14.24,14.24,0,0,0,1.76,4.41c1.51,2,3,2.27,4.54,1.9" style="fill:none;stroke:#263238;stroke-linecap:round;stroke-linejoin:round"></path><path d="M248.15,83.47a5.06,5.06,0,0,1,4.1,5.89,4,4,0,0,0,1.07-5C252.47,82.81,249.86,82.83,248.15,83.47Z" style="fill:#263238;stroke:#263238;stroke-linecap:round;stroke-linejoin:round"></path><path d="M247.29,79.44a23.55,23.55,0,0,0-4.69-6.36c-6.62-6.49-25,1.3-29.2,5.44-4.42,4.31-3.62,20.38-1.68,20,5.17-1,15-1.79,15-1.79,3.48-.82-.6-9,2.56-10.64,13.17-6.87,17.44-.63,18.22-2.23S248.84,80.34,247.29,79.44Z" style="fill:#263238;stroke:#263238;stroke-linecap:round;stroke-linejoin:round"></path><path d="M207.77,98.21c-2.26,1.57-5.58.82-7.84,2.39-1.73,1.2-2.35,3.41-2.67,5.47a34.88,34.88,0,0,0,.69,14,40.43,40.43,0,0,0,10.34-9.82C210.84,106.68,210.07,101.92,207.77,98.21Z" style="fill:#263238;stroke:#263238;stroke-linecap:round;stroke-linejoin:round"></path><path d="M210.82,96.19a3.88,3.88,0,0,0-1.25,7.41,2.72,2.72,0,0,0,3.14-.48,3.78,3.78,0,0,0,.64-2.11c.17-1.75-.1-4.12-1.86-4.41" style="fill:#407BFF;stroke:#263238;stroke-linecap:round;stroke-linejoin:round"></path><path d="M317.5,157.29c1.77-1.18,4.34-1.65,5.35-3.51q2-3.59,3.92-7.18a17.16,17.16,0,0,0-4.85-8.9c2.57-4.64,3.67-6.8,6.25-11.44,0-1.76-.88-2.3-2.13-1.63-3,4.26-5.31,7.11-8.31,11.37a11.66,11.66,0,0,0-5.76-.71,16.39,16.39,0,0,0-4.18,7.11,15.65,15.65,0,0,0,.74,10.55A9.79,9.79,0,0,1,317.5,157.29Z" style="fill:#757575;stroke:#263238;stroke-linecap:round;stroke-linejoin:round"></path><path d="M255.88,174.81a11.1,11.1,0,0,0,3.76,9.69c5.47,4.76,24.33,17.09,28.45,17.56a14.69,14.69,0,0,0,4.81-.27c5.65-1.2,24.9-43.84,24.9-43.84-1-2.7-5.32-4.92-8.25-5s-4.48.85-6.23,3.17c-.13.18-15.49,20-15.49,20-2.39,0-12.38-12.47-13.2-14.69-2.42-6.59-6.51-12.65-10.15-14.77C264.48,146.67,259.1,147.41,255.88,174.81Z" style="fill:#263238;stroke:#263238;stroke-linecap:round;stroke-linejoin:round"></path><path d="M289.11,177.69s5.45,3.63,7.35,6.16" style="fill:none;stroke:#757575;stroke-linecap:round;stroke-linejoin:round"></path><path d="M289.18,180a8.17,8.17,0,0,1,2,5.81" style="fill:none;stroke:#757575;stroke-linecap:round;stroke-linejoin:round"></path><path d="M274.09,160.08a22.1,22.1,0,0,1,1.62,11.13" style="fill:none;stroke:#757575;stroke-linecap:round;stroke-linejoin:round"></path><path d="M243.63,364.76a26.51,26.51,0,0,1-12.17,3.61,22.34,22.34,0,0,1,11.41,2.12" style="fill:none;stroke:#263238;stroke-linecap:round;stroke-linejoin:round"></path><path d="M230.45,374.76a117.69,117.69,0,0,1,12.73,2.87" style="fill:none;stroke:#263238;stroke-linecap:round;stroke-linejoin:round"></path><path d="M250.75,284.43c-8.61,7.5-20.59,9.84-31,4.32-10.21,4.35-25.05,3.85-34-2.74" style="fill:none;stroke:#263238;stroke-linecap:round;stroke-linejoin:round"></path><path d="M254.84,280.16c-.66.82-1.35,1.61-2.07,2.35" style="fill:none;stroke:#263238;stroke-linecap:round;stroke-linejoin:round"></path><line x1="233.57" y1="264.94" x2="225.31" y2="264.94" style="fill:none;stroke:#263238;stroke-linecap:round;stroke-linejoin:round"></line><line x1="239.87" y1="264.94" x2="236.19" y2="264.94" style="fill:none;stroke:#263238;stroke-linecap:round;stroke-linejoin:round"></line><line x1="251.35" y1="264.94" x2="242.13" y2="264.94" style="fill:none;stroke:#263238;stroke-linecap:round;stroke-linejoin:round"></line><line x1="194.09" y1="264.94" x2="213.15" y2="264.94" style="fill:none;stroke:#263238;stroke-linecap:round;stroke-linejoin:round"></line><line x1="187.11" y1="264.94" x2="190.39" y2="264.94" style="fill:none;stroke:#263238;stroke-linecap:round;stroke-linejoin:round"></line><path d="M172.09,440.41a15.43,15.43,0,0,0,16.44-5.27" style="fill:none;stroke:#263238;stroke-linecap:round;stroke-linejoin:round"></path><path d="M226.47,440.56a14.1,14.1,0,0,0,13.23-2.73" style="fill:#407BFF;stroke:#263238;stroke-linecap:round;stroke-linejoin:round"></path><path d="M194.09,374.91h-.44c-3.65,4.26-11.42,4.47-16,1.15l9.43-2" style="fill:none;stroke:#263238;stroke-linecap:round;stroke-linejoin:round"></path><path d="M179.6,357.9a35.55,35.55,0,0,0,13.52,13.71" style="fill:none;stroke:#263238;stroke-linecap:round;stroke-linejoin:round"></path><path d="M176.39,349.86a32.82,32.82,0,0,0,1.29,4" style="fill:none;stroke:#263238;stroke-linecap:round;stroke-linejoin:round"></path><path d="M266,149h0a2.65,2.65,0,0,0-2.29,1.5c-4.12,6.8-6.14,16.51-5.11,29.19" style="fill:none;stroke:#757575;stroke-linecap:round;stroke-linejoin:round"></path><path d="M178.85,137.41c-5.34,6-5.34,19.88-2.56,35.23" style="fill:none;stroke:#757575;stroke-linecap:round;stroke-linejoin:round"></path><line x1="218.9" y1="267.66" x2="219.46" y2="284.14" style="fill:none;stroke:#263238;stroke-linecap:round;stroke-linejoin:round"></line><line x1="218.69" y1="261.36" x2="218.81" y2="264.94" style="fill:none;stroke:#263238;stroke-linecap:round;stroke-linejoin:round"></line></g><g id="freepik--Floor--inject-4"><line x1="459.7" y1="466.46" x2="39.48" y2="466.46" style="fill:#bfbfbf;stroke:#263238;stroke-linecap:round;stroke-linejoin:round"></line></g></svg>