<svg xmlns="http://www.w3.org/2000/svg" xmlns:xlink="http://www.w3.org/1999/xlink" viewBox="0 0 500 500"><defs><clipPath id="freepik--clip-path--inject-2"><rect x="69.07" y="49.14" width="316.68" height="182.01" style="fill:#FF725E;stroke:#263238;stroke-linecap:round;stroke-linejoin:round"></rect></clipPath><clipPath id="freepik--clip-path-2--inject-2"><rect x="88.57" y="54.01" width="27.54" height="8.68" style="fill:#FF725E;stroke:#263238;stroke-linecap:round;stroke-linejoin:round"></rect></clipPath><clipPath id="freepik--clip-path-3--inject-2"><rect x="351.57" y="54.01" width="8.68" height="8.68" style="fill:#FF725E;stroke:#263238;stroke-linecap:round;stroke-linejoin:round"></rect></clipPath><clipPath id="freepik--clip-path-4--inject-2"><rect x="362.27" y="54.01" width="8.68" height="8.68" style="fill:#FF725E;stroke:#263238;stroke-linecap:round;stroke-linejoin:round"></rect></clipPath><clipPath id="freepik--clip-path-5--inject-2"><rect x="176.91" y="332.53" width="11.86" height="90.23" transform="translate(365.68 755.29) rotate(180)" style="fill:#fff;stroke:#263238;stroke-linecap:round;stroke-linejoin:round"></rect></clipPath><clipPath id="freepik--clip-path-6--inject-2"><path d="M149.69,412.21H216a8.73,8.73,0,0,1,8.73,8.73v1.82H141v-1.82A8.73,8.73,0,0,1,149.69,412.21Z" style="fill:#fff;stroke:#263238;stroke-linecap:round;stroke-linejoin:round"></path></clipPath><clipPath id="freepik--clip-path-7--inject-2"><rect x="141.44" y="287.41" width="11.86" height="31.75" transform="translate(294.74 606.58) rotate(180)" style="fill:#fff;stroke:#263238;stroke-linecap:round;stroke-linejoin:round"></rect></clipPath><clipPath id="freepik--clip-path-8--inject-2"><path d="M136.59,324.65a371.76,371.76,0,0,0,92.49,0,4.63,4.63,0,0,0,4-5.21l-.75-4.78a4.63,4.63,0,0,0-5.24-3.82,360.47,360.47,0,0,1-88.56,0,4.63,4.63,0,0,0-5.24,3.82l-.75,4.78A4.63,4.63,0,0,0,136.59,324.65Z" style="fill:#263238;stroke:#263238;stroke-linecap:round;stroke-linejoin:round"></path></clipPath><clipPath id="freepik--clip-path-9--inject-2"><path d="M136.87,295.93,164.16,292c6.93-1,11.51-7.12,10.43-13.49A209.12,209.12,0,0,1,172.07,230a12,12,0,0,0-10.54-12.47l-22.69-3.25c-6.52-.93-12.89,4-14,11.19a246,246,0,0,0-2.11,58.2C123.36,291.33,130,296.91,136.87,295.93Z" style="fill:#263238;stroke:#263238;stroke-linecap:round;stroke-linejoin:round"></path></clipPath><clipPath id="freepik--clip-path-10--inject-2"><path d="M248.43,388.39c1.72,1.49,2.41,4.55,2.41,4.55s8.86,4.6,9,.8c.11-2.57,2.65-3.66,4.27-4.1l13.39,13.5s8.53,4.16,9.25,7.9-3.34,6.57-13.46,3.74-11.51-6.25-15.32-7.91-14.33-2.84-13.87-7.77C244.46,395.61,247,390.87,248.43,388.39Z" style="fill:#FF725E;stroke:#263238;stroke-linecap:round;stroke-linejoin:round"></path></clipPath><clipPath id="freepik--clip-path-11--inject-2"><path d="M178.32,286.36s75-5,78.38,5.56,5,44.48,5.2,57.93-.9,30.49-.9,30.49a23.92,23.92,0,0,1-13.81,0s-3.29-19.55-5.68-29.06-4.9-22.17-3.46-42.2c0,0-71.83,10.82-72.24-1.74S178.32,286.36,178.32,286.36Z" style="fill:#fff;stroke:#263238;stroke-linecap:round;stroke-linejoin:round"></path></clipPath><clipPath id="freepik--clip-path-12--inject-2"><path d="M178.32,286.36s75-5,78.38,5.56,5,44.48,5.2,57.93-.9,30.49-.9,30.49a23.92,23.92,0,0,1-13.81,0s-3.29-19.55-5.68-29.06-4.9-22.17-3.46-42.2c0,0-71.83,10.82-72.24-1.74S178.32,286.36,178.32,286.36Z" style="opacity:0.5"></path></clipPath><clipPath id="freepik--clip-path-13--inject-2"><path d="M262.74,376.05l-.51,5.07s-8.58,4.6-16.12.34l-1.58-5S249.64,380,262.74,376.05Z" style="fill:#fff;stroke:#263238;stroke-linecap:round;stroke-linejoin:round"></path></clipPath><clipPath id="freepik--clip-path-14--inject-2"><path d="M173.52,388.1c-.77-4.08-5.12-12.6-.77-15a39.75,39.75,0,0,1,9-3.17,8.65,8.65,0,0,1-1.39,3.17s-.17,3.07,1,4.43,4.26-1.7,8.69,0c2.05.79,2.82,1.79,3.06,2.64L193,382h0l-1.71,20.2s3.91,11.36,1.21,14.06-13.57-1-16.89-11S174.28,392.19,173.52,388.1Z" style="fill:#FF725E;stroke:#263238;stroke-linecap:round;stroke-linejoin:round"></path></clipPath><clipPath id="freepik--clip-path-15--inject-2"><path d="M152.5,289.18s-10.63,21.26,2.95,23.14,55.16-.54,55.16-.54a210.54,210.54,0,0,0-13.81,26.05C191.42,350.57,186,363.66,186,363.66s2.34,6.28,11.84,7.53c0,0,7.71-12,24.57-30.85s21.53-37.66,17.94-44.12-22.24-10-52.37-11.34Z" style="fill:#fff;stroke:#263238;stroke-linecap:round;stroke-linejoin:round"></path></clipPath><clipPath id="freepik--clip-path-16--inject-2"><path d="M152.5,289.18s-10.63,21.26,2.95,23.14,55.16-.54,55.16-.54a210.54,210.54,0,0,0-13.81,26.05C191.42,350.57,186,363.66,186,363.66s2.34,6.28,11.84,7.53c0,0,7.71-12,24.57-30.85s21.53-37.66,17.94-44.12-22.24-10-52.37-11.34Z" style="opacity:0.5"></path></clipPath><clipPath id="freepik--clip-path-17--inject-2"><path d="M201.1,369.4l-3.23,3.94s-9.68-.89-13.63-8.6l1.44-5S188,365.45,201.1,369.4Z" style="fill:#fff;stroke:#263238;stroke-linecap:round;stroke-linejoin:round"></path></clipPath><clipPath id="freepik--clip-path-18--inject-2"><path d="M214.72,270.44s-5.63-3.65-10.95,2.2l-3.32-3.9s4-3.54,8.39-3.66,5.88,1.46,5.88,1.46Z" style="fill:#FF725E;stroke:#263238;stroke-linecap:round;stroke-linejoin:round"></path></clipPath><clipPath id="freepik--clip-path-19--inject-2"><path d="M202.4,250.68c-.25-11.71,2.93-26.11-3.42-33.92,0,0,.25-12.2-9.27-16.84s-33.19-6.83-39.29-1.95c-5.13,4.11,1.94,45,3,75.45.19,5.75-1.74,11.13-2,15.81,0,0,1.95,3.66,11.71,0s37.82-4.75,37.82-4.75S202.64,262.39,202.4,250.68Z" style="fill:#FF725E;stroke:#263238;stroke-linecap:round;stroke-linejoin:round"></path></clipPath><clipPath id="freepik--clip-path-20--inject-2"><path d="M188,199.17c1.54,3,3.84,8.18,3,10.19-1.3,2.93-4.56-3.58-6.35-3.26s-3.25,4.45-6.67,4c-3.15-.4-7.83-9.86-15.06-14.89C171.32,195.07,181.68,196.68,188,199.17Z" style="fill:#FF725E;stroke:#263238;stroke-linecap:round;stroke-linejoin:round"></path></clipPath><clipPath id="freepik--clip-path-21--inject-2"><path d="M191.54,278.33s4.66,2.16,6.18,2.93c.49.25,2.73,1.1,1.1,1.87-1.4.66-5.82-1.58-5.82-1.58l-4.27-.86Z" style="fill:#fff;stroke:#263238;stroke-linecap:round;stroke-linejoin:round"></path></clipPath><clipPath id="freepik--clip-path-22--inject-2"><path d="M175.75,267s-4.88,1.59-7.93,8.91l-4.51-1.35s.85-6.58,9.51-11.34Z" style="fill:#FF725E;stroke:#263238;stroke-linecap:round;stroke-linejoin:round"></path></clipPath><clipPath id="freepik--clip-path-23--inject-2"><path d="M185.06,199.14c1.14,1.39,4.24,5.83-2.75,5.66s-17.57-9.58-17.57-9.58,4.23-1.64,7-8.15c1.21-2.84,3.91-11.71,3.91-11.71l10.7,11.55L183,196.18S184.6,198.58,185.06,199.14Z" style="fill:#fff;stroke:#263238;stroke-linecap:round;stroke-linejoin:round"></path></clipPath><clipPath id="freepik--clip-path-24--inject-2"><path d="M210.74,285.82h37.34a3.66,3.66,0,0,0,3.19-1.88l19.15-34.58a1.42,1.42,0,0,0-1.24-2.1H231.39a4.31,4.31,0,0,0-3.74,2.2L209.08,283A1.9,1.9,0,0,0,210.74,285.82Z" style="fill:#fff;stroke:#263238;stroke-linecap:round;stroke-linejoin:round"></path></clipPath><clipPath id="freepik--clip-path-25--inject-2"><path d="M178.24,285.82h28.12a1.16,1.16,0,0,0,1.16-1.16v-1.53h-32A2.68,2.68,0,0,0,178.24,285.82Z" style="fill:#fff;stroke:#263238;stroke-linecap:round;stroke-linejoin:round"></path></clipPath></defs><g id="freepik--background-simple--inject-2"><path d="M48.77,385.44H411.24V149.94c-12.84-25.65-48.52-86.43-98.15-86.43-62.9,0-35.66,125.84-85.68,125.84S83.89,179.27,83.89,224.42s84.46,92.21,57.94,118.73C117.82,367.15,59.6,354.28,48.77,385.44Z" style="fill:#FF725E"></path><path d="M48.77,385.44H411.24V149.94c-12.84-25.65-48.52-86.43-98.15-86.43-62.9,0-35.66,125.84-85.68,125.84S83.89,179.27,83.89,224.42s84.46,92.21,57.94,118.73C117.82,367.15,59.6,354.28,48.77,385.44Z" style="fill:#fff;opacity:0.7000000000000001"></path></g><g id="freepik--Shadow--inject-2"><path d="M411.24,385.45H48.77s-29.95,5.2-28.5,21.67,55.67-1.79,64.35,24.32,81,31.91,142.79,10.94S311.64,459,343.46,459s32-33.44,63-27.57,44.84-5.93,32.77-18Z" style="fill:#FF725E"></path></g><g id="freepik--Floor--inject-2"><line x1="31.32" y1="385.45" x2="406.45" y2="385.45" style="fill:none;stroke:#263238;stroke-linecap:round;stroke-linejoin:round"></line></g><g id="freepik--Wall--inject-2"><line x1="426.48" y1="299.17" x2="444.42" y2="317.1" style="fill:none;stroke:#263238;stroke-linecap:round;stroke-linejoin:round"></line><line x1="472.84" y1="345.53" x2="454.99" y2="327.67" style="fill:none;stroke:#263238;stroke-linecap:round;stroke-linejoin:round"></line><line x1="444.42" y1="325.5" x2="426.48" y2="307.57" style="fill:none;stroke:#263238;stroke-linecap:round;stroke-linejoin:round"></line><line x1="472.84" y1="353.92" x2="454.99" y2="336.07" style="fill:none;stroke:#263238;stroke-linecap:round;stroke-linejoin:round"></line><line x1="444.66" y1="98.45" x2="427.67" y2="92.5" style="fill:none;stroke:#263238;stroke-linecap:round;stroke-linejoin:round"></line><line x1="472.84" y1="108.34" x2="453.97" y2="101.72" style="fill:none;stroke:#263238;stroke-linecap:round;stroke-linejoin:round"></line><line x1="444.73" y1="105.09" x2="427.67" y2="99.11" style="fill:none;stroke:#263238;stroke-linecap:round;stroke-linejoin:round"></line><line x1="472.84" y1="114.95" x2="453.98" y2="108.33" style="fill:none;stroke:#263238;stroke-linecap:round;stroke-linejoin:round"></line><line x1="445.76" y1="213.09" x2="426.48" y2="202.13" style="fill:none;stroke:#263238;stroke-linecap:round;stroke-linejoin:round"></line><line x1="472.84" y1="228.47" x2="453.06" y2="217.23" style="fill:none;stroke:#263238;stroke-linecap:round;stroke-linejoin:round"></line><line x1="445.76" y1="220.08" x2="426.48" y2="209.12" style="fill:none;stroke:#263238;stroke-linecap:round;stroke-linejoin:round"></line><line x1="472.84" y1="235.46" x2="453" y2="224.19" style="fill:none;stroke:#263238;stroke-linecap:round;stroke-linejoin:round"></line><line x1="424.55" y1="79.32" x2="424.55" y2="58.81" style="fill:none;stroke:#263238;stroke-linecap:round;stroke-linejoin:round"></line><line x1="424.55" y1="164.42" x2="424.55" y2="82.94" style="fill:none;stroke:#263238;stroke-linecap:round;stroke-linejoin:round"></line><line x1="424.55" y1="197.9" x2="424.55" y2="168.35" style="fill:none;stroke:#263238;stroke-linecap:round;stroke-linejoin:round"></line><line x1="424.55" y1="305.77" x2="424.55" y2="203.33" style="fill:none;stroke:#263238;stroke-linecap:round;stroke-linejoin:round"></line><line x1="424.55" y1="368.44" x2="424.55" y2="311.23" style="fill:none;stroke:#263238;stroke-linecap:round;stroke-linejoin:round"></line><line x1="457.08" y1="404.67" x2="424.55" y2="372.14" style="fill:none;stroke:#263238;stroke-linecap:round;stroke-linejoin:round"></line><line x1="481.37" y1="428.96" x2="461.96" y2="409.55" style="fill:none;stroke:#263238;stroke-linecap:round;stroke-linejoin:round"></line><line x1="446.45" y1="328.68" x2="446.45" y2="385.44" style="fill:none;stroke:#263238;stroke-linecap:round;stroke-linejoin:round"></line><line x1="446.45" y1="222.57" x2="446.45" y2="315.48" style="fill:none;stroke:#263238;stroke-linecap:round;stroke-linejoin:round"></line><line x1="446.45" y1="107.07" x2="446.45" y2="210.91" style="fill:none;stroke:#263238;stroke-linecap:round;stroke-linejoin:round"></line><line x1="446.45" y1="58.81" x2="446.45" y2="97.13" style="fill:none;stroke:#263238;stroke-linecap:round;stroke-linejoin:round"></line><line x1="452.99" y1="336.07" x2="452.99" y2="393.03" style="fill:none;stroke:#263238;stroke-linecap:round;stroke-linejoin:round"></line><line x1="452.99" y1="226.91" x2="452.99" y2="325.5" style="fill:none;stroke:#263238;stroke-linecap:round;stroke-linejoin:round"></line><line x1="452.99" y1="109.78" x2="452.99" y2="214.44" style="fill:none;stroke:#263238;stroke-linecap:round;stroke-linejoin:round"></line><line x1="452.99" y1="58.81" x2="452.99" y2="99.84" style="fill:none;stroke:#263238;stroke-linecap:round;stroke-linejoin:round"></line><line x1="476.43" y1="366.72" x2="476.43" y2="413.42" style="fill:none;stroke:#263238;stroke-linecap:round;stroke-linejoin:round"></line><line x1="476.43" y1="259.45" x2="476.43" y2="362.84" style="fill:none;stroke:#263238;stroke-linecap:round;stroke-linejoin:round"></line><line x1="476.43" y1="124.6" x2="476.43" y2="254.55" style="fill:none;stroke:#263238;stroke-linecap:round;stroke-linejoin:round"></line><line x1="476.43" y1="58.81" x2="476.43" y2="119.18" style="fill:none;stroke:#263238;stroke-linecap:round;stroke-linejoin:round"></line><line x1="434.36" y1="321.99" x2="434.36" y2="372.02" style="fill:none;stroke:#263238;stroke-linecap:round;stroke-linejoin:round"></line><line x1="434.36" y1="220.08" x2="434.36" y2="301.38" style="fill:none;stroke:#263238;stroke-linecap:round;stroke-linejoin:round"></line><line x1="434.36" y1="107.07" x2="434.36" y2="202.13" style="fill:none;stroke:#263238;stroke-linecap:round;stroke-linejoin:round"></line><line x1="434.36" y1="58.81" x2="434.36" y2="88.82" style="fill:none;stroke:#263238;stroke-linecap:round;stroke-linejoin:round"></line><polyline points="480.28 454.49 411.24 385.45 411.24 58.81" style="fill:none;stroke:#263238;stroke-linecap:round;stroke-linejoin:round"></polyline></g><g id="freepik--Page--inject-2"><rect x="69.07" y="49.14" width="316.68" height="182.01" style="fill:#FF725E"></rect><g style="clip-path:url(#freepik--clip-path--inject-2)"><rect x="69.07" y="49.14" width="316.68" height="182.01" style="fill:#fff;opacity:0.6000000000000001"></rect></g><rect x="69.07" y="49.14" width="316.68" height="182.01" style="fill:none;stroke:#263238;stroke-linecap:round;stroke-linejoin:round"></rect><rect x="69.07" y="49.14" width="316.68" height="18.43" style="fill:#263238;stroke:#263238;stroke-linecap:round;stroke-linejoin:round"></rect><rect x="88.57" y="54.01" width="149.15" height="8.68" style="fill:#fff;stroke:#263238;stroke-linecap:round;stroke-linejoin:round"></rect><rect x="88.57" y="54.01" width="27.54" height="8.68" style="fill:#FF725E"></rect><g style="clip-path:url(#freepik--clip-path-2--inject-2)"><rect x="88.57" y="54.01" width="27.54" height="8.68" style="fill:#fff;stroke:#263238;stroke-linecap:round;stroke-linejoin:round;opacity:0.5"></rect></g><rect x="88.57" y="54.01" width="27.54" height="8.68" style="fill:none;stroke:#263238;stroke-linecap:round;stroke-linejoin:round"></rect><rect x="139" y="159.83" width="105.39" height="8.68" style="fill:#fff;stroke:#263238;stroke-linecap:round;stroke-linejoin:round"></rect><rect x="299.17" y="177.74" width="82.8" height="8.68" style="fill:#fff;stroke:#263238;stroke-linecap:round;stroke-linejoin:round"></rect><rect x="299.17" y="195.17" width="82.8" height="8.68" style="fill:#fff;stroke:#263238;stroke-linecap:round;stroke-linejoin:round"></rect><rect x="299.17" y="212.6" width="82.8" height="8.68" style="fill:#fff;stroke:#263238;stroke-linecap:round;stroke-linejoin:round"></rect><rect x="139" y="159.83" width="27.54" height="8.68" style="fill:#FF725E;stroke:#263238;stroke-linecap:round;stroke-linejoin:round"></rect><rect x="139" y="177.74" width="149.15" height="43.54" style="fill:#fff;opacity:0.7000000000000001"></rect><rect x="139" y="74.08" width="242.66" height="14.13" style="fill:#fff;stroke:#263238;stroke-linecap:round;stroke-linejoin:round"></rect><rect x="139" y="94.71" width="242.66" height="55.88" style="fill:#fff;opacity:0.5"></rect><rect x="139" y="74.08" width="44.81" height="14.13" style="fill:#FF725E;stroke:#263238;stroke-linecap:round;stroke-linejoin:round"></rect><rect x="142.25" y="99.42" width="30.03" height="9.47" style="fill:#FF725E;stroke:#263238;stroke-linecap:round;stroke-linejoin:round"></rect><rect x="299.17" y="163.77" width="30.03" height="9.47" style="fill:#FF725E;stroke:#263238;stroke-linecap:round;stroke-linejoin:round"></rect><rect x="77.39" y="138.85" width="30.03" height="9.47" style="fill:#FF725E;stroke:#263238;stroke-linecap:round;stroke-linejoin:round"></rect><rect x="142.25" y="113.42" width="189.09" height="4.73" style="fill:#fff;stroke:#263238;stroke-linecap:round;stroke-linejoin:round"></rect><rect x="77.74" y="152.71" width="21.34" height="4.73" style="fill:#fff;stroke:#263238;stroke-linecap:round;stroke-linejoin:round"></rect><rect x="77.39" y="166.17" width="30.03" height="9.47" style="fill:#FF725E;stroke:#263238;stroke-linecap:round;stroke-linejoin:round"></rect><rect x="77.74" y="180.03" width="26.76" height="4.73" style="fill:#fff;stroke:#263238;stroke-linecap:round;stroke-linejoin:round"></rect><rect x="77.74" y="189.16" width="23.51" height="4.73" style="fill:#fff;stroke:#263238;stroke-linecap:round;stroke-linejoin:round"></rect><rect x="77.74" y="198.29" width="18.08" height="4.73" style="fill:#fff;stroke:#263238;stroke-linecap:round;stroke-linejoin:round"></rect><rect x="77.74" y="207.42" width="26.76" height="4.73" style="fill:#fff;stroke:#263238;stroke-linecap:round;stroke-linejoin:round"></rect><rect x="77.74" y="216.54" width="21.34" height="4.73" style="fill:#fff;stroke:#263238;stroke-linecap:round;stroke-linejoin:round"></rect><rect x="142.25" y="122.68" width="204.28" height="4.73" style="fill:#fff;stroke:#263238;stroke-linecap:round;stroke-linejoin:round"></rect><rect x="142.25" y="131.95" width="181.14" height="4.73" style="fill:#fff;stroke:#263238;stroke-linecap:round;stroke-linejoin:round"></rect><rect x="142.25" y="141.21" width="199.22" height="4.73" style="fill:#fff;stroke:#263238;stroke-linecap:round;stroke-linejoin:round"></rect><rect x="372.98" y="54.01" width="8.68" height="8.68" style="fill:#FF725E;stroke:#263238;stroke-linecap:round;stroke-linejoin:round"></rect><rect x="351.57" y="54.01" width="8.68" height="8.68" style="fill:#FF725E"></rect><g style="clip-path:url(#freepik--clip-path-3--inject-2)"><rect x="351.57" y="54.01" width="8.68" height="8.68" style="fill:#fff;opacity:0.6000000000000001"></rect></g><rect x="351.57" y="54.01" width="8.68" height="8.68" style="fill:none;stroke:#263238;stroke-linecap:round;stroke-linejoin:round"></rect><rect x="362.27" y="54.01" width="8.68" height="8.68" style="fill:#FF725E"></rect><g style="clip-path:url(#freepik--clip-path-4--inject-2)"><rect x="362.27" y="54.01" width="8.68" height="8.68" style="fill:#fff;opacity:0.4"></rect></g><rect x="362.27" y="54.01" width="8.68" height="8.68" style="fill:none;stroke:#263238;stroke-linecap:round;stroke-linejoin:round"></rect><rect x="77.39" y="74.08" width="56.12" height="56.12" style="fill:#fff"></rect><path d="M103.67,82.32s-9.75-.36-8.48,2.55S89,88.43,90.8,91.61s-3.39,7.49-.77,9.17,1.41,4.85.16,6.52,2,3.84,4.57,3.81-1,3,0,3.73,2.45-1.85,4.36-1.31,6.24-1.12,7.42-.66,16.67,1.37,16.81.32-1.43-1.23-1.1-2.26,2.87,0,3.39-2.21-1.47-3.24-1.17-5.39,1.91-1.19,2.27-4.13-3.9-3.85-4-5.35,4.07-1,2.85-3.82-5.67-2.36-6.65-4,2.67-1.46.31-3.69S107.46,78.7,103.67,82.32Z" style="fill:#263238;stroke:#263238;stroke-linecap:round;stroke-linejoin:round"></path><path d="M93.25,105.75c-1.13,2.4,1,2.82,2.92,3.47s.81,3.48.81,3.48" style="fill:none;stroke:#7f7f7f;stroke-linecap:round;stroke-linejoin:round;stroke-width:0.75px"></path><path d="M92.22,100.54a5.78,5.78,0,0,1,1.34,4.19" style="fill:none;stroke:#7f7f7f;stroke-linecap:round;stroke-linejoin:round;stroke-width:0.75px"></path><path d="M92.79,93c-.17,2.28-2.41,5.57-1.4,6.59" style="fill:none;stroke:#7f7f7f;stroke-linecap:round;stroke-linejoin:round;stroke-width:0.75px"></path><path d="M96.4,87.64s-5.05,2-3.85,4" style="fill:none;stroke:#7f7f7f;stroke-linecap:round;stroke-linejoin:round;stroke-width:0.75px"></path><path d="M96.57,85.32c.26.5,1,.54,1,1.25" style="fill:none;stroke:#7f7f7f;stroke-linecap:round;stroke-linejoin:round;stroke-width:0.75px"></path><path d="M102.91,83.43s-6.12-.06-6.39,1.19" style="fill:none;stroke:#7f7f7f;stroke-linecap:round;stroke-linejoin:round;stroke-width:0.75px"></path><path d="M124.43,98.51c-.48,1.36-3.24,4-2.16,6.36s1.87,3.25-.11,3.82" style="fill:none;stroke:#7f7f7f;stroke-linecap:round;stroke-linejoin:round;stroke-width:0.75px"></path><path d="M122.61,90.62c-.41,1.47-2.84,1.27-2.53,3.78.21,1.78,2.53,2.41,3.71,3.11" style="fill:none;stroke:#7f7f7f;stroke-linecap:round;stroke-linejoin:round;stroke-width:0.75px"></path><path d="M117.09,85.34c0,1.87-1.78,2.13.69,3.53a7.41,7.41,0,0,0,3.55.95" style="fill:none;stroke:#7f7f7f;stroke-linecap:round;stroke-linejoin:round;stroke-width:0.75px"></path><path d="M104.79,83.64s10.72-3,12,.25" style="fill:none;stroke:#7f7f7f;stroke-linecap:round;stroke-linejoin:round;stroke-width:0.75px"></path><path d="M119.68,108.75c-.48,1.36,1,3.25,1,3.25" style="fill:none;stroke:#7f7f7f;stroke-linecap:round;stroke-linejoin:round;stroke-width:0.75px"></path><path d="M118.24,91.88c.21,1.62-1.38,2.24-1,4s3.46,1.38,3.61,2.7-2.45,2.78-1.85,5.41c.31,1.31.6,2.17.76,2.88" style="fill:none;stroke:#7f7f7f;stroke-linecap:round;stroke-linejoin:round;stroke-width:0.75px"></path><path d="M114.26,89c.37,1.56,1.75,1.68,2.78,1.94" style="fill:none;stroke:#7f7f7f;stroke-linecap:round;stroke-linejoin:round;stroke-width:0.75px"></path><path d="M114.9,86.08a5.83,5.83,0,0,1-.55,1.54" style="fill:none;stroke:#7f7f7f;stroke-linecap:round;stroke-linejoin:round;stroke-width:0.75px"></path><path d="M103.36,84.92s10.5-2.74,11.37-.15" style="fill:none;stroke:#7f7f7f;stroke-linecap:round;stroke-linejoin:round;stroke-width:0.75px"></path><path d="M115.64,103.38c.23,1,1.29,1.74,1.26,3.11-.05,1.84-.83,3.08,0,4.75" style="fill:none;stroke:#7f7f7f;stroke-linecap:round;stroke-linejoin:round;stroke-width:0.75px"></path><path d="M111.57,89.46a5.47,5.47,0,0,0,2.37,3.65c1.56,1.09,1.07,3.24,2,4.68s.54,3-.2,4.55" style="fill:none;stroke:#7f7f7f;stroke-linecap:round;stroke-linejoin:round;stroke-width:0.75px"></path><path d="M101.48,86.14s9.42-.69,9.83,2" style="fill:none;stroke:#7f7f7f;stroke-linecap:round;stroke-linejoin:round;stroke-width:0.75px"></path><path d="M98.85,85.6s.44-1.35,2.74-.44" style="fill:none;stroke:#7f7f7f;stroke-linecap:round;stroke-linejoin:round;stroke-width:0.75px"></path><path d="M92.78,117.65c3.8-1.08,9.33-2.92,16-2.92,4.29,0,8.09,1.27,11.44,2.07,3.57.86,8.35,1.08,6.21,13.32h-38S87.17,119.23,92.78,117.65Z" style="fill:#FF725E;stroke:#263238;stroke-linecap:round;stroke-linejoin:round"></path><path d="M112.34,112.08l-2-8.09-5.5,1.66-1.65,6.56a4.43,4.43,0,0,1-2.37,2.92,13.6,13.6,0,0,0-2.35,1.38s6.53,8.91,19.06,0a13.1,13.1,0,0,0-2.68-1.5A4.32,4.32,0,0,1,112.34,112.08Z" style="fill:#fff;stroke:#263238;stroke-linecap:round;stroke-linejoin:round"></path><path d="M95.23,92l-.72,4.79a3.49,3.49,0,0,0,.12,1.51l.42,1.32-.25,3.12a4,4,0,0,0,0,.49c.11,1.6.88,10.1,5.5,10.46,4.1.31,8.18-4.76,9.63-6.77a4.93,4.93,0,0,0,.77-1.66l.62-2.44a2.77,2.77,0,0,0,2.62-1.92c.62-2,1.65-3.24-.34-4.21s-2.7,1.78-2.7,1.78a19.65,19.65,0,0,0-1.06-4.16c-.48-.81-2.24-1.8-2.76-2.59a11.7,11.7,0,0,1-.7-1.94s-6,1.16-10.65.23Z" style="fill:#fff;stroke:#263238;stroke-linecap:round;stroke-linejoin:round"></path><path d="M98,100.38l-1.64,4a.89.89,0,0,0,.76,1.22l2,.13" style="fill:none;stroke:#263238;stroke-linecap:round;stroke-linejoin:round"></path><path d="M104.14,106.43c-1.31,2.22-2.9,1.75-3.87,1.13" style="fill:none;stroke:#263238;stroke-linecap:round;stroke-linejoin:round"></path><path d="M100.48,99.9c0,.68.26,1.23.57,1.23s.58-.55.58-1.23-.26-1.24-.58-1.24S100.48,99.22,100.48,99.9Z" style="fill:#263238"></path><path d="M95.68,99.9c0,.68.26,1.23.57,1.23s.58-.55.58-1.23-.26-1.24-.58-1.24S95.68,99.22,95.68,99.9Z" style="fill:#263238"></path><path d="M100.27,97.18a3,3,0,0,1,3.57,1.48" style="fill:none;stroke:#263238;stroke-linecap:round;stroke-linejoin:round"></path><path d="M97.3,97S95.52,96,94.63,98.29" style="fill:none;stroke:#263238;stroke-linecap:round;stroke-linejoin:round"></path><path d="M95.38,88.82s1.49,5.55,4.16,6.19,4.58,1.06,5.12,3.41,3.63,2.77,4.91,4.48-1,8.68,1.81,9.68a10.29,10.29,0,0,1,0-4.8c.64-2.53,2.29-5,1.09-9.47s-6.53-9.49-6.53-9.49l-5.37-.64Z" style="fill:#263238;stroke:#263238;stroke-linecap:round;stroke-linejoin:round"></path><path d="M97.79,89.78a7.6,7.6,0,0,0,5.27,3.36c3.68.57,3.68,4.69,5.39,5.83s3.72,1.41,2.7,6.71" style="fill:none;stroke:#7f7f7f;stroke-linecap:round;stroke-linejoin:round;stroke-width:0.75px"></path></g><g id="freepik--Plant--inject-2"><path d="M356,395.62a1,1,0,0,0,1-.87c.05-.31,4.65-31.71,8.61-74.05,2.05-21.91,7.25-37.25,11.25-46.25,4.33-9.76,8.23-14.4,8.27-14.45a1,1,0,0,0-1.54-1.31c-.66.77-16,19.19-20,61.82-4,42.28-8.55,73.64-8.6,73.95a1,1,0,0,0,.86,1.15Z" style="fill:#FF725E;stroke:#263238;stroke-linecap:round;stroke-linejoin:round"></path><path d="M368.25,371.82h-.18a1.26,1.26,0,0,1-1.07-1.43c0-.23,3.32-22.65,6.15-52.87,2.86-30.67,14-44,14.42-44.53a1.27,1.27,0,0,1,1.93,1.64c-.11.13-11.05,13.34-13.84,43.12-2.83,30.3-6.12,52.78-6.16,53A1.26,1.26,0,0,1,368.25,371.82Z" style="fill:#FF725E;stroke:#263238;stroke-linecap:round;stroke-linejoin:round"></path><path d="M405.33,251a1.68,1.68,0,0,1,1.86,1.35c1.68,8.49,8.9,49.35-8,44-14.06-4.48-13.14-14.76-11.75-19.73a1.27,1.27,0,0,0-1.72-1.52c-5.48,2.26-17.41,5.83-18.73-5.37C365.45,256.8,397.79,252,405.33,251Z" style="fill:#FF725E"></path><path d="M390,270.29c-3.49.52-14.81,2.38-14.09-1s15.18-1,15.91-2.34-7.05-4.94-5.79-7,7.23,5.39,8.5,4.58,5.42-10.71,7.77-8.47-5.6,8.6-5.42,10.84,7.77,1.7,8.67,4.14-8.85-2.27-9.39-.82,9.76,13.56,6.5,15.37S393,269.85,390,270.29Z" style="opacity:0.2"></path><path d="M412.32,200.58a2.35,2.35,0,0,1,2.61,1.88c2.33,11.87,12.43,69-11.24,61.46-19.65-6.25-18.36-20.63-16.41-27.57a1.79,1.79,0,0,0-2.41-2.13c-7.67,3.17-24.34,8.15-26.18-7.5C356.57,208.69,401.78,201.91,412.32,200.58Z" style="fill:#FF725E"></path><path d="M384.57,231.4c-4.78.46-19.62-1.05-17.58-7.74s18.69,2.53,21.39.72-4.19-11.59.15-13.47,5.26,9,6.88,8.91,9.4-14,12.66-12.25-8,12.84-8.68,16.09,12.83.36,13.74,3.44-14.28.49-15,2.68,13.92,14.49,10.13,19.73S395.88,230.32,384.57,231.4Z" style="fill:#fff;opacity:0.7000000000000001"></path><path d="M365.79,369.26a1.09,1.09,0,0,1-1.08-1c-1.39-12-2.66-24.21-3.77-36.18-3.89-41.54-19.15-59.86-19.3-60a1.09,1.09,0,1,1,1.65-1.41c.64.76,15.86,19,19.81,61.25,1.11,11.95,2.38,24.1,3.77,36.13a1.09,1.09,0,0,1-1,1.2Z" style="fill:#FF725E;stroke:#263238;stroke-linecap:round;stroke-linejoin:round"></path><path d="M312.81,258a2,2,0,0,0-1.26,2.36c2.59,9.74,15.93,56.15,30.88,41.86,12.41-11.86,6.19-22.14,2.2-26.62a1.49,1.49,0,0,1,1-2.48c6.89-.43,21.18-2.8,16.83-15.18C357.48,243.72,321.18,255.18,312.81,258Z" style="fill:#FF725E"></path><path d="M339.2,278c.32,4.54,1.62,18.34-1.81,16.9s-1.45-16.09-3.62-18.08-6.68,10.49-8.49,7.05,4.34-8.89,4.16-11.31-11-8.39-10.13-10.56,10.85,5.24,11.93,3.44,2.35-10.13,5.07-9.22,0,8.49,1.08,9.58,12.29-10.49,14.1-4.7C353.24,266.69,338.07,262.09,339.2,278Z" style="fill:#fff;opacity:0.5"></path><path d="M375.46,398.26H359.74a11.49,11.49,0,0,1-11.47-10.9l-1.61-31h41.87l-1.6,31A11.49,11.49,0,0,1,375.46,398.26Z" style="fill:#263238;stroke:#263238;stroke-linecap:round;stroke-linejoin:round"></path></g><g id="freepik--Character--inject-2"><rect x="176.91" y="332.53" width="11.86" height="90.23" transform="translate(365.68 755.29) rotate(180)" style="fill:#fff"></rect><g style="clip-path:url(#freepik--clip-path-5--inject-2)"><rect x="172.23" y="331.7" width="9.35" height="84.6" transform="translate(353.81 748) rotate(180)" style="opacity:0.2"></rect></g><rect x="176.91" y="332.53" width="11.86" height="90.23" transform="translate(365.68 755.29) rotate(180)" style="fill:none;stroke:#263238;stroke-linecap:round;stroke-linejoin:round"></rect><path d="M149.69,412.21H216a8.73,8.73,0,0,1,8.73,8.73v1.82H141v-1.82A8.73,8.73,0,0,1,149.69,412.21Z" style="fill:#fff"></path><g style="clip-path:url(#freepik--clip-path-6--inject-2)"><path d="M152.24,414.79h61.2a8.05,8.05,0,0,1,8.06,8v1.68H144.18v-1.68A8.05,8.05,0,0,1,152.24,414.79Z" style="opacity:0.2"></path></g><path d="M149.69,412.21H216a8.73,8.73,0,0,1,8.73,8.73v1.82H141v-1.82A8.73,8.73,0,0,1,149.69,412.21Z" style="fill:none;stroke:#263238;stroke-linecap:round;stroke-linejoin:round"></path><path d="M180.16,422.76h5.36v-7.87a2.68,2.68,0,0,0-2.68-2.68h0a2.68,2.68,0,0,0-2.68,2.68Z" style="fill:#fff;stroke:#263238;stroke-linecap:round;stroke-linejoin:round"></path><polygon points="175.77 333.54 182.84 333.54 189.91 333.54 189.91 319.4 175.77 319.4 175.77 333.54" style="fill:#fff;stroke:#263238;stroke-linecap:round;stroke-linejoin:round"></polygon><rect x="141.44" y="287.41" width="11.86" height="31.75" transform="translate(294.74 606.58) rotate(180)" style="fill:#fff"></rect><g style="clip-path:url(#freepik--clip-path-7--inject-2)"><rect x="136.36" y="290.02" width="9.35" height="32.45" transform="translate(282.06 612.49) rotate(180)" style="opacity:0.2"></rect></g><rect x="141.44" y="287.41" width="11.86" height="31.75" transform="translate(294.74 606.58) rotate(180)" style="fill:none;stroke:#263238;stroke-linecap:round;stroke-linejoin:round"></rect><path d="M136.59,324.65a371.76,371.76,0,0,0,92.49,0,4.63,4.63,0,0,0,4-5.21l-.75-4.78a4.63,4.63,0,0,0-5.24-3.82,360.47,360.47,0,0,1-88.56,0,4.63,4.63,0,0,0-5.24,3.82l-.75,4.78A4.63,4.63,0,0,0,136.59,324.65Z" style="fill:#263238"></path><g style="clip-path:url(#freepik--clip-path-8--inject-2)"><path d="M138.56,310.84a360.47,360.47,0,0,0,88.56,0,4.63,4.63,0,0,1,5.24,3.82c.24,1.52.38,2.44.58,3.71a510.77,510.77,0,0,1-91.55-3.17,6.51,6.51,0,0,1-5.2-4.06A4.6,4.6,0,0,1,138.56,310.84Z" style="opacity:0.2"></path></g><path d="M136.59,324.65a371.76,371.76,0,0,0,92.49,0,4.63,4.63,0,0,0,4-5.21l-.75-4.78a4.63,4.63,0,0,0-5.24-3.82,360.47,360.47,0,0,1-88.56,0,4.63,4.63,0,0,0-5.24,3.82l-.75,4.78A4.63,4.63,0,0,0,136.59,324.65Z" style="fill:none;stroke:#263238;stroke-linecap:round;stroke-linejoin:round"></path><path d="M136.87,295.93,164.16,292c6.93-1,11.51-7.12,10.43-13.49A209.12,209.12,0,0,1,172.07,230a12,12,0,0,0-10.54-12.47l-22.69-3.25c-6.52-.93-12.89,4-14,11.19a246,246,0,0,0-2.11,58.2C123.36,291.33,130,296.91,136.87,295.93Z" style="fill:#263238"></path><g style="clip-path:url(#freepik--clip-path-9--inject-2)"><path d="M136.7,231.7c1.11-7.21,7.47-12.13,14-11.19l19.76,2.83a11.35,11.35,0,0,1,1.62,6.61,209.12,209.12,0,0,0,2.52,48.58c1.08,6.37-3.5,12.49-10.43,13.49l-27.29,3.91-.34,0a13.92,13.92,0,0,1-1.93-6.05A245.39,245.39,0,0,1,136.7,231.7Z" style="opacity:0.2"></path></g><path d="M136.87,295.93,164.16,292c6.93-1,11.51-7.12,10.43-13.49A209.12,209.12,0,0,1,172.07,230a12,12,0,0,0-10.54-12.47l-22.69-3.25c-6.52-.93-12.89,4-14,11.19a246,246,0,0,0-2.11,58.2C123.36,291.33,130,296.91,136.87,295.93Z" style="fill:none;stroke:#263238;stroke-linecap:round;stroke-linejoin:round"></path><path d="M260.08,371.81l0,13.7,17.48,17.63s8.53,4.16,9.25,7.9-3.34,6.57-13.46,3.74-11.51-6.25-15.32-7.91-14.33-2.84-13.87-7.77,5.32-12.39,5.32-12.39l-.61-10.88Z" style="fill:#fff;stroke:#263238;stroke-linecap:round;stroke-linejoin:round"></path><path d="M248.43,388.39c1.72,1.49,2.41,4.55,2.41,4.55s8.86,4.6,9,.8c.11-2.57,2.65-3.66,4.27-4.1l13.39,13.5s8.53,4.16,9.25,7.9-3.34,6.57-13.46,3.74-11.51-6.25-15.32-7.91-14.33-2.84-13.87-7.77C244.46,395.61,247,390.87,248.43,388.39Z" style="fill:#FF725E"></path><g style="clip-path:url(#freepik--clip-path-10--inject-2)"><path d="M248.43,388.39c1.72,1.49,2.41,4.55,2.41,4.55s8.86,4.6,9,.8c.11-2.57,2.65-3.66,4.27-4.1l13.39,13.5s8.53,4.16,9.25,7.9-3.34,6.57-13.46,3.74-11.51-6.25-15.32-7.91-14.33-2.84-13.87-7.77C244.46,395.61,247,390.87,248.43,388.39Z" style="opacity:0.30000000000000004"></path></g><path d="M248.43,388.39c1.72,1.49,2.41,4.55,2.41,4.55s8.86,4.6,9,.8c.11-2.57,2.65-3.66,4.27-4.1l13.39,13.5s8.53,4.16,9.25,7.9-3.34,6.57-13.46,3.74-11.51-6.25-15.32-7.91-14.33-2.84-13.87-7.77C244.46,395.61,247,390.87,248.43,388.39Z" style="fill:none;stroke:#263238;stroke-linecap:round;stroke-linejoin:round"></path><path d="M244.13,399.1c0-.29.07-.59.13-.9a20.29,20.29,0,0,0,3,2.58c4.77,3.41,12.09,2.73,14.84,5.28a23.65,23.65,0,0,0,6.8,4.07c2.54-2,6.64.7,11.58,1.28a8.52,8.52,0,0,0,5.93-1.36,3.63,3.63,0,0,1,.37,1c.72,3.74-3.34,6.57-13.46,3.74s-11.51-6.25-15.32-7.91S243.67,404,244.13,399.1Z" style="fill:#fff;stroke:#263238;stroke-linecap:round;stroke-linejoin:round"></path><path d="M286.86,412.71s-2.3,3.24-15.07-1.3" style="fill:none;stroke:#263238;stroke-linecap:round;stroke-linejoin:round"></path><path d="M178.32,286.36s75-5,78.38,5.56,5,44.48,5.2,57.93-.9,30.49-.9,30.49a23.92,23.92,0,0,1-13.81,0s-3.29-19.55-5.68-29.06-4.9-22.17-3.46-42.2c0,0-71.83,10.82-72.24-1.74S178.32,286.36,178.32,286.36Z" style="fill:#fff"></path><g style="clip-path:url(#freepik--clip-path-11--inject-2)"><path d="M178.32,286.36s75-5,78.38,5.56,5,44.48,5.2,57.93-.9,30.49-.9,30.49a23.92,23.92,0,0,1-13.81,0s-3.29-19.55-5.68-29.06-4.9-22.17-3.46-42.2c0,0-71.83,10.82-72.24-1.74S178.32,286.36,178.32,286.36Z" style="opacity:0.5"></path><g style="clip-path:url(#freepik--clip-path-12--inject-2)"><path d="M253.64,379.66c-4.52-1-8.23-20.71-10.35-41.33s5.65-31.16,1.74-33.82-37.3,2.93-56.64,3.91c-10.87.55-18.11-2-22.38-4.36a18.6,18.6,0,0,0-.2,3.28c.41,12.56,72.24,1.74,72.24,1.74-1.44,20,1.07,32.7,3.46,42.2s5.68,29.06,5.68,29.06a19.66,19.66,0,0,0,3.53.81C253.41,380.46,254.78,379.91,253.64,379.66Z" style="opacity:0.30000000000000004"></path></g></g><path d="M178.32,286.36s75-5,78.38,5.56,5,44.48,5.2,57.93-.9,30.49-.9,30.49a23.92,23.92,0,0,1-13.81,0s-3.29-19.55-5.68-29.06-4.9-22.17-3.46-42.2c0,0-71.83,10.82-72.24-1.74S178.32,286.36,178.32,286.36Z" style="fill:none;stroke:#263238;stroke-linecap:round;stroke-linejoin:round"></path><path d="M246.1,302.23s-.77,3.48-5.62,6.85" style="fill:none;stroke:#263238;stroke-linecap:round;stroke-linejoin:round"></path><path d="M262.74,376.05l-.51,5.07s-8.58,4.6-16.12.34l-1.58-5S249.64,380,262.74,376.05Z" style="fill:#fff"></path><g style="clip-path:url(#freepik--clip-path-13--inject-2)"><path d="M262.74,376.05l-.51,5.07s-8.58,4.6-16.12.34l-1.58-5S249.64,380,262.74,376.05Z" style="opacity:0.30000000000000004"></path></g><path d="M262.74,376.05l-.51,5.07s-8.58,4.6-16.12.34l-1.58-5S249.64,380,262.74,376.05Z" style="fill:none;stroke:#263238;stroke-linecap:round;stroke-linejoin:round"></path><path d="M198.31,367.66l-4.84,8.18-2.23,26.32s3.91,11.36,1.21,14.06-13.57-1-16.89-11-1.28-13-2-17.13-5.12-12.6-.77-15S184,369.45,184,369.45l3.84-8.27Z" style="fill:#fff;stroke:#263238;stroke-linecap:round;stroke-linejoin:round"></path><path d="M173.52,388.1c-.77-4.08-5.12-12.6-.77-15a39.75,39.75,0,0,1,9-3.17,8.65,8.65,0,0,1-1.39,3.17s-.17,3.07,1,4.43,4.26-1.7,8.69,0c2.05.79,2.82,1.79,3.06,2.64L193,382h0l-1.71,20.2s3.91,11.36,1.21,14.06-13.57-1-16.89-11S174.28,392.19,173.52,388.1Z" style="fill:#FF725E"></path><g style="clip-path:url(#freepik--clip-path-14--inject-2)"><path d="M173.52,388.1c-.77-4.08-5.12-12.6-.77-15a39.75,39.75,0,0,1,9-3.17,8.65,8.65,0,0,1-1.39,3.17s-.17,3.07,1,4.43,4.26-1.7,8.69,0c2.05.79,2.82,1.79,3.06,2.64L193,382h0l-1.71,20.2s3.91,11.36,1.21,14.06-13.57-1-16.89-11S174.28,392.19,173.52,388.1Z" style="opacity:0.30000000000000004"></path></g><path d="M173.52,388.1c-.77-4.08-5.12-12.6-.77-15a39.75,39.75,0,0,1,9-3.17,8.65,8.65,0,0,1-1.39,3.17s-.17,3.07,1,4.43,4.26-1.7,8.69,0c2.05.79,2.82,1.79,3.06,2.64L193,382h0l-1.71,20.2s3.91,11.36,1.21,14.06-13.57-1-16.89-11S174.28,392.19,173.52,388.1Z" style="fill:none;stroke:#263238;stroke-linecap:round;stroke-linejoin:round"></path><path d="M175.56,405.23c-3.32-10-1.28-13-2-17.13s-5.12-12.6-.77-15c.21-.12.44-.22.66-.33a21.77,21.77,0,0,0-.06,5.1c.59,4.77,3.23,6,3.57,16.36s3.24,11.24,3.24,11.24,6.82,2.9,10.22,6.48c1.35,1.42,2.32,1.54,3,1.19a4.56,4.56,0,0,1-.94,3.07C189.76,418.91,178.88,415.2,175.56,405.23Z" style="fill:#fff;stroke:#263238;stroke-linecap:round;stroke-linejoin:round"></path><path d="M190.89,414.94s-4.6.13-11.5-7.54" style="fill:none;stroke:#263238;stroke-linecap:round;stroke-linejoin:round"></path><path d="M152.5,289.18s-10.63,21.26,2.95,23.14,55.16-.54,55.16-.54a210.54,210.54,0,0,0-13.81,26.05C191.42,350.57,186,363.66,186,363.66s2.34,6.28,11.84,7.53c0,0,7.71-12,24.57-30.85s21.53-37.66,17.94-44.12-22.24-10-52.37-11.34Z" style="fill:#fff"></path><g style="clip-path:url(#freepik--clip-path-15--inject-2)"><path d="M152.5,289.18s-10.63,21.26,2.95,23.14,55.16-.54,55.16-.54a210.54,210.54,0,0,0-13.81,26.05C191.42,350.57,186,363.66,186,363.66s2.34,6.28,11.84,7.53c0,0,7.71-12,24.57-30.85s21.53-37.66,17.94-44.12-22.24-10-52.37-11.34Z" style="opacity:0.5"></path><g style="clip-path:url(#freepik--clip-path-16--inject-2)"><path d="M218.15,305.91c-4.21-5.23-42.78,3.43-57,2.51-7.5-.48-10.65-5.45-11.95-10-1.38,6-1.24,12.89,6.23,13.93,13.59,1.88,55.16-.54,55.16-.54a210.54,210.54,0,0,0-13.81,26.05C191.42,350.57,186,363.66,186,363.66a11.06,11.06,0,0,0,3.53,4.29C185.75,356.55,222.24,311,218.15,305.91Z" style="opacity:0.30000000000000004"></path></g></g><path d="M152.5,289.18s-10.63,21.26,2.95,23.14,55.16-.54,55.16-.54a210.54,210.54,0,0,0-13.81,26.05C191.42,350.57,186,363.66,186,363.66s2.34,6.28,11.84,7.53c0,0,7.71-12,24.57-30.85s21.53-37.66,17.94-44.12-22.24-10-52.37-11.34Z" style="fill:none;stroke:#263238;stroke-linecap:round;stroke-linejoin:round"></path><path d="M213.86,308.42c1-.85,3.1-2.52,8.58-5" style="fill:none;stroke:#263238;stroke-linecap:round;stroke-linejoin:round"></path><path d="M219,300.53s-8.75,7.17-7,8.25" style="fill:none;stroke:#263238;stroke-linecap:round;stroke-linejoin:round"></path><path d="M201.1,369.4l-3.23,3.94s-9.68-.89-13.63-8.6l1.44-5S188,365.45,201.1,369.4Z" style="fill:#fff"></path><g style="clip-path:url(#freepik--clip-path-17--inject-2)"><path d="M201.1,369.4l-3.23,3.94s-9.68-.89-13.63-8.6l1.44-5S188,365.45,201.1,369.4Z" style="opacity:0.30000000000000004"></path></g><path d="M201.1,369.4l-3.23,3.94s-9.68-.89-13.63-8.6l1.44-5S188,365.45,201.1,369.4Z" style="fill:none;stroke:#263238;stroke-linecap:round;stroke-linejoin:round"></path><path d="M213.25,267.69l1.47,8.47-6.83,2.17-5.25-10.08S208.73,263,213.25,267.69Z" style="fill:#fff;stroke:#263238;stroke-linecap:round;stroke-linejoin:round"></path><path d="M225.17,281.72c1,1,3.41,1.08,1.79-1.09a11.6,11.6,0,0,0-5.19-3.83c-3.61-1.61-5-1.28-8.28-2s-3.87.61-5,1.23c-2.69,1.48-3.34,1.73-4,3.21s-1.43,3.42.67,3.42c1.92,0,2-3.17,3.9-3s2.77,3,4.07,3h.5c1.11,0,1.17-.93.49-2.38s-1.42-2.76-1.42-2.76a5.67,5.67,0,0,1,2.5,2.62c.89,1.89,1.05,2.69,2.69,2.69s1.52-1.22-.11-3.9a6.33,6.33,0,0,1,2.27,2.32c.8,1.51,1.22,1.41,2.27,1.41,1.37,0,1.28-2.27-1.16-3.76C221.15,278.9,221.69,278.24,225.17,281.72Z" style="fill:#fff;stroke:#263238;stroke-linecap:round;stroke-linejoin:round"></path><path d="M215.64,276.3s1-.05,1.56,1.57" style="fill:none;stroke:#263238;stroke-linecap:round;stroke-linejoin:round"></path><path d="M189.7,202.12a1.71,1.71,0,0,1,2.22-1.64c3.46,1.08,9.7,4,9.42,10.51-.38,9,0,27.33,0,27.33s3.45-1.47,7.5,12.52,4.6,17.9,4.6,17.9-4.84-3.49-9.67,1.7c0,0-11-20.74-12.64-29.68C189.73,233.23,189.68,209.48,189.7,202.12Z" style="fill:#FF725E;stroke:#263238;stroke-linecap:round;stroke-linejoin:round"></path><path d="M214.72,270.44s-5.63-3.65-10.95,2.2l-3.32-3.9s4-3.54,8.39-3.66,5.88,1.46,5.88,1.46Z" style="fill:#FF725E"></path><g style="clip-path:url(#freepik--clip-path-18--inject-2)"><path d="M214.72,270.44s-5.63-3.65-10.95,2.2l-3.32-3.9s4-3.54,8.39-3.66,5.88,1.46,5.88,1.46Z" style="fill:#fff;opacity:0.6000000000000001"></path></g><path d="M214.72,270.44s-5.63-3.65-10.95,2.2l-3.32-3.9s4-3.54,8.39-3.66,5.88,1.46,5.88,1.46Z" style="fill:none;stroke:#263238;stroke-linecap:round;stroke-linejoin:round"></path><path d="M202.4,250.68c-.25-11.71,2.93-26.11-3.42-33.92,0,0,.25-12.2-9.27-16.84s-33.19-6.83-39.29-1.95c-5.13,4.11,1.94,45,3,75.45.19,5.75-1.74,11.13-2,15.81,0,0,1.95,3.66,11.71,0s37.82-4.75,37.82-4.75S202.64,262.39,202.4,250.68Z" style="fill:#FF725E"></path><g style="clip-path:url(#freepik--clip-path-19--inject-2)"><path d="M202.15,264c-2.11,3.1-6.24,7.77-12,8-8.72.34-1.24-16.94-3.34-18.79s-9.65,18.44-23.93,15.62-2.57-6.26-2.24-16.83,3.25-28.46-3.09-28.3c-2.57.07-5.08,4.81-7.16,10.43,1.19,12.69,2.62,26.84,3,39.26.19,5.75-1.74,11.13-2,15.81,0,0,1.95,3.66,11.71,0s37.82-4.75,37.82-4.75S201.72,274.26,202.15,264Z" style="opacity:0.30000000000000004"></path></g><path d="M202.4,250.68c-.25-11.71,2.93-26.11-3.42-33.92,0,0,.25-12.2-9.27-16.84s-33.19-6.83-39.29-1.95c-5.13,4.11,1.94,45,3,75.45.19,5.75-1.74,11.13-2,15.81,0,0,1.95,3.66,11.71,0s37.82-4.75,37.82-4.75S202.64,262.39,202.4,250.68Z" style="fill:none;stroke:#263238;stroke-linecap:round;stroke-linejoin:round"></path><path d="M188,199.17c1.54,3,3.84,8.18,3,10.19-1.3,2.93-4.56-3.58-6.35-3.26s-3.25,4.45-6.67,4c-3.15-.4-7.83-9.86-15.06-14.89C171.32,195.07,181.68,196.68,188,199.17Z" style="fill:#FF725E"></path><g style="clip-path:url(#freepik--clip-path-20--inject-2)"><path d="M188,199.17c1.54,3,3.84,8.18,3,10.19-1.3,2.93-4.56-3.58-6.35-3.26s-3.25,4.45-6.67,4c-3.15-.4-7.83-9.86-15.06-14.89C171.32,195.07,181.68,196.68,188,199.17Z" style="fill:#fff;opacity:0.7000000000000001"></path></g><path d="M188,199.17c1.54,3,3.84,8.18,3,10.19-1.3,2.93-4.56-3.58-6.35-3.26s-3.25,4.45-6.67,4c-3.15-.4-7.83-9.86-15.06-14.89C171.32,195.07,181.68,196.68,188,199.17Z" style="fill:none;stroke:#263238;stroke-linecap:round;stroke-linejoin:round"></path><path d="M165.71,283.13c-13.67,1.42-2.86-5.34-2.86-5.34" style="fill:none;stroke:#263238;stroke-linecap:round;stroke-linejoin:round"></path><path d="M187.56,251.05c-3.62,10.4-10.75,27.67-19.32,31.4" style="fill:none;stroke:#263238;stroke-linecap:round;stroke-linejoin:round"></path><path d="M190.12,243s-.46,1.62-1.29,4.22" style="fill:none;stroke:#263238;stroke-linecap:round;stroke-linejoin:round"></path><path d="M191.54,278.33s4.66,2.16,6.18,2.93c.49.25,2.73,1.1,1.1,1.87-1.4.66-5.82-1.58-5.82-1.58l-4.27-.86Z" style="fill:#fff"></path><g style="clip-path:url(#freepik--clip-path-21--inject-2)"><path d="M191.54,278.33s4.66,2.16,6.18,2.93c.49.25,2.73,1.1,1.1,1.87-1.4.66-5.82-1.58-5.82-1.58l-4.27-.86Z" style="opacity:0.2"></path></g><path d="M191.54,278.33s4.66,2.16,6.18,2.93c.49.25,2.73,1.1,1.1,1.87-1.4.66-5.82-1.58-5.82-1.58l-4.27-.86Z" style="fill:none;stroke:#263238;stroke-linecap:round;stroke-linejoin:round"></path><path d="M164.62,273l12.81,7.2a12.88,12.88,0,0,0,8.3,3.17,8.54,8.54,0,0,0,7.2-3.66l2.68.36s3.29,3.05,4.27,1.71V281l-2.16-2.07-1.13-.8,1.87.35a6.6,6.6,0,0,0,2.92,1.71s5.37,3,5.94,1.13c0,0,1.63.33,2-.48s-.65-1.91-.65-1.91a1.72,1.72,0,0,0,1.7-.8c.49-.95-2-1.85-2.68-2.34s-4.23-3.09-6.18-3.25-15.29,2.77-17.25,1.79-14.48-10.82-14.48-10.82l-6.75,8.22Z" style="fill:#fff;stroke:#263238;stroke-linecap:round;stroke-linejoin:round"></path><path d="M206.59,280.11s-6.67-4.06-7.65-4.47-4.63,0-4.63,0" style="fill:none;stroke:#263238;stroke-linecap:round;stroke-linejoin:round"></path><path d="M206.92,277.79a60.2,60.2,0,0,0-5.37-3.12,2.69,2.69,0,0,0-2.55-.3" style="fill:none;stroke:#263238;stroke-linecap:round;stroke-linejoin:round"></path><path d="M152.59,198.84c-.71-.89-1.44-1.25-2.17-.87,0,0-4.39,1.47-7.16,14s-4.23,42.95-1.79,46.53,23.27,15.29,23.27,15.29,1-3.9,8-8.13c0,0-12.85-12.53-14.8-12,0,0,1.51-1.68-1.79-2.28,0,0,1-10.57,1-16.11,0,0,2.6-4.88,1.79-13.17" style="fill:#FF725E;stroke:#263238;stroke-linecap:round;stroke-linejoin:round"></path><path d="M154.7,222.55c1,3.44,2.27,8.42,1.58,10.19-1.1,2.81-2.6-5.48-5.25-7.44" style="fill:none;stroke:#263238;stroke-linecap:round;stroke-linejoin:round"></path><path d="M153.59,219.08s.22.63.54,1.63" style="fill:none;stroke:#263238;stroke-linecap:round;stroke-linejoin:round"></path><path d="M152.59,254.61c-1,.43-2.53.75-3.14,3.27" style="fill:none;stroke:#263238;stroke-linecap:round;stroke-linejoin:round"></path><path d="M147.37,252.51s5.49-1.46,6,.73" style="opacity:0.30000000000000004"></path><path d="M175.75,267s-4.88,1.59-7.93,8.91l-4.51-1.35s.85-6.58,9.51-11.34Z" style="fill:#FF725E"></path><g style="clip-path:url(#freepik--clip-path-22--inject-2)"><path d="M175.75,267s-4.88,1.59-7.93,8.91l-4.51-1.35s.85-6.58,9.51-11.34Z" style="fill:#fff;opacity:0.6000000000000001"></path></g><path d="M175.75,267s-4.88,1.59-7.93,8.91l-4.51-1.35s.85-6.58,9.51-11.34Z" style="fill:none;stroke:#263238;stroke-linecap:round;stroke-linejoin:round"></path><path d="M191.9,148.19s15,1.14,12.53,5.37,8.79,6.51,5.53,11.06,3.88,12-.42,14.15-3,7.16-1.37,9.93-3.74,5.53-7.64,5,1,4.72-.65,5.7-3.42-3.26-6.43-2.77-9.35-2.79-11.22-2.29-25.71-.8-25.75-2.43,2.4-1.62,2.08-3.25-4.4-.45-4.8-4,2.8-4.7,2.72-8-2.72-2.16-2.76-6.71,6.63-5.21,7.11-7.48-6.05-2.24-3.69-6.33,9.06-2.62,10.85-4.9-3.83-2.7.16-5.69S186.74,142,191.9,148.19Z" style="fill:#263238;stroke:#263238;stroke-linecap:round;stroke-linejoin:round"></path><path d="M185.06,199.14c1.14,1.39,4.24,5.83-2.75,5.66s-17.57-9.58-17.57-9.58,4.23-1.64,7-8.15c1.21-2.84,3.91-11.71,3.91-11.71l10.7,11.55L183,196.18S184.6,198.58,185.06,199.14Z" style="fill:#fff"></path><g style="clip-path:url(#freepik--clip-path-23--inject-2)"><path d="M185.21,195.22s-9.55-4.92-10.63-13.09.89-7.83.89-7.83l3.77,8.54,5,5.36,2.61,4.3Z" style="fill:#263238"></path></g><path d="M185.06,199.14c1.14,1.39,4.24,5.83-2.75,5.66s-17.57-9.58-17.57-9.58,4.23-1.64,7-8.15c1.21-2.84,3.91-11.71,3.91-11.71l10.7,11.55L183,196.18S184.6,198.58,185.06,199.14Z" style="fill:none;stroke:#263238;stroke-linecap:round;stroke-linejoin:round"></path><path d="M201,159.74s2.11,9.92.4,13.18-.16,7.48-3.58,11.39-5.91,10.9-10.08,9.92c-5.46-1.29-11.61-8.62-12-11.55a25.63,25.63,0,0,1,0-5.62,3,3,0,0,1-2.46-1c-1.3-1.22-3-6.17,0-7.81,2.64-1.43,3.71,1.63,3.71,1.63l7.59-10.9Z" style="fill:#fff;stroke:#263238;stroke-linecap:round;stroke-linejoin:round"></path><path d="M195.32,177.72c-.49,1.54,1.79,4.06,1.06,5.2s-2.6.57-2.6,1.71" style="fill:none;stroke:#263238;stroke-linecap:round;stroke-linejoin:round"></path><path d="M192.88,186.75s-3.66.48-5.81-2.12" style="fill:none;stroke:#263238;stroke-linecap:round;stroke-linejoin:round"></path><path d="M197.53,176.53c-.25.85-.14,1.64.26,1.76s.92-.48,1.17-1.34.14-1.64-.26-1.75S197.79,175.68,197.53,176.53Z" style="fill:#263238"></path><path d="M189.57,175c-.26.85-.14,1.64.25,1.76s.92-.48,1.17-1.34.14-1.64-.25-1.76S189.82,174.11,189.57,175Z" style="fill:#263238"></path><path d="M200.53,173.73s-1.06-2.36-3.66.57" style="fill:none;stroke:#263238;stroke-linecap:round;stroke-linejoin:round"></path><path d="M193.45,172.83s-2.77-3.73-5.69-.64" style="fill:none;stroke:#263238;stroke-linecap:round;stroke-linejoin:round"></path><path d="M195.64,156.49s.07,7,3.06,7.07.1,5.17,4.28,5.74,0-8.42,0-8.42l-2.74-3.29Z" style="fill:#263238;stroke:#263238;stroke-linecap:round;stroke-linejoin:round"></path><path d="M196.54,156.49s-1.71,6.34-4.76,7.07-5.24,1.22-5.85,3.91-4.15,3.17-5.62,5.12,1.1,9.93-2.07,11.07a11.8,11.8,0,0,0,0-5.49c-.73-2.89-2.62-5.7-1.25-10.82s7.47-10.86,7.47-10.86l6.14-.73Z" style="fill:#263238;stroke:#263238;stroke-linecap:round;stroke-linejoin:round"></path><path d="M174.47,177.43s1.22,6.59,0,9.09,2.19,3.54.55,5.49-8.35,3.3-9.82,0S172.71,176.76,174.47,177.43Z" style="fill:#263238;stroke:#263238;stroke-linecap:round;stroke-linejoin:round"></path><path d="M203.77,185.81c1.31,3.86-2.06,4.12-5.07,4.79s-1.83,5.17-1.83,5.17" style="fill:none;stroke:#7f7f7f;stroke-linecap:round;stroke-linejoin:round;stroke-width:0.75px"></path><path d="M206.25,178c-1.48,1.56-2.89,3.75-2.78,6.16" style="fill:none;stroke:#7f7f7f;stroke-linecap:round;stroke-linejoin:round;stroke-width:0.75px"></path><path d="M206.68,166.39c-.13,3.51,2.72,8.92,1,10.31" style="fill:none;stroke:#7f7f7f;stroke-linecap:round;stroke-linejoin:round;stroke-width:0.75px"></path><path d="M202.09,157.59s7.38,3.9,5.19,6.83" style="fill:none;stroke:#7f7f7f;stroke-linecap:round;stroke-linejoin:round;stroke-width:0.75px"></path><path d="M202.24,154c-.49.72-1.65.65-1.71,1.75" style="fill:none;stroke:#7f7f7f;stroke-linecap:round;stroke-linejoin:round;stroke-width:0.75px"></path><path d="M192.88,150s9.35,1,9.56,2.93" style="fill:none;stroke:#7f7f7f;stroke-linecap:round;stroke-linejoin:round;stroke-width:0.75px"></path><path d="M157.38,169.32c.48,2.18,4.26,6.68,2.19,10.1s-3.41,4.64-.49,5.86" style="fill:none;stroke:#7f7f7f;stroke-linecap:round;stroke-linejoin:round;stroke-width:0.75px"></path><path d="M161.52,157.59c.37,2.31,4.12,2.44,3.22,6.22-.63,2.67-4.3,3.24-6.22,4.11" style="fill:none;stroke:#7f7f7f;stroke-linecap:round;stroke-linejoin:round;stroke-width:0.75px"></path><path d="M170.88,150.49c-.33,2.84,2.34,3.56-1.67,5.27a11.56,11.56,0,0,1-5.6.83" style="fill:none;stroke:#7f7f7f;stroke-linecap:round;stroke-linejoin:round;stroke-width:0.75px"></path><path d="M190,150s-15.85-6.47-18.37-1.71" style="fill:none;stroke:#7f7f7f;stroke-linecap:round;stroke-linejoin:round;stroke-width:0.75px"></path><path d="M162.85,185.81c.5,2.16-2.06,4.79-2.06,4.79" style="fill:none;stroke:#7f7f7f;stroke-linecap:round;stroke-linejoin:round;stroke-width:0.75px"></path><path d="M168,160.27c-.61,2.44,1.71,3.66.86,6.22s-5.53,1.5-6,3.5,3.27,4.68,1.89,8.58c-.69,2-1.29,3.22-1.65,4.27" style="fill:none;stroke:#7f7f7f;stroke-linecap:round;stroke-linejoin:round;stroke-width:0.75px"></path><path d="M174.58,156.49c-.85,2.31-3,2.26-4.59,2.49" style="fill:none;stroke:#7f7f7f;stroke-linecap:round;stroke-linejoin:round;stroke-width:0.75px"></path><path d="M174.1,152a9.24,9.24,0,0,0,.57,2.46" style="fill:none;stroke:#7f7f7f;stroke-linecap:round;stroke-linejoin:round;stroke-width:0.75px"></path><path d="M191.93,152.22s-15.57-6-17.35-2.2" style="fill:none;stroke:#7f7f7f;stroke-linecap:round;stroke-linejoin:round;stroke-width:0.75px"></path><path d="M170,178.3c-.51,1.43-2.27,2.44-2.46,4.54-.24,2.81.74,4.85-.85,7.24" style="fill:none;stroke:#7f7f7f;stroke-linecap:round;stroke-linejoin:round;stroke-width:0.75px"></path><path d="M178.6,157.73a8.49,8.49,0,0,1-4.26,5.18c-2.57,1.39-2.2,4.76-3.91,6.8s-1.34,4.47-.49,7" style="fill:none;stroke:#7f7f7f;stroke-linecap:round;stroke-linejoin:round;stroke-width:0.75px"></path><path d="M194.59,154.41s-14.28-2.68-15.37,1.35" style="fill:none;stroke:#7f7f7f;stroke-linecap:round;stroke-linejoin:round;stroke-width:0.75px"></path><path d="M198.7,154.05s-.43-2.15-4.11-1.16" style="fill:none;stroke:#7f7f7f;stroke-linecap:round;stroke-linejoin:round;stroke-width:0.75px"></path><path d="M193.78,157.59a8.69,8.69,0,0,1-6,3.84c-4.22.65-4.22,5.37-6.17,6.67s-4.26,1.61-3.09,7.67" style="fill:none;stroke:#7f7f7f;stroke-linecap:round;stroke-linejoin:round;stroke-width:0.75px"></path><path d="M183,196.18s-1.16,2.11,1.28,4.23" style="fill:#fff;stroke:#263238;stroke-linecap:round;stroke-linejoin:round"></path><path d="M207.76,283l18.58-33.54a4.28,4.28,0,0,1,3.73-2.2h1.53v38.56H209.42A1.9,1.9,0,0,1,207.76,283Z" style="fill:#263238;stroke:#263238;stroke-linecap:round;stroke-linejoin:round"></path><path d="M210.74,285.82h37.34a3.66,3.66,0,0,0,3.19-1.88l19.15-34.58a1.42,1.42,0,0,0-1.24-2.1H231.39a4.31,4.31,0,0,0-3.74,2.2L209.08,283A1.9,1.9,0,0,0,210.74,285.82Z" style="fill:#fff"></path><g style="clip-path:url(#freepik--clip-path-24--inject-2)"><path d="M210.74,285.82h37.34a3.66,3.66,0,0,0,3.19-1.88l19.15-34.58a1.42,1.42,0,0,0-1.24-2.1H231.39a4.31,4.31,0,0,0-3.74,2.2L209.08,283A1.9,1.9,0,0,0,210.74,285.82Z" style="opacity:0.2"></path></g><path d="M210.74,285.82h37.34a3.66,3.66,0,0,0,3.19-1.88l19.15-34.58a1.42,1.42,0,0,0-1.24-2.1H231.39a4.31,4.31,0,0,0-3.74,2.2L209.08,283A1.9,1.9,0,0,0,210.74,285.82Z" style="fill:none;stroke:#263238;stroke-linecap:round;stroke-linejoin:round"></path><path d="M178.24,285.82h28.12a1.16,1.16,0,0,0,1.16-1.16v-1.53h-32A2.68,2.68,0,0,0,178.24,285.82Z" style="fill:#fff"></path><g style="clip-path:url(#freepik--clip-path-25--inject-2)"><path d="M178.24,285.82h28.12a1.16,1.16,0,0,0,1.16-1.16v-1.53h-32A2.68,2.68,0,0,0,178.24,285.82Z" style="opacity:0.4"></path></g><path d="M178.24,285.82h28.12a1.16,1.16,0,0,0,1.16-1.16v-1.53h-32A2.68,2.68,0,0,0,178.24,285.82Z" style="fill:none;stroke:#263238;stroke-linecap:round;stroke-linejoin:round"></path></g></svg>
