<svg xmlns="http://www.w3.org/2000/svg" xmlns:xlink="http://www.w3.org/1999/xlink" viewBox="0 0 500 500"><defs><clipPath id="freepik--clip-path--inject-1--inject-2"><path d="M283,227.87s10.65,22.73,10.65,23.93-9.45,6.34-11.25,7.42a43.72,43.72,0,0,1-4.31,2.15l1.08,10.53s16.27-3.71,23.09-7.42,6.58-7.9,5-14.12-12.09-30.26-12.09-30.26Z" style="fill:#fff;stroke:#263238;stroke-linecap:round;stroke-linejoin:round"></path></clipPath><clipPath id="freepik--clip-path-2--inject-1--inject-2"><path d="M206.16,222.85s-7.77,28.47-8,33.5,15.43,14.95,16,15.55-.89-17.3-.89-17.3l5.31-26Z" style="fill:#fff;stroke:#263238;stroke-linecap:round;stroke-linejoin:round"></path></clipPath><clipPath id="freepik--clip-path-3--inject-1--inject-2"><path d="M231.05,175.83s3.11,11,9,17.47,8,8,11.13,7.53,6.46-4.54,11.12-13,5-14.95,5.39-15.55-1-12.56-7.66-17.71-14.12-7.41-20.58-1.79S228.89,167.57,231.05,175.83Z" style="fill:#fff;stroke:#263238;stroke-linecap:round;stroke-linejoin:round"></path></clipPath></defs><g id="freepik--background-simple--inject-1--inject-2"><path d="M424.57,219.77c1.53-41.42-13.35-83.34-46.15-103.29-16.19-9.85-35.12-15.62-54.06-14.77-20.32.91-39.45,9.18-58.61,16s-39.91,12.27-59.66,7.43c-14.29-3.5-26.86-12.15-41-16.09C109.38,93.54,60.87,156.75,88.13,207c6.69,12.32,17,22.2,25.67,33.23s15.94,24.35,14.77,38.32c-1,11.57-7.56,21.87-10.29,33.15-5.22,21.61,5.14,45.38,23.05,58.55S183.4,386.49,205,381.07s40.6-18.68,55.57-35.1c8-8.8,15.84-19.08,27.35-22.07,11.05-2.86,22.44,1.8,33.65,3.94a77.49,77.49,0,0,0,59.77-13.6C408.39,294.23,423.19,257.2,424.57,219.77Z" style="fill:#407BFF"></path><path d="M424.57,219.77c1.53-41.42-13.35-83.34-46.15-103.29-16.19-9.85-35.12-15.62-54.06-14.77-20.32.91-39.45,9.18-58.61,16s-39.91,12.27-59.66,7.43c-14.29-3.5-26.86-12.15-41-16.09C109.38,93.54,60.87,156.75,88.13,207c6.69,12.32,17,22.2,25.67,33.23s15.94,24.35,14.77,38.32c-1,11.57-7.56,21.87-10.29,33.15-5.22,21.61,5.14,45.38,23.05,58.55S183.4,386.49,205,381.07s40.6-18.68,55.57-35.1c8-8.8,15.84-19.08,27.35-22.07,11.05-2.86,22.44,1.8,33.65,3.94a77.49,77.49,0,0,0,59.77-13.6C408.39,294.23,423.19,257.2,424.57,219.77Z" style="fill:#fff;opacity:0.7000000000000001"></path></g><g id="freepik--Shadow--inject-1--inject-2"><ellipse cx="246.39" cy="422.16" rx="135.21" ry="27.04" style="fill:#407BFF"></ellipse><ellipse cx="246.39" cy="422.16" rx="135.21" ry="27.04" style="fill:#fff;opacity:0.5"></ellipse></g><g id="freepik--graphics-2--inject-1--inject-2"><rect x="286.41" y="62.45" width="109.55" height="119.53" rx="6.03" style="fill:#fff;stroke:#263238;stroke-linecap:round;stroke-linejoin:round"></rect><path d="M292.44,62.45h97.48a6,6,0,0,1,6,6v6.26a0,0,0,0,1,0,0H286.41a0,0,0,0,1,0,0V68.48A6,6,0,0,1,292.44,62.45Z" style="fill:#263238;stroke:#263238;stroke-linecap:round;stroke-linejoin:round"></path><line x1="292.38" y1="126.27" x2="336.46" y2="126.27" style="fill:none;stroke:#263238;stroke-linecap:round;stroke-linejoin:round"></line><line x1="292.38" y1="131.96" x2="336.46" y2="131.96" style="fill:none;stroke:#263238;stroke-linecap:round;stroke-linejoin:round"></line><line x1="292.38" y1="137.65" x2="336.46" y2="137.65" style="fill:none;stroke:#263238;stroke-linecap:round;stroke-linejoin:round"></line><line x1="292.38" y1="143.34" x2="336.46" y2="143.34" style="fill:none;stroke:#263238;stroke-linecap:round;stroke-linejoin:round"></line><line x1="292.38" y1="149.03" x2="336.46" y2="149.03" style="fill:none;stroke:#263238;stroke-linecap:round;stroke-linejoin:round"></line><line x1="292.38" y1="154.73" x2="336.46" y2="154.73" style="fill:none;stroke:#263238;stroke-linecap:round;stroke-linejoin:round"></line><line x1="292.38" y1="160.42" x2="336.46" y2="160.42" style="fill:none;stroke:#263238;stroke-linecap:round;stroke-linejoin:round"></line><line x1="292.38" y1="166.11" x2="336.46" y2="166.11" style="fill:none;stroke:#263238;stroke-linecap:round;stroke-linejoin:round"></line><line x1="292.38" y1="171.8" x2="336.46" y2="171.8" style="fill:none;stroke:#263238;stroke-linecap:round;stroke-linejoin:round"></line><line x1="344.21" y1="126.27" x2="388.29" y2="126.27" style="fill:none;stroke:#263238;stroke-linecap:round;stroke-linejoin:round"></line><line x1="344.21" y1="131.96" x2="388.29" y2="131.96" style="fill:none;stroke:#263238;stroke-linecap:round;stroke-linejoin:round"></line><line x1="344.21" y1="137.65" x2="388.29" y2="137.65" style="fill:none;stroke:#263238;stroke-linecap:round;stroke-linejoin:round"></line><line x1="344.21" y1="143.34" x2="388.29" y2="143.34" style="fill:none;stroke:#263238;stroke-linecap:round;stroke-linejoin:round"></line><line x1="344.21" y1="149.03" x2="388.29" y2="149.03" style="fill:none;stroke:#263238;stroke-linecap:round;stroke-linejoin:round"></line><line x1="344.21" y1="154.73" x2="388.29" y2="154.73" style="fill:none;stroke:#263238;stroke-linecap:round;stroke-linejoin:round"></line><line x1="344.21" y1="160.42" x2="388.29" y2="160.42" style="fill:none;stroke:#263238;stroke-linecap:round;stroke-linejoin:round"></line><line x1="344.21" y1="166.11" x2="388.29" y2="166.11" style="fill:none;stroke:#263238;stroke-linecap:round;stroke-linejoin:round"></line><line x1="344.21" y1="171.8" x2="388.29" y2="171.8" style="fill:none;stroke:#263238;stroke-linecap:round;stroke-linejoin:round"></line><path d="M321.86,90.24a7.08,7.08,0,0,0,.34-2.09c0-2.59-2.63-2.74-5.21-2.74h-.65V84.8H327.6v.61c-2.93,0-4,1.87-4.91,4.64l-6,17.91c-.45,1.33-.83,2.32-2.24,2.32h-.12l-5.28-17.11L304.14,108c-.46,1.33-.84,2.32-2.25,2.32h-.11L294.1,85.41h-2.7V84.8h9.88v.61h-2.81l5.7,19.62h.23L308.7,92l-2-6.54H304V84.8h9.89v.61h-2.81l5.7,19.62H317Z" style="fill:#407BFF"></path><rect x="343.24" y="79.13" width="45.36" height="41" style="fill:#407BFF;stroke:#263238;stroke-linecap:round;stroke-linejoin:round;stroke-width:2px"></rect><path d="M388.6,96.27a28,28,0,0,0-4.52.63c-6.89,1.5-8.69,11.39-16.48,11.39-6.9,0-7.49-9.29-17.38-10.49a10.92,10.92,0,0,0-7,1.24v21.09H388.6Z" style="fill:#263238;stroke:#263238;stroke-linecap:round;stroke-linejoin:round"></path><path d="M358.31,88.51a5.1,5.1,0,1,1-5.09-5.09A5.09,5.09,0,0,1,358.31,88.51Z" style="fill:#fff;stroke:#263238;stroke-linecap:round;stroke-linejoin:round"></path><rect x="289.7" y="66.04" width="100.97" height="3.89" style="fill:#fff;stroke:#263238;stroke-linecap:round;stroke-linejoin:round"></rect><path d="M384.37,205.83H340.66a6.48,6.48,0,0,0-6.48,6.48v23.38a6.48,6.48,0,0,0,6.48,6.48H342c-1.36,3-4,7.6-8.17,10.33,0,0,8.87-.62,18.11-10.33h32.41a6.48,6.48,0,0,0,6.48-6.48V212.31A6.48,6.48,0,0,0,384.37,205.83Z" style="fill:#263238;stroke:#263238;stroke-linecap:round;stroke-linejoin:round"></path><path d="M355,223.17a3.34,3.34,0,1,0-3.33,3.33A3.34,3.34,0,0,0,355,223.17Z" style="fill:#407BFF;stroke:#263238;stroke-linecap:round;stroke-linejoin:round"></path><path d="M366.33,223.17A3.33,3.33,0,1,0,363,226.5,3.34,3.34,0,0,0,366.33,223.17Z" style="fill:#407BFF;stroke:#263238;stroke-linecap:round;stroke-linejoin:round"></path><path d="M377.67,223.17a3.34,3.34,0,1,0-3.34,3.33A3.35,3.35,0,0,0,377.67,223.17Z" style="fill:#407BFF;stroke:#263238;stroke-linecap:round;stroke-linejoin:round"></path></g><g id="freepik--graphics-1--inject-1--inject-2"><path d="M144,76.63H216a6.46,6.46,0,0,1,6.46,6.46V133a0,0,0,0,1,0,0H137.57a0,0,0,0,1,0,0V83.09A6.46,6.46,0,0,1,144,76.63Z" style="fill:#407BFF;stroke:#263238;stroke-linecap:round;stroke-linejoin:round"></path><rect x="137.57" y="124.95" width="84.85" height="8.02" style="fill:#263238;stroke:#263238;stroke-linecap:round;stroke-linejoin:round"></rect><rect x="141.46" y="127.69" width="77.08" height="2.54" style="fill:#fff;stroke:#263238;stroke-linecap:round;stroke-linejoin:round"></rect><circle cx="180" cy="102.21" r="11.72" style="fill:#263238;stroke:#263238;stroke-linecap:round;stroke-linejoin:round"></circle><polygon points="174.71 94.92 187.36 102.22 174.71 109.52 174.71 94.92" style="fill:#fff;stroke:#263238;stroke-linecap:round;stroke-linejoin:round"></polygon><rect x="102.37" y="153.5" width="86.17" height="36.33" rx="2.82" style="fill:#263238;stroke:#263238;stroke-linecap:round;stroke-linejoin:round"></rect><path d="M112.63,158.45l.42.7c-1.9,1.06-3.67,2.92-3.67,5.1a2.82,2.82,0,0,0,2.69,3c.28,0,.47-.14.47-.42s-.14-.37-.42-.42a1.65,1.65,0,0,1-1.21-1.76,2.29,2.29,0,0,1,2.46-2.23,2.52,2.52,0,0,1,2.51,2.6,3.15,3.15,0,0,1-3.3,3.11,3.76,3.76,0,0,1-4-3.9C108.55,161.7,110.5,159.66,112.63,158.45Zm8.59,0,.42.7c-1.91,1.06-3.67,2.92-3.67,5.1a2.81,2.81,0,0,0,2.69,3c.28,0,.47-.14.47-.42s-.14-.37-.42-.42a1.65,1.65,0,0,1-1.21-1.76,2.28,2.28,0,0,1,2.46-2.23,2.52,2.52,0,0,1,2.51,2.6,3.16,3.16,0,0,1-3.3,3.11,3.77,3.77,0,0,1-4-3.9C117.13,161.7,119.08,159.66,121.22,158.45Z" style="fill:#407BFF"></path><line x1="129.44" y1="165.85" x2="178.48" y2="165.85" style="fill:none;stroke:#fff;stroke-linecap:round;stroke-linejoin:round"></line><line x1="129.44" y1="170.06" x2="178.48" y2="170.06" style="fill:none;stroke:#fff;stroke-linecap:round;stroke-linejoin:round"></line><line x1="129.44" y1="174.27" x2="178.48" y2="174.27" style="fill:none;stroke:#fff;stroke-linecap:round;stroke-linejoin:round"></line><line x1="129.44" y1="178.49" x2="178.48" y2="178.49" style="fill:none;stroke:#fff;stroke-linecap:round;stroke-linejoin:round"></line><circle cx="166.82" cy="227.83" r="18.57" transform="translate(-34.53 29.85) rotate(-9.27)" style="fill:#263238;stroke:#263238;stroke-linecap:round;stroke-linejoin:round"></circle><circle cx="166.82" cy="227.83" r="15.67" transform="translate(-114.45 202.86) rotate(-48.71)" style="fill:#fff;stroke:#263238;stroke-linecap:round;stroke-linejoin:round"></circle><polyline points="166.82 216.5 166.82 227.83 174.48 227.83" style="fill:none;stroke:#263238;stroke-linecap:round;stroke-linejoin:round;stroke-width:2px"></polyline></g><g id="freepik--Character--inject-1--inject-2"><path d="M283,227.87s10.65,22.73,10.65,23.93-9.45,6.34-11.25,7.42a43.72,43.72,0,0,1-4.31,2.15l1.08,10.53s16.27-3.71,23.09-7.42,6.58-7.9,5-14.12-12.09-30.26-12.09-30.26Z" style="fill:#fff"></path><g style="clip-path:url(#freepik--clip-path--inject-1--inject-2)"><path d="M302.23,264.48c6.82-3.71,6.58-7.9,5-14.12s-12.09-30.26-12.09-30.26l-1.7,1.08-.54,1s9.81,24.08,10.4,32.1c.4,5.39-10.45,12.11-17.62,15.95C291,268.82,298.24,266.65,302.23,264.48Z" style="fill:#407BFF;opacity:0.5;mix-blend-mode:multiply"></path></g><path d="M283,227.87s10.65,22.73,10.65,23.93-9.45,6.34-11.25,7.42a43.72,43.72,0,0,1-4.31,2.15l1.08,10.53s16.27-3.71,23.09-7.42,6.58-7.9,5-14.12-12.09-30.26-12.09-30.26Z" style="fill:none;stroke:#263238;stroke-linecap:round;stroke-linejoin:round"></path><path d="M206.16,222.85s-7.77,28.47-8,33.5,15.43,14.95,16,15.55-.89-17.3-.89-17.3l5.31-26Z" style="fill:#fff"></path><g style="clip-path:url(#freepik--clip-path-2--inject-1--inject-2)"><path d="M209.72,225.18l-.17-.77-3.39-1.56s-7.77,28.47-8,33.5,15.43,14.95,16,15.55c.23.24.14-2.44-.05-5.75-4.66-3.95-11.35-9.51-12.13-11.85" style="fill:#407BFF;opacity:0.5;mix-blend-mode:multiply"></path></g><path d="M206.16,222.85s-7.77,28.47-8,33.5,15.43,14.95,16,15.55-.89-17.3-.89-17.3l5.31-26Z" style="fill:none;stroke:#263238;stroke-linecap:round;stroke-linejoin:round"></path><path d="M242.65,194.25s-3,2.16-8.85,2.4-6.13-4-13.4-4c-8.81,0-19.86,27.87-19.86,27.87s5.5,5.39,10.89,7.66a38.62,38.62,0,0,0,9.33,2.75l.84,18.31h59.34l.71-18.31L300.2,218.9s-9.1-16.27-13.52-22.37-11.85-3.83-14.12-2.28-9,1.92-11.48,1.56a99.14,99.14,0,0,1-9.58-2.63S247.68,190,242.65,194.25Z" style="fill:#407BFF;stroke:#263238;stroke-linecap:round;stroke-linejoin:round"></path><line x1="221.36" y1="200.71" x2="221.12" y2="231.1" style="fill:none;stroke:#263238;stroke-linecap:round;stroke-linejoin:round;stroke-width:0.5px"></line><path d="M223.51,203.47s.84,14.83,4,23.09" style="fill:none;stroke:#263238;stroke-linecap:round;stroke-linejoin:round;stroke-width:0.5px"></path><path d="M228.06,227.75a40.79,40.79,0,0,0,2.51,5.86" style="fill:none;stroke:#263238;stroke-linecap:round;stroke-linejoin:round;stroke-width:0.5px"></path><path d="M225.42,201.79a94.91,94.91,0,0,0,4.79,15.79" style="fill:none;stroke:#263238;stroke-linecap:round;stroke-linejoin:round;stroke-width:0.5px"></path><path d="M277,204.42s-2.87,11.73-5.39,17" style="fill:none;stroke:#263238;stroke-linecap:round;stroke-linejoin:round;stroke-width:0.5px"></path><line x1="281.65" y1="230.98" x2="281.53" y2="207.29" style="fill:none;stroke:#263238;stroke-linecap:round;stroke-linejoin:round;stroke-width:0.5px"></line><path d="M280.34,207.77s-2.16,15-7.42,22.85" style="fill:none;stroke:#263238;stroke-linecap:round;stroke-linejoin:round;stroke-width:0.5px"></path><path d="M277.71,227.63s-2.4,4.55-4.07,6.94" style="fill:none;stroke:#263238;stroke-linecap:round;stroke-linejoin:round;stroke-width:0.5px"></path><path d="M239.3,196.05s1.68,10.29,4.07,15.55,6.58,6.34,10.17,4.79,6.22-9.22,6-19" style="fill:none;stroke:#263238;stroke-linecap:round;stroke-linejoin:round;stroke-width:0.5px"></path><path d="M230.81,174.51s-2.28-3.94-4.07-1.91,1.44,6.7,3.23,8.25,3.11.6,3-1.07S230.81,174.51,230.81,174.51Z" style="fill:#407BFF;stroke:#263238;stroke-linecap:round;stroke-linejoin:round"></path><path d="M230.81,174.51s-2.28-3.94-4.07-1.91,1.44,6.7,3.23,8.25,3.11.6,3-1.07S230.81,174.51,230.81,174.51Z" style="fill:#fff;opacity:0.5"></path><path d="M230.81,174.51s-2.28-3.94-4.07-1.91,1.44,6.7,3.23,8.25,3.11.6,3-1.07S230.81,174.51,230.81,174.51Z" style="fill:none;stroke:#263238;stroke-linecap:round;stroke-linejoin:round"></path><path d="M267,174.51s2.27-3.94,4.07-1.91-1.44,6.7-3.23,8.25-3.12.6-3-1.07S267,174.51,267,174.51Z" style="fill:#407BFF;stroke:#263238;stroke-linecap:round;stroke-linejoin:round"></path><path d="M267,174.51s2.27-3.94,4.07-1.91-1.44,6.7-3.23,8.25-3.12.6-3-1.07S267,174.51,267,174.51Z" style="fill:#fff;opacity:0.5"></path><path d="M267,174.51s2.27-3.94,4.07-1.91-1.44,6.7-3.23,8.25-3.12.6-3-1.07S267,174.51,267,174.51Z" style="fill:none;stroke:#263238;stroke-linecap:round;stroke-linejoin:round"></path><path d="M241.57,193.42a128.86,128.86,0,0,0,4.31,15.07c2.16,5.38,6.22,5.38,7.9,1.91S256.53,194,256.53,194,245.28,195.57,241.57,193.42Z" style="fill:#fff;stroke:#263238;stroke-linecap:round;stroke-linejoin:round"></path><path d="M231.05,175.83s3.11,11,9,17.47,8,8,11.13,7.53,6.46-4.54,11.12-13,5-14.95,5.39-15.55-1-12.56-7.66-17.71-14.12-7.41-20.58-1.79S228.89,167.57,231.05,175.83Z" style="fill:#fff"></path><g style="clip-path:url(#freepik--clip-path-3--inject-1--inject-2)"><path d="M260,154.53c-6.7-5.14-14.12-7.41-20.58-1.79s-10.53,14.83-8.37,23.09c0,0,.59,2.12,1.76,5a3.78,3.78,0,0,1,.15-1.09c1.43-4.53,5.65-13.3,19.85-9.28,11.28,3.18,9.9,13.1,8.85,18.39l.61-1.1c4.67-8.49,5-14.95,5.39-15.55S266.7,159.68,260,154.53Z" style="fill:#407BFF;opacity:0.5;mix-blend-mode:multiply"></path></g><path d="M231.05,175.83s3.11,11,9,17.47,8,8,11.13,7.53,6.46-4.54,11.12-13,5-14.95,5.39-15.55-1-12.56-7.66-17.71-14.12-7.41-20.58-1.79S228.89,167.57,231.05,175.83Z" style="fill:none;stroke:#263238;stroke-linecap:round;stroke-linejoin:round"></path><path d="M251.15,181.57a48.77,48.77,0,0,0-.6,7.06c.12,2.39.84,3.11-.24,3.35s-2.27-1.44-2.27-1.44" style="fill:none;stroke:#263238;stroke-linecap:round;stroke-linejoin:round"></path><path d="M239.18,183.49a4.24,4.24,0,0,0,4.79.12" style="fill:none;stroke:#263238;stroke-linecap:round;stroke-linejoin:round"></path><path d="M254.38,183.49a4.23,4.23,0,0,0,4.78.12" style="fill:none;stroke:#263238;stroke-linecap:round;stroke-linejoin:round"></path><path d="M246.82,179.46s-2.28-5.63-9.81-3" style="fill:none;stroke:#263238;stroke-linecap:round;stroke-linejoin:round"></path><path d="M253.09,178.77s1.91-5.51,8.73-2.28" style="fill:none;stroke:#263238;stroke-linecap:round;stroke-linejoin:round"></path><path d="M248.27,183.9c0,3.08-3.53,5.57-7.89,5.57s-7.9-2.49-7.9-5.57,3.3-4.36,7.66-4.36S248.27,180.83,248.27,183.9Z" style="fill:none;stroke:#263238;stroke-linecap:round;stroke-linejoin:round"></path><path d="M266.46,183.9c0,3.08-3.54,5.57-7.9,5.57s-7.89-2.49-7.89-5.57,3.29-4.36,7.65-4.36S266.46,180.83,266.46,183.9Z" style="fill:none;stroke:#263238;stroke-linecap:round;stroke-linejoin:round"></path><path d="M165.63,279.83l-.49,121.23a1.44,1.44,0,0,0,1.44,1.44h0a1.43,1.43,0,0,0,1.43-1.39L171.47,280Z" style="fill:#fff;stroke:#263238;stroke-linecap:round;stroke-linejoin:round"></path><path d="M157.47,308.17,157,433.5a1.43,1.43,0,0,0,1.44,1.44h0a1.44,1.44,0,0,0,1.44-1.38l3.45-125.23Z" style="fill:#fff;stroke:#263238;stroke-linecap:round;stroke-linejoin:round"></path><path d="M333.23,279.83l.49,121.23a1.43,1.43,0,0,1-1.43,1.44h0a1.44,1.44,0,0,1-1.44-1.39L327.4,280Z" style="fill:#fff;stroke:#263238;stroke-linecap:round;stroke-linejoin:round"></path><path d="M341.4,308.17l.49,125.33a1.43,1.43,0,0,1-1.44,1.44h0a1.43,1.43,0,0,1-1.43-1.38l-3.46-125.23Z" style="fill:#fff;stroke:#263238;stroke-linecap:round;stroke-linejoin:round"></path><path d="M214.29,313.38,214,424.62a1.08,1.08,0,0,0,.91,1.19h0a1.07,1.07,0,0,0,.92-1.14L218,313.51Z" style="fill:#fff;stroke:#263238;stroke-linecap:round;stroke-linejoin:round"></path><path d="M284.7,309.8l.27,97.08a.92.92,0,0,1-.78,1h0a.91.91,0,0,1-.77-1l-1.85-97Z" style="fill:#fff;stroke:#263238;stroke-linecap:round;stroke-linejoin:round"></path><path d="M213.2,309.8l.27,97.08a.92.92,0,0,1-.78,1h0a.91.91,0,0,1-.77-1l-1.85-97Z" style="fill:#fff;stroke:#263238;stroke-linecap:round;stroke-linejoin:round"></path><path d="M282.69,313.38,283,424.62a1.08,1.08,0,0,1-.91,1.19h0a1.08,1.08,0,0,1-.92-1.14L279,313.51Z" style="fill:#fff;stroke:#263238;stroke-linecap:round;stroke-linejoin:round"></path><ellipse cx="248" cy="311" rx="44.5" ry="10.17" style="fill:#fff;stroke:#263238;stroke-linecap:round;stroke-linejoin:round"></ellipse><path d="M226.33,397.33s-2.33,3.34-.66,5,3.33,1,3.16,2.67-2.83,7.33-5.16,13.33,2.5,12,7,10.34,4-18.34,4.66-21.34,1.17-3.5,1-6.33-.33-5.83-2.5-6.17S227.33,396.17,226.33,397.33Z" style="fill:#fff;stroke:#263238;stroke-linecap:round;stroke-linejoin:round"></path><path d="M233.48,424.07c-3-1.14-7.6-.91-10.19-.65.87,3.77,4.2,6.42,7.38,5.25C232,428.18,232.87,426.4,233.48,424.07Z" style="fill:#407BFF;stroke:#263238;stroke-linecap:round;stroke-linejoin:round"></path><path d="M221.17,390s4.83,8.17,6.16,10.33,5.84,1.5,6.34-1.5-1.84-11.33-1.84-11.33l-10,2.5Z" style="fill:#fff;stroke:#263238;stroke-linecap:round;stroke-linejoin:round"></path><path d="M209.67,377s-1.34,2.17-.67,3.67,2.5,5.83,3.67,8,6.5,3.5,12.66,2.5,9.67-3.84,9.84-6.34-1-5.83-1.84-9.83-3-3.83-6-3.83S212.17,374.67,209.67,377Z" style="fill:#407BFF;stroke:#263238;stroke-linecap:round;stroke-linejoin:round"></path><path d="M227.67,328c.09-4.1,2.46-6.12,2.64-8.93A35.34,35.34,0,0,0,229.4,308l-4.56-6.23c-13.12.17-22.52.39-22.67.44-.5.16-.84,3-1.17,5.33,0,0-5.57.71-4.57,16.21.14,2.16,5.76,27.15,6.17,30,2.5,17.41,8.07,26.13,8.07,26.13s.5,2.17,7,1.67,13-4.83,13-4.83S227.33,342.83,227.67,328Z" style="fill:#263238;stroke:#263238;stroke-linecap:round;stroke-linejoin:round"></path><path d="M200.1,305s-6.89,1-11.11,5.82-.64,8,7.56,7.14,17.66-9.25,18.06-9.7S206.06,302.11,200.1,305Z" style="fill:#fff;stroke:#263238;stroke-linecap:round;stroke-linejoin:round"></path><path d="M212.33,308a65.07,65.07,0,0,1,13,2c5.67,1.67,15.67,5,18,5s1.67-8.67,1.67-10.33S215,302,211.33,302,212.33,308,212.33,308Z" style="fill:#fff;stroke:#263238;stroke-linecap:round;stroke-linejoin:round"></path><path d="M245,304.67s-2.67,1.33-3.67,6.33-2.33,7.67-.33,9,10.67,2.33,12,1,5-8,5.67-12.33S245,304.67,245,304.67Z" style="fill:#407BFF;stroke:#263238;stroke-linecap:round;stroke-linejoin:round"></path><path d="M256.33,306.33a20.89,20.89,0,0,0-3.66,6,55.76,55.76,0,0,0-1.67,7,65.06,65.06,0,0,1,9.33,3.34c5.34,2.33,14.34,4,23,6s11,4,14,4,6.67-2.34,11.34-8,.66-17.67-4-21.34-29.67-6.66-33-5.66S256.33,306.33,256.33,306.33Z" style="fill:#263238;stroke:#263238;stroke-linecap:round;stroke-linejoin:round"></path><path d="M193.79,318.05a20.09,20.09,0,0,0-3.9-8.19c-.31.29-.61.59-.9.92C185.28,315,187.6,318,193.79,318.05Z" style="fill:#407BFF;stroke:#263238;stroke-linecap:round;stroke-linejoin:round"></path><path d="M227.16,320.69s-3.44,36.81-10.46,42.54" style="fill:none;stroke:#fff;stroke-linecap:round;stroke-linejoin:round;stroke-width:0.5px"></path><path d="M224.73,355.63s-2.73,12-9.89,16.77" style="fill:none;stroke:#fff;stroke-linecap:round;stroke-linejoin:round;stroke-width:0.5px"></path><path d="M269,314s-10.67.67-3.67,5.33S285,327,285,327" style="fill:none;stroke:#fff;stroke-linecap:round;stroke-linejoin:round;stroke-width:0.5px"></path><path d="M346.46,301.39l-3.6-3.24-8.32-18a4.79,4.79,0,0,0-4.36-2.71H168.58a4.79,4.79,0,0,0-4.37,2.71l-10.37,22.42-1.71-.63v5.13l.08-.06a2.85,2.85,0,0,0,2.87,2.43H343.67a2.81,2.81,0,0,0,2.87-2.65Z" style="fill:#263238;stroke:#263238;stroke-linecap:round;stroke-linejoin:round"></path><path d="M343.67,304.75H155.08a2.76,2.76,0,0,1-2.64-3.86l11.77-25.43a4.77,4.77,0,0,1,4.37-2.71h161.6a4.77,4.77,0,0,1,4.36,2.71l11.77,25.43A2.76,2.76,0,0,1,343.67,304.75Z" style="fill:#fff;stroke:#263238;stroke-linecap:round;stroke-linejoin:round"></path><path d="M164.63,287.67s-4.27,2.93-1.6,4,33.36.27,37.1-.8,8-10.94,8-12.54-5.38-2.75-7.36-2.84-28.14,1.5-28.14,1.5Z" style="fill:#407BFF;opacity:0.5;mix-blend-mode:multiply"></path><ellipse cx="317.29" cy="288.2" rx="10.94" ry="4.54" style="fill:#407BFF;opacity:0.5;mix-blend-mode:multiply"></ellipse><ellipse cx="247.64" cy="291.01" rx="39.23" ry="7.34" style="fill:#407BFF;opacity:0.5;mix-blend-mode:multiply"></ellipse><path d="M309.29,270.34s-.72-2.87-3.11-1.91-2.15,7.3-1.68,10.89,3.71,1.91,3.71,1.91v-2.15s-1.19.95-1.79-.36-.48-7.9.12-7.78,1.79,2.15,1.79,2.15S308.69,272.86,309.29,270.34Z" style="fill:#407BFF;stroke:#263238;stroke-linecap:round;stroke-linejoin:round"></path><path d="M307.57,270.82v15.72c0,1.85,4.25,3.35,9.5,3.35s9.49-1.5,9.49-3.35V270.82Z" style="fill:#407BFF;stroke:#263238;stroke-linecap:round;stroke-linejoin:round"></path><path d="M326.56,270.82c0,1.6-4.25,2.89-9.49,2.89s-9.5-1.29-9.5-2.89,4.25-2.89,9.5-2.89S326.56,269.23,326.56,270.82Z" style="fill:#fff;stroke:#263238;stroke-linecap:round;stroke-linejoin:round"></path><path d="M325.32,270.82c0,1.39-3.7,2.51-8.25,2.51s-8.26-1.12-8.26-2.51,3.7-2.51,8.26-2.51S325.32,269.43,325.32,270.82Z" style="fill:#fff;stroke:#263238;stroke-linecap:round;stroke-linejoin:round"></path><path d="M310.7,272.42a22.72,22.72,0,0,0,12.73,0,22.72,22.72,0,0,0-12.73,0Z" style="fill:#263238;stroke:#263238;stroke-linecap:round;stroke-linejoin:round"></path><polygon points="163.45 278 163.57 283.38 199.82 283.74 199.82 277.52 163.45 278" style="fill:#fff;stroke:#263238;stroke-linecap:round;stroke-linejoin:round"></polygon><polygon points="199.82 283.74 205.09 272.38 205.09 269.03 199.58 278.6 199.82 283.74" style="fill:#fff;stroke:#263238;stroke-linecap:round;stroke-linejoin:round"></polygon><polygon points="163.45 282.9 163.57 288.29 199.82 288.65 199.82 282.43 163.45 282.9" style="fill:#fff;stroke:#263238;stroke-linecap:round;stroke-linejoin:round"></polygon><polygon points="199.82 288.65 205.09 277.28 205.09 273.93 199.58 283.5 199.82 288.65" style="fill:#fff;stroke:#263238;stroke-linecap:round;stroke-linejoin:round"></polygon><path d="M177.45,264.36s.84-1.67-.36-2.39-2.51,1-3.23,1.55-15.79,10.53-16.27,12.09,0,5,3.23,5.38,6.1-1.79,7.54-2.15,2-.48,2-.48l9.93-13.4Z" style="fill:#fff;stroke:#263238;stroke-linecap:round;stroke-linejoin:round"></path><path d="M160.82,281c3.23.36,6.1-1.79,7.54-2.15s2-.48,2-.48l.36-.49-9.33-1.9a3.13,3.13,0,0,0-3.83-.36C157.11,277.16,157.59,280.63,160.82,281Z" style="fill:#fff;stroke:#263238;stroke-linecap:round;stroke-linejoin:round"></path><path d="M161.42,276h28c8.74,0,11.37-.48,11.37-.48l5.38-11.13s-17,1.08-22.25.72a39.59,39.59,0,0,1-6.46-.72Z" style="fill:#fff;stroke:#263238;stroke-linecap:round;stroke-linejoin:round"></path><path d="M161.42,276l.48,2.15s22.73.12,28.71.12,10.53.24,10.53.24l-.36-3Z" style="fill:#fff;stroke:#263238;stroke-linecap:round;stroke-linejoin:round"></path><polygon points="201.14 278.48 206.16 266.99 206.16 264.36 200.78 275.49 201.14 278.48" style="fill:#fff;stroke:#263238;stroke-linecap:round;stroke-linejoin:round"></polygon><path d="M281.9,291.92H213.35a1.15,1.15,0,0,1-1.16-1.15h0a1.15,1.15,0,0,1,1.16-1.15H281.9a1.14,1.14,0,0,1,1.15,1.15h0A1.14,1.14,0,0,1,281.9,291.92Z" style="fill:#fff;stroke:#263238;stroke-linecap:round;stroke-linejoin:round"></path><path d="M282.48,289.6H212.76a1,1,0,0,1-1-.94l-3.79-45.55a1,1,0,0,1,1-1.12h77.31a1,1,0,0,1,1,1.12l-3.79,45.55A1,1,0,0,1,282.48,289.6Z" style="fill:#fff;stroke:#263238;stroke-linecap:round;stroke-linejoin:round"></path><path d="M254.2,266.58c0,2.72-2.95,4.92-6.58,4.92s-6.59-2.2-6.59-4.92,2.95-4.91,6.59-4.91S254.2,263.87,254.2,266.58Z" style="fill:#fff;stroke:#263238;stroke-linecap:round;stroke-linejoin:round"></path><path d="M322.33,231a5.94,5.94,0,0,0,2.13-3.33,6.15,6.15,0,0,0-.07-3" style="fill:none;stroke:#263238;stroke-linecap:round;stroke-linejoin:round"></path><path d="M314.35,266.66s6.65-4,4.48-8.57-9.51-7.6-9.51-14.72c0-6.14,6.53-8.41,10.79-10.87" style="fill:none;stroke:#263238;stroke-linecap:round;stroke-linejoin:round"></path><path d="M320.49,266.53s3.71-2.47,3.71-6.39c0-2.63-2.81-4.35-6.52-8.58" style="fill:none;stroke:#263238;stroke-linecap:round;stroke-linejoin:round"></path><path d="M315.63,249s-2.43-1.91-.64-5.5" style="fill:none;stroke:#263238;stroke-linecap:round;stroke-linejoin:round"></path><path d="M259.33,144.25c1.19-.25,3.74-1.23,5.46-5.22a.5.5,0,0,0-.26-.66.51.51,0,0,0-.66.26c-1.58,3.66-3.84,4.47-4.78,4.65a11.48,11.48,0,0,0,2.63-7.23c0-6.94-6.43-12.56-14.36-12.56S233,129.11,233,136.05a11.48,11.48,0,0,0,2.4,7c-1.51-.08-4.06.56-7.29,4.33a.51.51,0,0,0,0,.71.52.52,0,0,0,.33.12.49.49,0,0,0,.38-.18c4.13-4.81,6.86-4,7.41-3.78a14.7,14.7,0,0,0-2.61,1.83c-4.61,4.15-7.42,12-7.06,18.54a24.11,24.11,0,0,0,4.55,12,27.9,27.9,0,0,0,8.13-9.1,76.41,76.41,0,0,0,4-8.17c0,2.93.38,6.47,1.92,9a12.76,12.76,0,0,0,11.22,6.56,10.57,10.57,0,0,0,2.35-.23.5.5,0,0,0,.32-.25c3.86.82,7.7.75,8.29-.07.95-1.31,2.3-5.4,2.75-10.4C270.91,155.48,265.57,148.12,259.33,144.25Zm-13.24,23.49c-1.94-3.17-1.88-8.34-1.65-11.31l.13-.34a20.36,20.36,0,0,0,8.13,15.67,14.65,14.65,0,0,0,4.43,2.07C254.68,174,249.64,173.53,246.09,167.74Z" style="fill:#263238"></path><path d="M246.26,152s-.82,6.06,6.88,12,15,3.6,15,3.6" style="fill:none;stroke:#fff;stroke-linecap:round;stroke-linejoin:round;stroke-width:0.5px"></path><path d="M247.39,150s8.11,11.81,19.31,8.73" style="fill:none;stroke:#fff;stroke-linecap:round;stroke-linejoin:round;stroke-width:0.5px"></path><path d="M243.38,146.07a7.83,7.83,0,0,0-8.11.62c-4.31,2.87-6.47,9.65-6.47,9.65" style="fill:none;stroke:#fff;stroke-linecap:round;stroke-linejoin:round;stroke-width:0.5px"></path><path d="M243.59,149.36s-3.49-.93-5.65,1.23a13.92,13.92,0,0,0-2.67,3.29" style="fill:none;stroke:#fff;stroke-linecap:round;stroke-linejoin:round;stroke-width:0.5px"></path></g></svg>