<svg xmlns="http://www.w3.org/2000/svg" viewBox="0 0 500 500"><g id="freepik--background-simple--inject-2"><path d="M449.42,406.85c-.37.66-.73,1.33-1.11,2s-.83,1.44-1.26,2.15-.79,1.28-1.19,1.91-1,1.54-1.51,2.3c-.37.55-.74,1.09-1.13,1.64-.5.71-1,1.41-1.52,2.1s-.86,1.14-1.3,1.7q-1.41,1.83-2.93,3.6c-.5.59-1,1.16-1.53,1.74v0c-.5.55-1,1.1-1.52,1.65l-.07.09c-.5.53-1,1-1.51,1.57s-1.23,1.24-1.86,1.84c-.87.86-1.77,1.69-2.67,2.51l-.07.06c-.3.28-.59.53-.88.79-1,.91-2.07,1.79-3.13,2.66-.56.47-1.13.91-1.69,1.37l-2.18,1.67-1.14.84c-.2.13-.39.27-.58.41-.9.65-1.82,1.29-2.75,1.92l-2,1.3-.82.53c-.76.49-1.55,1-2.33,1.45s-1.56.94-2.36,1.39c-.31.18-.62.36-.93.52-.62.37-1.25.71-1.88,1.05-2.1,1.15-4.25,2.24-6.43,3.28-.74.36-1.48.71-2.23,1q-1.65.76-3.33,1.47c-.92.4-1.85.78-2.79,1.15l-.58.23c-.9.37-1.8.71-2.71,1.06l0,0c-.72.26-1.44.53-2.17.78s-1.33.48-2,.71l-2,.67-.27.09c-1,.32-1.95.63-2.92.93l-.27.08-3,.89-.55.16-2.88.79c-1,.28-2.07.54-3.11.8l-.21.05-.09,0c-1.05.27-2.11.51-3.16.76l-.1,0-3.07.68-.65.14c-1,.21-2.05.42-3.08.61s-2.3.44-3.46.64c-1.31.23-2.63.44-4,.65-1,.16-2,.31-3,.45h-.08c-2.25.32-4.5.61-6.78.87l-.68.07-3,.31-.42,0-3.42.3h0c-1.2.1-2.4.19-3.61.27h-.1c-1.13.08-2.25.15-3.38.2-2.65.16-5.33.26-8,.32-1.11,0-2.23.06-3.35.06s-2.49,0-3.74,0h0l-3.72,0h-1.92l-3-.08c-1.05,0-2.11-.06-3.17-.11-1.73-.06-3.48-.14-5.23-.24l-1.53-.09-2.27-.14-1.67-.12-.25,0-1.7-.13h0c-.71-.05-1.43-.11-2.14-.18-4.19-.35-8.4-.78-12.6-1.3-1.46-.17-2.93-.37-4.4-.57-1.26-.17-2.52-.34-3.79-.54s-2.39-.34-3.59-.53c-1.35-.21-2.7-.43-4-.66l-2.75-.47-2.49-.44-1.92-.36c-1-.18-1.93-.36-2.9-.56l-.79-.16-3.4-.68-1.14-.25c-.81-.16-1.61-.34-2.41-.52l-2.21-.48-5.77-1.34c-3.07-.74-6.13-1.53-9.19-2.35-1.72-.45-3.44-.93-5.15-1.41-1.33-.38-2.64-.75-3.95-1.14l-3.65-1.09-.54-.16L204.3,453l-.44-.13-3.33-1.08-.81-.27c-1-.31-1.91-.63-2.86-1-2.56-.87-5.09-1.76-7.62-2.68l-3.93-1.46c-1.16-.44-2.32-.88-3.48-1.34-7.05-2.73-13.94-5.68-20.65-8.8l-2-.91q-8.31-3.94-16.21-8.24l-1.27-.7c-.55-.3-1.12-.61-1.67-.93q-11-6.15-21-13l-2.71-1.89c-1-.7-2-1.4-2.93-2.11s-1.93-1.42-2.88-2.14q-4.26-3.22-8.26-6.57l-2.64-2.25c-1.43-1.25-2.83-2.51-4.2-3.76-.7-.66-1.41-1.31-2.09-2q-2.51-2.37-4.86-4.82c-.34-.35-.68-.69-1-1.05q-1.69-1.79-3.31-3.59l-.12-.13c-.67-.77-1.34-1.53-2-2.3-.35-.4-.7-.81-1-1.22l-1-1.22-.86-1.08c-1.11-1.38-2.17-2.76-3.19-4.16-.24-.33-.48-.65-.71-1-.6-.83-1.19-1.67-1.77-2.51C16.34,284.93,41.7,159.13,94,93.81,123.31,57.27,150.31,56.53,202.89,52,571.71,20,399.23,167.08,415.56,235.46,430.68,298.83,479.59,351.23,449.42,406.85Z" style="fill:#FFC100;opacity:0.7000000000000001"></path><path d="M424.38,437l-.15.13c-.57.47-1.13.91-1.7,1.37s-1.44,1.12-2.18,1.67l-1.14.84-.57.41q-1.36,1-2.76,1.92l-1.95,1.3-.82.53c-.77.49-1.55,1-2.34,1.45s-1.56.94-2.35,1.39c-.31.18-.62.36-.93.52-.62.37-1.25.71-1.89,1.05q-3.15,1.72-6.43,3.28c-.74.36-1.48.71-2.23,1q-1.63.76-3.33,1.47c-.92.4-1.85.78-2.79,1.15l-.57.23c-.9.37-1.81.71-2.72,1.06l0,0c-.72.26-1.44.53-2.17.78s-1.33.48-2,.71l-2,.67-.28.09c-1,.32-1.94.63-2.92.93l-.26.08-3,.89-.56.16-2.87.79c-1,.28-2.07.54-3.11.8l-.21.05-.09,0c-1.05.27-2.11.51-3.17.76l-.09,0-3.08.68-.64.14c-1,.21-2,.42-3.09.61s-2.29.44-3.45.64c-1.32.23-2.64.44-4,.65l-3,.45h-.09c-2.24.32-4.49.61-6.77.87l-.69.07-3,.31-.42,0-3.42.3h-.05c-1.19.1-2.4.19-3.6.27h-.11c-1.12.08-2.24.15-3.37.2-2.66.16-5.33.26-8,.32l-3.36.06c-1.24,0-2.49,0-3.74,0h0l-3.72,0h-1.92l-3-.08c-1.06,0-2.12-.06-3.18-.11q-2.6-.09-5.22-.24l-1.53-.09-2.28-.14-1.66-.12-.25,0-1.71-.13h0c-.71-.05-1.43-.11-2.14-.18q-6.29-.53-12.6-1.3c-1.46-.17-2.92-.37-4.39-.57-1.26-.17-2.53-.34-3.8-.54s-2.39-.34-3.58-.53c-1.35-.21-2.7-.43-4-.66l-2.76-.47-2.49-.44-1.91-.36c-1-.18-1.94-.36-2.9-.56l-.8-.16-3.39-.68-1.14-.25c-.81-.16-1.62-.34-2.42-.52l-2.21-.48-5.76-1.34c-3.07-.74-6.14-1.53-9.2-2.35-1.72-.45-3.43-.93-5.15-1.41-1.32-.38-2.64-.75-3.95-1.14l-3.65-1.09-.54-.16c-1.14-.36-2.29-.71-3.43-1.08l-.44-.13-3.33-1.08-.81-.27c-1-.31-1.92-.63-2.87-1q-3.83-1.31-7.61-2.68l-3.94-1.46c-1.15-.44-2.31-.88-3.47-1.34-6.49-2.51-12.86-5.22-19.06-8.07Z" style="fill:#d3f4dd"></path><path d="M449.42,406.85c-.37.66-.73,1.33-1.11,2s-.83,1.44-1.26,2.15-.79,1.28-1.19,1.91-1,1.54-1.51,2.3c-.37.55-.74,1.09-1.13,1.64-.5.71-1,1.41-1.52,2.1s-.86,1.14-1.3,1.7q-1.41,1.83-2.93,3.6c-.5.59-1,1.16-1.53,1.74v0c-.5.55-1,1.1-1.52,1.65l-.07.09c-.5.53-1,1-1.51,1.57s-1.23,1.24-1.86,1.84c-.87.86-1.77,1.69-2.67,2.51l-.07.06c-.3.28-.59.53-.88.79-1,.91-2.07,1.79-3.13,2.66-.56.47-1.13.91-1.69,1.37l-2.18,1.67-1.14.84c-.2.13-.39.27-.58.41-.9.65-1.82,1.29-2.75,1.92l-2,1.3-.82.53c-.76.49-1.55,1-2.33,1.45s-1.56.94-2.36,1.39c-.31.18-.62.36-.93.52-.62.37-1.25.71-1.88,1.05-2.1,1.15-4.25,2.24-6.43,3.28-.74.36-1.48.71-2.23,1q-1.65.76-3.33,1.47c-.92.4-1.85.78-2.79,1.15l-.58.23c-.9.37-1.8.71-2.71,1.06l0,0c-.72.26-1.44.53-2.17.78s-1.33.48-2,.71l-2,.67-.27.09c-1,.32-1.95.63-2.92.93l-.27.08-3,.89-.55.16-2.88.79c-1,.28-2.07.54-3.11.8l-.21.05-.09,0c-1.05.27-2.11.51-3.16.76l-.1,0-3.07.68-.65.14c-1,.21-2.05.42-3.08.61s-2.3.44-3.46.64c-1.31.23-2.63.44-4,.65-1,.16-2,.31-3,.45h-.08c-2.25.32-4.5.61-6.78.87l-.68.07-3,.31-.42,0-3.42.3h0c-1.2.1-2.4.19-3.61.27h-.1c-1.13.08-2.25.15-3.38.2-2.65.16-5.33.26-8,.32-1.11,0-2.23.06-3.35.06s-2.49,0-3.74,0h0l-3.72,0h-1.92l-3-.08c-1.05,0-2.11-.06-3.17-.11-1.73-.06-3.48-.14-5.23-.24l-1.53-.09-2.27-.14-1.67-.12-.25,0-1.7-.13h0c-.71-.05-1.43-.11-2.14-.18-4.19-.35-8.4-.78-12.6-1.3-1.46-.17-2.93-.37-4.4-.57-1.26-.17-2.52-.34-3.79-.54s-2.39-.34-3.59-.53c-1.35-.21-2.7-.43-4-.66l-2.75-.47-2.49-.44-1.92-.36c-1-.18-1.93-.36-2.9-.56l-.79-.16-3.4-.68-1.14-.25c-.81-.16-1.61-.34-2.41-.52l-2.21-.48-5.77-1.34c-3.07-.74-6.13-1.53-9.19-2.35-1.72-.45-3.44-.93-5.15-1.41-1.33-.38-2.64-.75-3.95-1.14l-3.65-1.09-.54-.16L204.3,453l-.44-.13-3.33-1.08-.81-.27c-1-.31-1.91-.63-2.86-1-2.56-.87-5.09-1.76-7.62-2.68l-3.93-1.46c-1.16-.44-2.32-.88-3.48-1.34-7.05-2.73-13.94-5.68-20.65-8.8l-2-.91q-8.31-3.94-16.21-8.24l-1.27-.7c-.55-.3-1.12-.61-1.67-.93q-11-6.15-21-13l-2.71-1.89c-1-.7-2-1.4-2.93-2.11s-1.93-1.42-2.88-2.14q-4.26-3.22-8.26-6.57l-2.64-2.25c-1.43-1.25-2.83-2.51-4.2-3.76-.7-.66-1.41-1.31-2.09-2q-2.51-2.37-4.86-4.82c-.34-.35-.68-.69-1-1.05q-1.69-1.79-3.31-3.59l-.12-.13c-.67-.77-1.34-1.53-2-2.3-.35-.4-.7-.81-1-1.22l-1-1.22-.86-1.08c-1.11-1.38-2.17-2.76-3.19-4.16-.24-.33-.48-.65-.71-1-.6-.83-1.19-1.67-1.77-2.51C16.34,284.93,41.7,159.13,94,93.81,123.31,57.27,150.31,56.53,202.89,52,571.71,20,399.23,167.08,415.56,235.46,430.68,298.83,479.59,351.23,449.42,406.85Z" style="fill:#fff;opacity:0.7000000000000001"></path></g><g id="freepik--Floor--inject-2"><path d="M424.38,437l-.15.13c-.57.47-1.13.91-1.7,1.37s-1.44,1.12-2.18,1.67l-1.14.84-.57.41q-1.36,1-2.76,1.92l-1.95,1.3-.82.53c-.77.49-1.55,1-2.34,1.45s-1.56.94-2.35,1.39c-.31.18-.62.36-.93.52-.62.37-1.25.71-1.89,1.05q-3.15,1.72-6.43,3.28c-.74.36-1.48.71-2.23,1q-1.63.76-3.33,1.47c-.92.4-1.85.78-2.79,1.15l-.57.23c-.9.37-1.81.71-2.72,1.06l0,0c-.72.26-1.44.53-2.17.78s-1.33.48-2,.71l-2,.67-.28.09c-1,.32-1.94.63-2.92.93l-.26.08-3,.89-.56.16-2.87.79c-1,.28-2.07.54-3.11.8l-.21.05-.09,0c-1.05.27-2.11.51-3.17.76l-.09,0-3.08.68-.64.14c-1,.21-2,.42-3.09.61s-2.29.44-3.45.64c-1.32.23-2.64.44-4,.65l-3,.45h-.09c-2.24.32-4.49.61-6.77.87l-.69.07-3,.31-.42,0-3.42.3h-.05c-1.19.1-2.4.19-3.6.27h-.11c-1.12.08-2.24.15-3.37.2-2.66.16-5.33.26-8,.32l-3.36.06c-1.24,0-2.49,0-3.74,0h0l-3.72,0h-1.92l-3-.08c-1.06,0-2.12-.06-3.18-.11q-2.6-.09-5.22-.24l-1.53-.09-2.28-.14-1.66-.12-.25,0-1.71-.13h0c-.71-.05-1.43-.11-2.14-.18q-6.29-.53-12.6-1.3c-1.46-.17-2.92-.37-4.39-.57-1.26-.17-2.53-.34-3.8-.54s-2.39-.34-3.58-.53c-1.35-.21-2.7-.43-4-.66l-2.76-.47-2.49-.44-1.91-.36c-1-.18-1.94-.36-2.9-.56l-.8-.16-3.39-.68-1.14-.25c-.81-.16-1.62-.34-2.42-.52l-2.21-.48-5.76-1.34c-3.07-.74-6.14-1.53-9.2-2.35-1.72-.45-3.43-.93-5.15-1.41-1.32-.38-2.64-.75-3.95-1.14l-3.65-1.09-.54-.16c-1.14-.36-2.29-.71-3.43-1.08l-.44-.13-3.33-1.08-.81-.27c-1-.31-1.92-.63-2.87-1q-3.83-1.31-7.61-2.68l-3.94-1.46c-1.15-.44-2.31-.88-3.47-1.34-6.49-2.51-12.86-5.22-19.06-8.07Z" style="fill:#999"></path></g><g id="freepik--Wall--inject-2"><line x1="110.61" y1="406.38" x2="449.37" y2="406.38" style="fill:#fff;stroke:#000;stroke-miterlimit:10"></line><line x1="110.61" y1="436.81" x2="449.37" y2="436.81" style="fill:#fff;stroke:#000;stroke-miterlimit:10"></line></g><g id="freepik--light-switch--inject-2"><rect x="345.48" y="202.92" width="30.65" height="30.65" style="fill:none;stroke:#263238;stroke-linecap:round;stroke-linejoin:round"></rect><rect x="384.22" y="202.92" width="30.65" height="30.65" style="fill:none;stroke:#263238;stroke-linecap:round;stroke-linejoin:round"></rect><rect x="348.61" y="206.05" width="24.4" height="24.4" style="fill:#fff;stroke:#263238;stroke-miterlimit:10"></rect><line x1="360.81" y1="206.05" x2="360.81" y2="230.45" style="fill:#fff;stroke:#263238;stroke-miterlimit:10"></line><circle cx="399.54" cy="218.25" r="12.2" style="fill:#fff;stroke:#263238;stroke-miterlimit:10"></circle></g><g id="freepik--Switches--inject-2"><rect x="177.71" y="30.79" width="156.71" height="244.6" style="fill:#fff;stroke:#000;stroke-miterlimit:10"></rect><path d="M290.55,237.31H224.71a17.2,17.2,0,0,1-17.19-17.2h0c0-9.49,7.7-17.19,21-17.19h65.84c5.71,0,13.41,7.7,13.41,17.19h0A17.2,17.2,0,0,1,290.55,237.31Z" style="fill:#FFC100;stroke:#000;stroke-miterlimit:10"></path><circle cx="289.38" cy="220.36" r="13.53" transform="translate(25.34 470.52) rotate(-80.74)" style="fill:#fff"></circle><path d="M218.76,219c0-1.29.63-2.11,1.92-2.11s1.93.82,1.93,2.11v4.34a1.85,1.85,0,0,1-1.93,2.11c-1.29,0-1.92-.84-1.92-2.11Zm.92,4.39c0,.76.33,1.21,1,1.21s1-.45,1-1.21V219c0-.76-.31-1.21-1-1.21s-1,.45-1,1.21Z"></path><path d="M224.33,225.37h-.84V217h1.18l2,6.07V217h.82v8.4h-1l-2.14-6.79Z"></path><path d="M290.55,103.68H224.71a17.19,17.19,0,0,1-17.19-17.19h0c0-9.5,7.7-17.2,21-17.2h65.84c5.71,0,13.41,7.7,13.41,17.2h0A17.2,17.2,0,0,1,290.55,103.68Z" style="fill:#fff;stroke:#000;stroke-miterlimit:10"></path><path d="M257.63,103.68H224.71a17.19,17.19,0,0,1-17.19-17.19h0c0-9.5,7.7-17.2,21-17.2h29.13Z" style="fill:#263238"></path><circle cx="257.38" cy="86.49" r="17.19" style="fill:#fff;stroke:#263238;stroke-miterlimit:10"></circle><path d="M218.76,85c0-1.29.63-2.11,1.92-2.11s1.93.82,1.93,2.11v4.34a1.85,1.85,0,0,1-1.93,2.11c-1.29,0-1.92-.84-1.92-2.11Zm.92,4.39c0,.76.33,1.21,1,1.21s1-.45,1-1.21V84.93c0-.76-.31-1.21-1-1.21s-1,.45-1,1.21Z" style="fill:#fff"></path><path d="M224.33,91.35h-.84V83h1.18l2,6.07V83h.82v8.4h-1l-2.14-6.79Z" style="fill:#fff"></path><path d="M287.79,85c0-1.29.63-2.11,1.92-2.11s1.93.82,1.93,2.11v4.34a1.85,1.85,0,0,1-1.93,2.11c-1.29,0-1.92-.84-1.92-2.11Zm.92,4.39c0,.76.32,1.21,1,1.21s1-.45,1-1.21V84.93c0-.76-.31-1.21-1-1.21s-1,.45-1,1.21Z"></path><path d="M295.39,86.86v.85h-1.93v3.64h-.93V83h3.33v.85h-2.4v3.06Z"></path><path d="M299.47,86.86v.85h-1.93v3.64h-.93V83h3.33v.85h-2.4v3.06Z"></path><path d="M290.55,171.52H224.71a17.19,17.19,0,0,1-17.19-17.19h0a17.2,17.2,0,0,1,17.19-17.2h65.84a17.2,17.2,0,0,1,17.2,17.2h0A17.2,17.2,0,0,1,290.55,171.52Z" style="fill:#999;stroke:#263238;stroke-linecap:round;stroke-linejoin:round"></path><circle cx="224.05" cy="154.12" r="13.53" style="fill:#fff"></circle><path d="M287.88,152.44c0-1.28.63-2.11,1.91-2.11a1.84,1.84,0,0,1,1.94,2.11v4.34a1.85,1.85,0,0,1-1.94,2.11c-1.28,0-1.91-.84-1.91-2.11Zm.92,4.39c0,.77.32,1.21,1,1.21s1-.44,1-1.21v-4.44c0-.75-.31-1.21-1-1.21s-1,.46-1,1.21Z" style="fill:#fff"></path><path d="M295.48,154.32v.86h-1.93v3.63h-.93v-8.4H296v.86h-2.4v3Z" style="fill:#fff"></path><path d="M299.56,154.32v.86h-1.93v3.63h-.93v-8.4H300v.86h-2.4v3Z" style="fill:#fff"></path></g><g id="freepik--Hand--inject-2"><path d="M368.78,463.66l-.09,0c-1.05.26-2.11.51-3.17.75l-.09,0c-1,.24-2,.47-3.07.69l-.65.13-3.08.62c-1.15.22-2.3.43-3.46.63-1.31.23-2.64.45-4,.66-1,.16-2,.3-3,.45h-.08c-2.25.32-4.5.61-6.78.86l-.68.08-3,.31-.42,0-3.42.3h0l-3.61.28h-.11c-1.12.08-2.24.14-3.37.2-2.66.15-5.33.25-8,.32-1.11,0-2.23.05-3.36.06s-2.49,0-3.74,0h0c-1.25,0-2.49,0-3.73,0l-1.32,0H306l-3-.07c-1.06,0-2.11-.06-3.17-.11-1.73-.06-3.48-.15-5.23-.25l-1.53-.09c-.76,0-1.51-.08-2.27-.13-.56,0-1.11-.09-1.67-.12l-.25,0c-1.35-3.3-2.61-6.17-3.67-8.2-2.64-5.05-12.91-18.77-12.91-18.77s-10.55.12-24.28-12.73-29.79-30.14-29.55-43.51c.18-9.58-1.59-15.64-2.43-21.15a29.75,29.75,0,0,1-.39-6.45c.19-2.87.93-6,.9-9.34,0-5.67-.67-11.61,1.86-14.61,4-4.78,15.93-.48,18.32,9.25s3.53,30.16,7.53,30,4.17-15.16,9.51-30.82l2.54-17,1-32.79.07-6.54s-2.9-16.47,1.8-24.95c0,0,4.75-8.13,10.29-1.2,5,6.27,4.86,8.33,8.49,31s.35,36.22,4.15,36.6,4.85-2.85,4.83-8.48.14-16.26,8.64-16.16,13.91,3.34,13.5,11.26-.44,14.26.89,14.73c0,0-1.51-8.76.36-13.92.82-2.26,2.34-4.95,9.4-2.2s7.77,7.48,8.54,12.63,1.82,9.46,1.82,9.46,8.59-.46,11.73,5.36,6.25,22.41,7.35,28.31c2.9,15.45-1.18,32.41-3.54,40.32a13.31,13.31,0,0,0,.55,9.24C349.42,425.87,360.13,445.5,368.78,463.66Z" style="fill:#fff"></path><path d="M275.88,429.5c-.52-5.57-10,2.82-32.29-16.72-24.74-21.68-18.4-58.84-22.77-57s-4.76,9.12-4.76,9.12c.84,5.51,2.61,11.57,2.43,21.15-.24,13.37,15.82,30.67,29.55,43.51s24.28,12.73,24.28,12.73,10.27,13.72,12.91,18.77c1.06,2,2.32,4.9,3.67,8.2l.25,0c.56,0,1.11.08,1.67.12.76,0,1.51.1,2.27.13l1.53.09c1.75.1,3.5.19,5.23.25-2.35-5.62-4.32-10.12-5.39-12.11C290.2,449.82,276.53,436.44,275.88,429.5Z" style="fill:#FFC100;opacity:0.5"></path><path d="M295.91,338.26a6.11,6.11,0,0,0-.23,2.52,33.55,33.55,0,0,0,2.73,10.76.66.66,0,0,0,1.26-.35,108.73,108.73,0,0,1-1.46-15.31C298.21,335,296.21,337.47,295.91,338.26Z" style="fill:#FFC100;opacity:0.5"></path><path d="M320.77,348.35a94.21,94.21,0,0,1-1.41-10.12c0-.16-.08-.2-.2-.15a7.21,7.21,0,0,0-2,2.67,6,6,0,0,0-.06,2.53,28,28,0,0,0,1.34,5.66,1.13,1.13,0,0,0,1.43.75A1.1,1.1,0,0,0,320.77,348.35Z" style="fill:#FFC100;opacity:0.5"></path><path d="M257.42,286.59l-.07,6.53-1,32.78-2.54,17c-4.29,12.58-5.24,24.71-7.52,29.09l-.05.5c-.1,1,0,2.41.94,2.58.7.13,1.33-.59,1.79-1.24,8.51-12.15,15.05-33.18,11.24-59.22-.8-5.51,0-17.76,3.81-21.72-1.6-12.12-3.77-18.44-5.44-29.88C254.82,271.78,257.42,286.59,257.42,286.59Z" style="fill:#FFC100;opacity:0.5"></path><path d="M267.62,340.07a9.53,9.53,0,0,0,0,4,49.64,49.64,0,0,0,4.53,14.26,1.32,1.32,0,0,0,2.47-.87,161.54,161.54,0,0,1-3.65-21.4C270.82,334.71,268,338.79,267.62,340.07Z" style="fill:#FFC100;opacity:0.5"></path><path d="M277.39,297.44a4.28,4.28,0,0,0-2.93-3.93c-2-.75-5.22-.83-4.84.81a12.24,12.24,0,0,1,3.37,1.14c3.27,2.4,1.27,4.6,1.27,4.6C275.81,300.87,277.3,299.18,277.39,297.44Z" style="fill:#FFC100;opacity:0.5"></path><path d="M334.86,342.41c-.05-.66-1.47,1.33-1.66,2a4.62,4.62,0,0,0,0,2,21.7,21.7,0,0,0,1,4.36.91.91,0,0,0,1.75-.46A72.83,72.83,0,0,1,334.86,342.41Z" style="fill:#FFC100;opacity:0.5"></path><path d="M288.9,469.27c-1.42-3.5-2.56-6.07-3.67-8.2-2.64-5.05-12.91-18.78-12.91-18.78s-10.54.13-24.28-12.72-29.79-30.14-29.55-43.51-3.3-19.9-2.82-27.6c.18-2.87.93-6,.89-9.34,0-5.68-.66-11.61,1.86-14.61,4-4.78,15.93-.48,18.32,9.25s3.54,30.16,7.54,30,4.17-15.16,9.51-30.82l2.54-17,1-32.78.07-6.53s-2.9-16.48,1.8-25c0,0,4.75-8.13,10.29-1.2,5,6.27,4.86,8.33,8.49,31s.35,36.23,4.15,36.62,4.85-2.86,4.82-8.49.15-16.26,8.66-16.15,13.89,3.34,13.5,11.25-.45,14.26.88,14.74c0,0-1.51-8.77.35-13.93.82-2.26,2.35-4.95,9.41-2.21s7.77,7.49,8.53,12.64,1.83,9.46,1.83,9.46,8.59-.46,11.73,5.36,6.25,22.42,7.36,28.32c2.88,15.44-1.19,32.4-3.56,40.31a13.37,13.37,0,0,0,.56,9.24c3.2,7.31,13.92,26.94,22.56,45.1" style="fill:none;stroke:#263238;stroke-linecap:round;stroke-miterlimit:10"></path><path d="M218.57,345.88a9.89,9.89,0,0,1,3.68-2.54c4.73-2.13,6.36-2.47,5.76-7.57" style="fill:none;stroke:#263238;stroke-linecap:round;stroke-linejoin:round"></path><path d="M225.56,351.32c.68-.32,1.39-.62,2.15-.89" style="fill:none;stroke:#263238;stroke-linecap:round;stroke-linejoin:round"></path><path d="M217.8,357.25a22.22,22.22,0,0,1,6.2-5.12" style="fill:none;stroke:#263238;stroke-linecap:round;stroke-linejoin:round"></path><path d="M260.19,264a2.35,2.35,0,0,0,2.43,2.36c2.44.06,8.85,1.4,8.09-1.5" style="fill:none;stroke:#263238;stroke-linecap:round;stroke-linejoin:round"></path><path d="M268.61,291.7a18.13,18.13,0,0,1,7.08.18" style="fill:none;stroke:#263238;stroke-linecap:round;stroke-linejoin:round"></path><path d="M264,292.9s.69-.28,1.82-.6" style="fill:none;stroke:#263238;stroke-linecap:round;stroke-linejoin:round"></path><path d="M328.89,329.39c.34,2.67,2.18,9.05,2.18,9.05" style="fill:none;stroke:#263238;stroke-linecap:round;stroke-linejoin:round"></path><path d="M280.92,373.78c5.06,12.77,9,25,15.06,38.26" style="fill:none;stroke:#263238;stroke-linecap:round;stroke-linejoin:round"></path><path d="M275.79,361.68c1,2.21,2,4.4,2.87,6.56" style="fill:none;stroke:#263238;stroke-linecap:round;stroke-linejoin:round"></path><line x1="336.4" y1="366.49" x2="336.64" y2="378.95" style="fill:none;stroke:#263238;stroke-linecap:round;stroke-linejoin:round"></line><line x1="336.29" y1="360.57" x2="336.35" y2="363.88" style="fill:none;stroke:#263238;stroke-linecap:round;stroke-linejoin:round"></line><path d="M296.51,332.22c-.11,3.11-.19,5.53-.27,8.07-.1,3,2,7,3.15,9.84,2,5,2.95,11.14,4.3,16.36" style="fill:none;stroke:#263238;stroke-linecap:round;stroke-linejoin:round"></path><path d="M304.51,371.36l2.82,11.85" style="fill:none;stroke:#263238;stroke-linecap:round;stroke-linejoin:round"></path><path d="M320.94,337.55l-.6,5.5a12.09,12.09,0,0,0,1.25,6.67l.84,12.22" style="fill:none;stroke:#263238;stroke-linecap:round;stroke-linejoin:round"></path><path d="M219.29,391.92a47.56,47.56,0,0,0,19.26,22.28" style="fill:none;stroke:#263238;stroke-linecap:round;stroke-linejoin:round"></path><path d="M260.94,427.89l7.46,3.27c1.09,4.12-1.19,6.58,10.26,19.87" style="fill:none;stroke:#263238;stroke-linecap:round;stroke-linejoin:round"></path></g><g id="freepik--Lamp--inject-2"><g id="freepik--lamp--inject-2"><line x1="381.12" y1="69.89" x2="381.12" y2="56.43" style="fill:none;stroke:#263238;stroke-linecap:round;stroke-linejoin:round"></line><circle cx="381.12" cy="92.5" r="12.2" style="fill:#fff"></circle><path d="M351.49,97.5a29.64,29.64,0,1,1,59.27,0Z" style="fill:#FFC100;stroke:#263238;stroke-linecap:round;stroke-linejoin:round"></path><path d="M386.61,68.38a27.36,27.36,0,0,0-2.74-.38A29.63,29.63,0,0,0,357,97.5h5.49A29.64,29.64,0,0,1,386.61,68.38Z" style="fill:#263238;stroke:#263238;stroke-linecap:round;stroke-linejoin:round"></path></g><line x1="380.18" y1="129.12" x2="380.18" y2="117.09" style="fill:none;stroke:#263238;stroke-miterlimit:10"></line><line x1="380.18" y1="136.86" x2="380.18" y2="132.99" style="fill:none;stroke:#263238;stroke-miterlimit:10"></line><line x1="399.91" y1="120.96" x2="391.33" y2="112.38" style="fill:none;stroke:#263238;stroke-miterlimit:10"></line><line x1="405.37" y1="126.42" x2="401.98" y2="123.03" style="fill:none;stroke:#263238;stroke-miterlimit:10"></line><line x1="399.91" y1="101.23" x2="396.04" y2="101.23" style="fill:none;stroke:#263238;stroke-miterlimit:10"></line><line x1="415.82" y1="101.23" x2="403.68" y2="101.23" style="fill:none;stroke:#263238;stroke-miterlimit:10"></line><line x1="356.98" y1="101.23" x2="344.55" y2="101.23" style="fill:none;stroke:#263238;stroke-miterlimit:10"></line><line x1="363.9" y1="101.23" x2="360.44" y2="101.23" style="fill:none;stroke:#263238;stroke-miterlimit:10"></line><line x1="358.38" y1="123.03" x2="354.98" y2="126.42" style="fill:none;stroke:#263238;stroke-miterlimit:10"></line><line x1="368.8" y1="112.6" x2="360.44" y2="120.96" style="fill:none;stroke:#263238;stroke-miterlimit:10"></line></g><g id="freepik--Plant--inject-2"><path d="M120.34,363.83a28.37,28.37,0,0,1-.59-11.35,73.48,73.48,0,0,0-3.67,7.45c-1.78,4.14-5.37,5.8-6.47,3.76-.68-1.26-.34-2.81,0-4.21l2.91-11.31c-2.14-3.44-3.62,8.86-8.82,15.24a3.35,3.35,0,0,1-3.87.89c-2.75-1.38-1-5,.2-7.53,2.08-4.22,2.64-8.17.67-12.44-2.3,5.32-6.56,8.78-11.29,12.15-1.35,1-3,1.88-4.64,1.12a3.74,3.74,0,0,1-1.9-4.33c.77-3.25,3.68-4.82,6-6.82,1.91-1.63,3.61-4.08,2.93-6.5a26,26,0,0,1-15.12,10.6,2.43,2.43,0,0,1-2.28-4.1l6.88-6.72a93.38,93.38,0,0,1-17.43,4.42,2.4,2.4,0,0,1-2.7-1.67c-.33-1.24.68-2,1.6-2.63a45.43,45.43,0,0,1,32.73-6.43c15.18,2.86,32,14.22,28.25,30.34A1.76,1.76,0,0,1,120.34,363.83Z" style="fill:#FFC100"></path><path d="M120.34,363.83a28.37,28.37,0,0,1-.59-11.35,73.48,73.48,0,0,0-3.67,7.45c-1.78,4.14-5.37,5.8-6.47,3.76-.68-1.26-.34-2.81,0-4.21l2.91-11.31c-2.14-3.44-3.62,8.86-8.82,15.24a3.35,3.35,0,0,1-3.87.89c-2.75-1.38-1-5,.2-7.53,2.08-4.22,2.64-8.17.67-12.44-2.3,5.32-6.56,8.78-11.29,12.15-1.35,1-3,1.88-4.64,1.12a3.74,3.74,0,0,1-1.9-4.33c.77-3.25,3.68-4.82,6-6.82,1.91-1.63,3.61-4.08,2.93-6.5a26,26,0,0,1-15.12,10.6,2.43,2.43,0,0,1-2.28-4.1l6.88-6.72a93.38,93.38,0,0,1-17.43,4.42,2.4,2.4,0,0,1-2.7-1.67c-.33-1.24.68-2,1.6-2.63a45.43,45.43,0,0,1,32.73-6.43c15.18,2.86,32,14.22,28.25,30.34A1.76,1.76,0,0,1,120.34,363.83Z" style="opacity:0.1"></path><path d="M79.12,335.94c19.25-2,34.42,5.76,43.3,16.14.27.32.54.64.8,1,6.57,8,11.25,17.2,15.09,26.86" style="fill:none;stroke:#263238;stroke-linecap:round;stroke-linejoin:round"></path><path d="M66.17,338.67a71.15,71.15,0,0,1,8-2" style="fill:none;stroke:#263238;stroke-linecap:round;stroke-linejoin:round"></path><path d="M134.73,323.82a2.18,2.18,0,0,0-4.08-1.45,18.1,18.1,0,0,0-1.66,5.11,21.26,21.26,0,0,0-1.89-21.19,2.18,2.18,0,0,0-3.92.91,28.92,28.92,0,0,0,.52,11.46,64,64,0,0,0-7.27-21.7c-.73-1.32-1.67-2.75-3.28-2.85a3.27,3.27,0,0,0-3.27,2.61c-.66,2.78,1,5.09,2.43,7.28,1.19,1.8,2.34,3.87,2,6a104.34,104.34,0,0,0-16.82-17.37c-1.68-1.36-3.8-2.77-5.89-1.53a3.79,3.79,0,0,0-1.68,3.81c.43,3.08,3,4.84,5.34,6.44a21.67,21.67,0,0,0-19.57-6,2.18,2.18,0,0,0-.48,4.1L82.63,303A14.1,14.1,0,0,0,72,306.09a2.17,2.17,0,0,0,1.34,3.82l11,.43-5.37,5a2.17,2.17,0,0,0,1.59,3.77l17-.88A11.1,11.1,0,0,0,90.66,320a2.18,2.18,0,0,0,.83,3.93,49.51,49.51,0,0,0,16.69.55,18.45,18.45,0,0,0-6.63,3.45,2.17,2.17,0,0,0,.7,3.71c6,2.07,12.36,4.78,18.17,6.56-1.61.22-4.34-.43-6.87-.76a2.17,2.17,0,0,0-1.75,3.76c6.36,5.8,13.92,13.7,19.64,5.75,2.24-3.11,1.1-10.93,1.67-14.76Q133.74,328,134.73,323.82Z" style="fill:#FFC100"></path><path d="M134.73,323.82a2.18,2.18,0,0,0-4.08-1.45,18.1,18.1,0,0,0-1.66,5.11,21.26,21.26,0,0,0-1.89-21.19,2.18,2.18,0,0,0-3.92.91,28.92,28.92,0,0,0,.52,11.46,64,64,0,0,0-7.27-21.7c-.73-1.32-1.67-2.75-3.28-2.85a3.27,3.27,0,0,0-3.27,2.61c-.66,2.78,1,5.09,2.43,7.28,1.19,1.8,2.34,3.87,2,6a104.34,104.34,0,0,0-16.82-17.37c-1.68-1.36-3.8-2.77-5.89-1.53a3.79,3.79,0,0,0-1.68,3.81c.43,3.08,3,4.84,5.34,6.44a21.67,21.67,0,0,0-19.57-6,2.18,2.18,0,0,0-.48,4.1L82.63,303A14.1,14.1,0,0,0,72,306.09a2.17,2.17,0,0,0,1.34,3.82l11,.43-5.37,5a2.17,2.17,0,0,0,1.59,3.77l17-.88A11.1,11.1,0,0,0,90.66,320a2.18,2.18,0,0,0,.83,3.93,49.51,49.51,0,0,0,16.69.55,18.45,18.45,0,0,0-6.63,3.45,2.17,2.17,0,0,0,.7,3.71c6,2.07,12.36,4.78,18.17,6.56-1.61.22-4.34-.43-6.87-.76a2.17,2.17,0,0,0-1.75,3.76c6.36,5.8,13.92,13.7,19.64,5.75,2.24-3.11,1.1-10.93,1.67-14.76Q133.74,328,134.73,323.82Z" style="fill:#fff;opacity:0.1"></path><path d="M127.31,338.5a70.45,70.45,0,0,1,3.62,9.15,72.31,72.31,0,0,1,3,28.6" style="fill:none;stroke:#263238;stroke-linecap:round;stroke-linejoin:round"></path><path d="M89.22,303.18a72,72,0,0,1,34.39,28.62" style="fill:none;stroke:#263238;stroke-linecap:round;stroke-linejoin:round"></path><path d="M147.25,366.06c5.73-2.61,10.42-8.3,12.63-15.5-1.53,8.32.92,12.85,3.14,13.76S168,364,169.23,362a8.86,8.86,0,0,0,.63-7c-1.17-4.15-3.58-10.55-3.58-10.55a17.67,17.67,0,0,0,8.19,5.1,6.43,6.43,0,0,0,4.57-.18c4.36-2,3.34-7.87.1-10.51a18,18,0,0,0-9.69-3.68c-.93-1,5.41-2.77,8.49-2.95,7.3-.43,10.79-10.34-.41-10-2.52.08-8.62.17-8.62.17,6.58-.38,12.57-7.32,12.19-12-.25-3.05-4-4.87-6.87-3.91-3.34,1.11-5.92,2.85-8.62,3.17,5.89-1.67,11.5-18.77,5.94-21.21-4.84-2.11-7.1,9-8.15,14.1-.36-2.51-.33-8.45-4.63-16.49a12.37,12.37,0,0,0-5.68-5.4c-3-1.38-5,2.44-4.78,5.34a11.15,11.15,0,0,0,1.78,5,55.76,55.76,0,0,1,8.61,31.89C157.71,346.5,151,361.39,147.25,366.06Z" style="fill:#FFC100"></path><path d="M147.25,366.06c5.73-2.61,10.42-8.3,12.63-15.5-1.53,8.32.92,12.85,3.14,13.76S168,364,169.23,362a8.86,8.86,0,0,0,.63-7c-1.17-4.15-3.58-10.55-3.58-10.55a17.67,17.67,0,0,0,8.19,5.1,6.43,6.43,0,0,0,4.57-.18c4.36-2,3.34-7.87.1-10.51a18,18,0,0,0-9.69-3.68c-.93-1,5.41-2.77,8.49-2.95,7.3-.43,10.79-10.34-.41-10-2.52.08-8.62.17-8.62.17,6.58-.38,12.57-7.32,12.19-12-.25-3.05-4-4.87-6.87-3.91-3.34,1.11-5.92,2.85-8.62,3.17,5.89-1.67,11.5-18.77,5.94-21.21-4.84-2.11-7.1,9-8.15,14.1-.36-2.51-.33-8.45-4.63-16.49a12.37,12.37,0,0,0-5.68-5.4c-3-1.38-5,2.44-4.78,5.34a11.15,11.15,0,0,0,1.78,5,55.76,55.76,0,0,1,8.61,31.89C157.71,346.5,151,361.39,147.25,366.06Z" style="fill:#fff;opacity:0.1"></path><path d="M153.92,290.43c5.51,9.86,7.61,21,7.1,32.27-1.19,25.88-14.73,46.82-26.84,60.62" style="fill:none;stroke:#263238;stroke-linecap:round;stroke-linejoin:round"></path><path d="M129.35,278.3a28,28,0,0,1,2.72-9.56c.63-1.29,1.5-2.66,3.19-2.62a3.09,3.09,0,0,1,2.8,2.27c.78,2.63-.74,4.9-2.19,6.94-.49-1.54,1.61-3.6,3.21-3.35s2.13,2.13,1.63,3.53a7.67,7.67,0,0,1-2.92,3.25c.56-.94,2.9-1.07,4-.76a2.57,2.57,0,0,1,1.78,2.47c-.1,3-5,3.85-5.35,6.82A14.5,14.5,0,0,1,143,284.8a2.84,2.84,0,0,1,3.42,1.46,3.6,3.6,0,0,1-.41,2.61,13.71,13.71,0,0,1-6.05,6.27c1.18-.62,2.44-1.37,3.71-2.14a3.83,3.83,0,0,1,5.58,4.65l0,.07a9.79,9.79,0,0,1-5.81,5.36,17.36,17.36,0,0,1,5.83-3.21,5.7,5.7,0,0,1,3.78,0c3.71,1.43,3.31,5.86,1.13,8.27-1.75,1.94-4.3,2.89-6.76,3.78,1.17-1.5,5.77-.81,7.18.47a5,5,0,0,1,1.14,5.26,8.22,8.22,0,0,1-3.7,4.19,24.29,24.29,0,0,1-5.3,2.1c1.81-.89,4.8-1.15,6.41.06a5.57,5.57,0,0,1,2.11,5.32c-.48,2.76-2.9,4.67-4.79,6.74-2.55,2.78-6.76,12.63-6.8,13-2.71-3.95-5.76-8.59-9.68-11.35-4.29-3-8.59-6.66-9.82-11.89a2.69,2.69,0,0,1,.93-2.77c1.58-1.19,3.51.31,4.76,1.69.32-3.14-4.67-4.22-4.7-7.29a3,3,0,0,1,1.44-2.48,8.06,8.06,0,0,1,4.18-.94,2.86,2.86,0,0,1,1.48.19,1,1,0,0,1,.55,1.24c-.22.46-1.06.43-1.12-.07-.17-1.25-2.64-3.76-3.56-4.63s-1.77-2.08-1.46-3.31a2.85,2.85,0,0,1,2.62-1.91c1.16-.08,4.23,1.33,5.32,1.72-.13.22-2.2-.59-2.33-.38-1.58-.8-2.52-2.38-4-3.35a9.24,9.24,0,0,1-3.19-3,3.62,3.62,0,0,1,.24-4.14c1-1.08,5-.43,5.5,1-1.78-1.27-4-3-5.79-4.3a9.4,9.4,0,0,1-2.63-2.43,3.2,3.2,0,0,1-.18-3.4,2.39,2.39,0,0,1,2.64-.94c1,.31,3.11.88,3.09,1.88a37.1,37.1,0,0,0-4.92-5.91,1.52,1.52,0,0,1,1-2.63,3.72,3.72,0,0,1,2,.46c-2.67-1.7-4.78-4.11-7-6.39a1.54,1.54,0,0,1-.34-1.7c.39-.81,1.26-.7,2-.51A15.67,15.67,0,0,1,129.35,278.3Z" style="fill:#FFC100"></path><g style="opacity:0.1"><path d="M129.35,278.3a28,28,0,0,1,2.72-9.56c.63-1.29,1.5-2.66,3.19-2.62a3.09,3.09,0,0,1,2.8,2.27c.78,2.63-.74,4.9-2.19,6.94-.49-1.54,1.61-3.6,3.21-3.35s2.13,2.13,1.63,3.53a7.67,7.67,0,0,1-2.92,3.25c.56-.94,2.9-1.07,4-.76a2.57,2.57,0,0,1,1.78,2.47c-.1,3-5,3.85-5.35,6.82A14.5,14.5,0,0,1,143,284.8a2.84,2.84,0,0,1,3.42,1.46,3.6,3.6,0,0,1-.41,2.61,13.71,13.71,0,0,1-6.05,6.27c1.18-.62,2.44-1.37,3.71-2.14a3.83,3.83,0,0,1,5.58,4.65l0,.07a9.79,9.79,0,0,1-5.81,5.36,17.36,17.36,0,0,1,5.83-3.21,5.7,5.7,0,0,1,3.78,0c3.71,1.43,3.31,5.86,1.13,8.27-1.75,1.94-4.3,2.89-6.76,3.78,1.17-1.5,5.77-.81,7.18.47a5,5,0,0,1,1.14,5.26,8.22,8.22,0,0,1-3.7,4.19,24.29,24.29,0,0,1-5.3,2.1c1.81-.89,4.8-1.15,6.41.06a5.57,5.57,0,0,1,2.11,5.32c-.48,2.76-2.9,4.67-4.79,6.74-2.55,2.78-6.76,12.63-6.8,13-2.71-3.95-5.76-8.59-9.68-11.35-4.29-3-8.59-6.66-9.82-11.89a2.69,2.69,0,0,1,.93-2.77c1.58-1.19,3.51.31,4.76,1.69.32-3.14-4.67-4.22-4.7-7.29a3,3,0,0,1,1.44-2.48,8.06,8.06,0,0,1,4.18-.94,2.86,2.86,0,0,1,1.48.19,1,1,0,0,1,.55,1.24c-.22.46-1.06.43-1.12-.07-.17-1.25-2.64-3.76-3.56-4.63s-1.77-2.08-1.46-3.31a2.85,2.85,0,0,1,2.62-1.91c1.16-.08,4.23,1.33,5.32,1.72-.13.22-2.2-.59-2.33-.38-1.58-.8-2.52-2.38-4-3.35a9.24,9.24,0,0,1-3.19-3,3.62,3.62,0,0,1,.24-4.14c1-1.08,5-.43,5.5,1-1.78-1.27-4-3-5.79-4.3a9.4,9.4,0,0,1-2.63-2.43,3.2,3.2,0,0,1-.18-3.4,2.39,2.39,0,0,1,2.64-.94c1,.31,3.11.88,3.09,1.88a37.1,37.1,0,0,0-4.92-5.91,1.52,1.52,0,0,1,1-2.63,3.72,3.72,0,0,1,2,.46c-2.67-1.7-4.78-4.11-7-6.39a1.54,1.54,0,0,1-.34-1.7c.39-.81,1.26-.7,2-.51A15.67,15.67,0,0,1,129.35,278.3Z"></path></g><path d="M138.22,302.85c11.66,43,2.87,69.93-6.13,86.52" style="fill:none;stroke:#263238;stroke-linecap:round;stroke-linejoin:round"></path><path d="M132.67,285.46c1.05,2.9,2,5.73,2.91,8.5" style="fill:none;stroke:#263238;stroke-linecap:round;stroke-linejoin:round"></path><polygon points="106.39 373.6 113.81 423.22 158.26 423.22 158.26 423.21 165.68 373.6 106.39 373.6" style="fill:#fff;stroke:#000;stroke-miterlimit:10"></polygon><polygon points="113.89 423.38 116.02 436.13 119.33 436.13 120.61 431.9 151.53 431.9 152.82 436.13 156.13 436.13 158.26 423.22 157.53 423.22 121.58 423.22 113.89 423.38" style="fill:none;stroke:#000;stroke-miterlimit:10"></polygon><polygon points="157.53 423.22 158.26 423.22 158.26 423.21 157.53 423.22" style="fill:none;stroke:#000;stroke-miterlimit:10"></polygon><polygon points="121 423.22 121.58 423.22 121.44 423.21 121 423.22" style="fill:none;stroke:#000;stroke-miterlimit:10"></polygon></g></svg>